<svg xmlns="http://www.w3.org/2000/svg" xmlns:xlink="http://www.w3.org/1999/xlink" width="326.157" height="123.701" viewBox="0 0 326.157 123.701">
  <defs>
    <linearGradient id="linear-gradient" x1="0.97" y1="0.436" x2="-1.177" y2="0.436" gradientUnits="objectBoundingBox">
      <stop offset="0" stop-color="#ffe000"/>
      <stop offset="0.409" stop-color="#ffbd00"/>
      <stop offset="0.775" stop-color="orange"/>
      <stop offset="1" stop-color="#ff9c00"/>
    </linearGradient>
    <linearGradient id="linear-gradient-2" x1="0.761" y1="0.213" x2="-0.443" y2="1.411" gradientUnits="objectBoundingBox">
      <stop offset="0" stop-color="#ff3a44"/>
      <stop offset="1" stop-color="#c31162"/>
    </linearGradient>
    <linearGradient id="linear-gradient-3" x1="-0.17" y1="-0.275" x2="0.367" y2="0.26" gradientUnits="objectBoundingBox">
      <stop offset="0" stop-color="#32a071"/>
      <stop offset="0.068" stop-color="#2da771"/>
      <stop offset="0.476" stop-color="#15cf74"/>
      <stop offset="0.801" stop-color="#06e775"/>
      <stop offset="1" stop-color="#00f076"/>
    </linearGradient>
    <linearGradient id="linear-gradient-4" x1="0.624" y1="0.038" x2="-0.364" y2="1.027" gradientUnits="objectBoundingBox">
      <stop offset="0" stop-color="#cc2e36"/>
      <stop offset="1" stop-color="#9c0e4e"/>
    </linearGradient>
    <linearGradient id="linear-gradient-5" x1="5.233" y1="-7.998" x2="-1.121" y2="-1.634" gradientUnits="objectBoundingBox">
      <stop offset="0" stop-color="#008de0"/>
      <stop offset="0.007" stop-color="#008de0"/>
      <stop offset="0.26" stop-color="#00a7e0"/>
      <stop offset="0.512" stop-color="#00b8e0"/>
      <stop offset="0.76" stop-color="#00c4e0"/>
      <stop offset="1" stop-color="#00c7e0"/>
    </linearGradient>
    <linearGradient id="linear-gradient-6" x1="0.943" y1="-0.195" x2="-2.414" y2="-0.195" gradientUnits="objectBoundingBox">
      <stop offset="0" stop-color="#e0c500"/>
      <stop offset="0.409" stop-color="#e0a600"/>
      <stop offset="0.775" stop-color="#e09100"/>
      <stop offset="1" stop-color="#e08900"/>
    </linearGradient>
    <linearGradient id="linear-gradient-7" x1="0.944" y1="0.999" x2="-2.414" y2="0.999" gradientUnits="objectBoundingBox">
      <stop offset="0" stop-color="#ffe840"/>
      <stop offset="0.409" stop-color="#ffce40"/>
      <stop offset="0.775" stop-color="#ffbc40"/>
      <stop offset="1" stop-color="#ffb540"/>
    </linearGradient>
    <linearGradient id="linear-gradient-8" x1="5.219" y1="0.865" x2="-1.113" y2="6.933" gradientUnits="objectBoundingBox">
      <stop offset="0" stop-color="#40b8ff"/>
      <stop offset="0.007" stop-color="#40b9ff"/>
      <stop offset="0.26" stop-color="#40ceff"/>
      <stop offset="0.512" stop-color="#40ddff"/>
      <stop offset="0.76" stop-color="#40e7ff"/>
      <stop offset="1" stop-color="#40eaff"/>
    </linearGradient>
    <linearGradient id="linear-gradient-9" x1="-0.137" y1="-0.184" x2="0.304" y2="0.257" gradientUnits="objectBoundingBox">
      <stop offset="0" stop-color="#65b895"/>
      <stop offset="0.068" stop-color="#62bd95"/>
      <stop offset="0.476" stop-color="#50db97"/>
      <stop offset="0.801" stop-color="#44ed98"/>
      <stop offset="1" stop-color="#40f498"/>
    </linearGradient>
    <linearGradient id="linear-gradient-10" x1="0.849" y1="0.31" x2="0.361" y2="0.799" gradientUnits="objectBoundingBox">
      <stop offset="0" stop-color="#00a0ff"/>
      <stop offset="0.007" stop-color="#00a1ff"/>
      <stop offset="0.26" stop-color="#00beff"/>
      <stop offset="0.512" stop-color="#00d2ff"/>
      <stop offset="0.76" stop-color="#00dfff"/>
      <stop offset="1" stop-color="#00e3ff"/>
    </linearGradient>
  </defs>
  <g id="Group_1835" data-name="Group 1835" transform="translate(-997.754 -160.308)">
    <path id="Path_3607" data-name="Path 3607" d="M314.077,123.7h-302C5.436,123.7,0,116.743,0,108.239V15.463C0,6.958,5.436,0,12.08,0h302c6.644,0,12.08,6.958,12.08,15.463v92.776c0,8.5-5.436,15.463-12.08,15.463" transform="translate(997.754 160.308)"/>
    <path id="Path_3608" data-name="Path 3608" d="M314.077,0h-302C5.436,0,0,6.958,0,15.463v92.776c0,8.5,5.436,15.463,12.08,15.463h302c6.644,0,12.08-6.958,12.08-15.463V15.463c0-8.5-5.436-15.463-12.08-15.463m0,2.474c5.6,0,10.147,5.828,10.147,12.989v92.776c0,7.162-4.552,12.99-10.147,12.99h-302c-5.594,0-10.147-5.828-10.147-12.99V15.463C1.933,8.3,6.485,2.474,12.08,2.474h302" transform="translate(997.754 160.308)" fill="#a6a6a6"/>
    <g id="Group_1833" data-name="Group 1833" transform="translate(616.6 -1083.579)">
      <path id="Path_3638" data-name="Path 3638" d="M223.054,163a5.027,5.027,0,0,0-1.513,3.958v58.444a5.193,5.193,0,0,0,1.306,3.763l.21.19h0a3.745,3.745,0,0,0,2.494.87,6.762,6.762,0,0,0,3.162-.9l40.969-22.086,14.073-7.587c1.787-.963,2.791-2.206,2.958-3.472v-.005c-.168-1.269-1.171-2.511-2.958-3.474l-14.074-7.586-40.968-22.086a6.774,6.774,0,0,0-3.168-.9,3.75,3.75,0,0,0-2.492.869Z" transform="translate(185.843 1109.556)" fill="#00c1ff"/>
      <path id="Path_3640" data-name="Path 3640" d="M12.344-162.442.686-173.506l11.657-11.061,14.074,7.586c1.787.964,2.791,2.205,2.958,3.474v.005c-.168,1.266-1.171,2.509-2.958,3.472l-14.073,7.587" transform="translate(443.181 1479.243)" fill="url(#linear-gradient)"/>
      <path id="Path_3641" data-name="Path 3641" d="M2.934-248.969A3.746,3.746,0,0,1,.44-249.84h0l34.967-33.177,11.658,11.063L6.1-249.868a6.761,6.761,0,0,1-3.162.9" transform="translate(408.46 1588.754)" fill="url(#linear-gradient-2)"/>
      <path id="Path_3642" data-name="Path 3642" d="M35.161-249.557.19-282.736a3.751,3.751,0,0,1,2.492-.869,6.773,6.773,0,0,1,3.168.9l40.968,22.086L35.16-249.557" transform="translate(408.706 1555.295)" fill="url(#linear-gradient-3)"/>
      <path id="Path_3643" data-name="Path 3643" d="M3.495-171.717a3.754,3.754,0,0,1-2.5-.871H1l-.009-.007-.182-.168-.018-.018.21-.2a3.745,3.745,0,0,0,2.494.87,6.76,6.76,0,0,0,3.162-.9l40.969-22.086.263.249-.266.143L6.656-172.617a7,7,0,0,1-2.9.894q-.129.006-.258.006" transform="translate(407.9 1511.895)" fill="url(#linear-gradient-4)"/>
      <path id="Path_3644" data-name="Path 3644" d="M1.421-31.152A5.191,5.191,0,0,1,.115-34.915v-.39a5.193,5.193,0,0,0,1.306,3.763l.21.19-.21.2" transform="translate(407.269 1370.266)" fill="url(#linear-gradient-5)"/>
      <path id="Path_3645" data-name="Path 3645" d="M.9-82.819l-.262-.249,14.073-7.587c1.787-.963,2.791-2.206,2.958-3.472a3.175,3.175,0,0,1-.326,1.381,5.9,5.9,0,0,1-2.632,2.482L.9-82.819" transform="translate(454.883 1399.868)" fill="url(#linear-gradient-6)"/>
      <path id="Path_3646" data-name="Path 3646" d="M17.665-83.375c-.168-1.269-1.171-2.511-2.958-3.474L.633-94.435.9-94.684h0l13.81,7.445c1.97,1.063,2.957,2.463,2.958,3.864" transform="translate(454.891 1389.111)" fill="url(#linear-gradient-7)"/>
      <path id="Path_3647" data-name="Path 3647" d="M.115-30.6v-.409c0-.148,0-.292.012-.432v-.006a.018.018,0,0,1,0-.006v-.016a4.957,4.957,0,0,1,1.293-3.286l.206.2A5.028,5.028,0,0,0,.115-30.6" transform="translate(407.269 1307.12)" fill="url(#linear-gradient-8)"/>
      <path id="Path_3648" data-name="Path 3648" d="M47.623-171.525,6.655-193.611a6.773,6.773,0,0,0-3.168-.9A3.75,3.75,0,0,0,1-193.642l-.206-.2q.1-.1.2-.187L1-194.033a3.747,3.747,0,0,1,2.469-.87h.021a6.771,6.771,0,0,1,3.168.9l41.232,22.227h0l-.263.249" transform="translate(407.901 1466.201)" fill="url(#linear-gradient-9)"/>
    </g>
    <g id="Group_1834" data-name="Group 1834">
      <g id="Group_1831" data-name="Group 1831" transform="translate(11 -180.811)">
        <path id="Path_3609" data-name="Path 3609" d="M932.754,160.579a6.243,6.243,0,0,1-1.735,4.634,6.8,6.8,0,0,1-5.134,2.054,7.052,7.052,0,0,1-5.142-2.084,7.363,7.363,0,0,1,0-10.335,7.056,7.056,0,0,1,5.142-2.084,7.247,7.247,0,0,1,2.869.582,5.761,5.761,0,0,1,2.185,1.551l-1.228,1.221a4.732,4.732,0,0,0-3.826-1.647,5.545,5.545,0,1,0,3.9,9.54,4.352,4.352,0,0,0,1.172-2.812h-5.075v-1.667h6.772a5.9,5.9,0,0,1,.1,1.048" transform="translate(177.254 221.689)" fill="#fff"/>
        <path id="Path_3610" data-name="Path 3610" d="M930.766,158.586h-.233a6.01,6.01,0,0,1-1.667,4.47l0,0v0a6.564,6.564,0,0,1-4.966,1.983,6.821,6.821,0,0,1-4.978-2.016,7.133,7.133,0,0,1,0-10.006A6.819,6.819,0,0,1,923.9,151a7.017,7.017,0,0,1,2.777.563,5.537,5.537,0,0,1,2.1,1.488l.178-.149-.164-.164-1.228,1.222.165.163.179-.148a4.972,4.972,0,0,0-4-1.73,5.776,5.776,0,1,0,4.068,9.934,4.588,4.588,0,0,0,1.239-2.955l.022-.251h-5.1v-1.2h6.539v-.231l-.229.041a5.607,5.607,0,0,1,.094,1.007H931a6.078,6.078,0,0,0-.1-1.089l-.034-.19h-7.2v2.13h5.307v-.231l-.232-.02a4.129,4.129,0,0,1-1.1,2.668,5.326,5.326,0,1,1-3.738-9.145,4.5,4.5,0,0,1,3.647,1.565l.164.193,1.407-1.4.151-.15-.137-.162a5.984,5.984,0,0,0-2.272-1.615,7.481,7.481,0,0,0-2.96-.6,7.294,7.294,0,0,0-5.306,2.152,7.595,7.595,0,0,0,0,10.664,7.293,7.293,0,0,0,5.306,2.15,7.039,7.039,0,0,0,5.3-2.126l-.169-.16.165.164a6.476,6.476,0,0,0,1.8-4.8h-.233m10.735-5.8h-6.364v4.4h5.739v1.668h-5.739v4.4H941.5v1.705h-8.158V151.081H941.5v1.705" transform="translate(179.241 223.683)" fill="#fff"/>
        <path id="Path_3611" data-name="Path 3611" d="M1084.137,155.467v-.231h-6.6V160.1h5.739v1.2h-5.739v4.864h6.364v1.243h-7.692V153.993h7.692v1.474h.233v0h.233V153.53h-8.623v14.345h8.623v-2.168h-6.364v-3.939h5.739v-2.131h-5.739V155.7h6.364v-.231h-.233m7.572,12.177h-1.8V155.467h-3.9v-1.705h9.6v1.705h-3.9v12.177" transform="translate(36.604 221.003)" fill="#fff"/>
        <path id="Path_3612" data-name="Path 3612" d="M1177.355,167.643v-.231h-1.564V155.235h-3.9v-1.243h9.136v1.243h-3.9v12.408h.233v0h.233V155.7h3.9V153.53h-10.068V155.7h3.9v12.177h2.263v-.231h-.233m10.851,0V153.761h1.8v13.882h-1.8" transform="translate(-49.041 221.003)" fill="#fff"/>
        <path id="Path_3613" data-name="Path 3613" d="M1329.522,167.643h.233V153.993h1.329v13.419h-1.562v.231h0v.231h2.028V153.53h-2.261v14.345h.233v-.231m9.76,0h-1.8V155.467h-3.9v-1.705h9.6v1.705h-3.9v12.177" transform="translate(-190.357 221.003)" fill="#fff"/>
        <path id="Path_3614" data-name="Path 3614" d="M1373.947,166.957v-.231h-1.564V154.549h-3.9v-1.243h9.136v1.243h-3.9v12.408h.233v0h.233V155.012h3.9v-2.168h-10.068v2.168h3.9v12.177h2.263v-.231h-.233M1387.108,164a5.4,5.4,0,0,0,7.592,0,5.886,5.886,0,0,0,0-7.97,5.4,5.4,0,0,0-7.592,0,5.894,5.894,0,0,0,0,7.97Zm8.92,1.162a7.288,7.288,0,0,1-10.245,0,7.463,7.463,0,0,1,0-10.294,7.264,7.264,0,0,1,10.236.009,7.44,7.44,0,0,1,.009,10.285Z" transform="translate(-225.023 221.689)" fill="#fff"/>
        <path id="Path_3615" data-name="Path 3615" d="M1519.245,162.007l-.166.163a5.632,5.632,0,0,0,7.923,0,6.115,6.115,0,0,0,0-8.3,5.632,5.632,0,0,0-7.923,0,6.124,6.124,0,0,0,0,8.3l.166-.163.166-.163a5.664,5.664,0,0,1,0-7.644,5.165,5.165,0,0,1,7.261,0,5.659,5.659,0,0,1,0,7.644,5.165,5.165,0,0,1-7.261,0Zm8.92,1.162-.167-.161a7.057,7.057,0,0,1-9.913,0l-.006-.007.006.007a7.236,7.236,0,0,1,0-9.972,7.032,7.032,0,0,1,9.9.01,7.211,7.211,0,0,1,.009,9.963l.167.161.168.161a7.67,7.67,0,0,0-.009-10.606,7.5,7.5,0,0,0-10.571-.009h0a7.7,7.7,0,0,0,0,10.618l.006.007-.006-.007a7.522,7.522,0,0,0,10.581,0Zm4.579,1.794V151.081h2.185l6.791,10.8h.077l-.077-2.675v-8.124h1.8v13.882h-1.874l-7.105-11.323h-.077l.077,2.676v8.646h-1.794" transform="translate(-357.161 223.683)" fill="#fff"/>
        <path id="Path_3616" data-name="Path 3616" d="M992.164,167.643h.233V153.993h1.823l6.791,10.8h.446l-.084-2.91v-7.889h1.331v13.419h-1.512l-7.105-11.323h-.446l.084,2.911v8.411h-1.561v.231h0v.231h2.027v-8.881l-.077-2.679-.233.006v.231h.077v-.231l-.2.123,7.173,11.431h2.236V153.53h-2.263v8.358l.077,2.679.233-.006v-.231h-.077v.231l.2-.123-6.86-10.908h-2.547v14.345h.233v-.231m73.037,39.332h4.346V178.052H1065.2Zm39.143-18.5-4.982,12.54h-.149l-5.17-12.54h-4.681L1097.115,206l-4.42,9.749h4.534l11.948-27.276Zm-24.645,15.22c-1.425,0-3.409-.707-3.409-2.456,0-2.232,2.473-3.088,4.607-3.088a7.774,7.774,0,0,1,3.971.968A5.257,5.257,0,0,1,1079.7,203.691Zm.524-15.852c-3.146,0-6.4,1.377-7.753,4.429l3.857,1.6a4.125,4.125,0,0,1,3.971-2.121c2.247,0,4.532,1.34,4.569,3.722v.3a9.66,9.66,0,0,0-4.532-1.116c-4.157,0-8.391,2.269-8.391,6.512,0,3.87,3.41,6.364,7.229,6.364a6.144,6.144,0,0,0,5.545-2.828h.149v2.232h4.194V195.839c0-5.134-3.857-8-8.838-8Zm-26.857,4.154h-6.181v-9.914h6.181a4.959,4.959,0,1,1,0,9.914Zm-.112-13.94h-10.413v28.924h4.344V196.018h6.069c4.816,0,9.551-3.464,9.551-8.983S1058.07,178.052,1053.254,178.052ZM996.471,203.7a5.982,5.982,0,0,1,0-11.928c2.964,0,5.29,2.535,5.29,6,0,3.43-2.326,5.927-5.29,5.927Zm4.99-13.605h-.15a6.886,6.886,0,0,0-5.216-2.2,9.847,9.847,0,0,0,0,19.681,6.775,6.775,0,0,0,5.216-2.236h.15v1.416c0,3.765-2.026,5.778-5.29,5.778a5.48,5.48,0,0,1-4.991-3.5l-3.789,1.565a9.438,9.438,0,0,0,8.78,5.815c5.1,0,9.418-2.983,9.418-10.251V188.488h-4.127Zm7.129,16.885h4.352V178.051h-4.352Zm10.769-9.542a5.412,5.412,0,0,1,5.177-5.74,3.836,3.836,0,0,1,3.677,2.088Zm13.507-3.28c-.824-2.2-3.34-6.262-8.48-6.262-5.1,0-9.342,3.988-9.342,9.84a9.661,9.661,0,0,0,9.83,9.84,9.867,9.867,0,0,0,8.255-4.361l-3.377-2.237a5.664,5.664,0,0,1-4.878,2.721,5.043,5.043,0,0,1-4.8-2.982l13.244-5.442Zm-105.521-3.243v4.175H937.4a8.684,8.684,0,0,1-2.289,5.255,10.323,10.323,0,0,1-7.766,3.057,11.108,11.108,0,0,1,0-22.216,10.753,10.753,0,0,1,7.579,2.982l2.964-2.944a14.706,14.706,0,0,0-10.543-4.212,15.286,15.286,0,1,0,0,30.565,14.107,14.107,0,0,0,10.73-4.287,13.741,13.741,0,0,0,3.64-9.765,13.457,13.457,0,0,0-.226-2.609Zm25.8,12.785a5.976,5.976,0,1,1,5.59-5.964A5.71,5.71,0,0,1,953.148,203.7Zm0-15.8a9.841,9.841,0,1,0,9.943,9.84A9.732,9.732,0,0,0,953.148,187.892Zm21.69,15.8a5.976,5.976,0,1,1,5.591-5.964,5.71,5.71,0,0,1-5.591,5.964Zm0-15.8a9.841,9.841,0,1,0,9.943,9.84,9.732,9.732,0,0,0-9.943-9.84Z" transform="translate(183.42 221.003)" fill="#fff"/>
      </g>
      <path id="Path_3639" data-name="Path 3639" d="M1.631-485.211l-.21-.19a5.193,5.193,0,0,1-1.306-3.763v-58.444a5.028,5.028,0,0,1,1.513-3.958L36.6-518.387,1.631-485.211" transform="translate(1023.869 740.545)" fill="url(#linear-gradient-10)"/>
    </g>
  </g>
</svg>
