<svg xmlns="http://www.w3.org/2000/svg" xmlns:xlink="http://www.w3.org/1999/xlink" width="260" zoomAndPan="magnify" viewBox="0 0 194.87999 74.999997" height="100" preserveAspectRatio="xMidYMid meet" version="1.0"><defs><g/><clipPath id="b67742d38f"><path d="M 2.523438 5.453125 L 60.984375 5.453125 L 60.984375 63.917969 L 2.523438 63.917969 Z M 2.523438 5.453125 " clip-rule="nonzero"/></clipPath><clipPath id="abed52a9db"><path d="M 6.390625 9.054688 L 58.105469 9.054688 L 58.105469 60.769531 L 6.390625 60.769531 Z M 6.390625 9.054688 " clip-rule="nonzero"/></clipPath><clipPath id="1ec38a3aea"><path d="M 42 19 L 56.167969 19 L 56.167969 46 L 42 46 Z M 42 19 " clip-rule="nonzero"/></clipPath><clipPath id="1f856af739"><path d="M 7.449219 17 L 24 17 L 24 47 L 7.449219 47 Z M 7.449219 17 " clip-rule="nonzero"/></clipPath><clipPath id="2205bbaf0e"><path d="M 20 34 L 43 34 L 43 62.3125 L 20 62.3125 Z M 20 34 " clip-rule="nonzero"/></clipPath></defs><g clip-path="url(#b67742d38f)"><path fill="#d9d9d9" d="M 29.382812 6.75 L 29.285156 5.59375 C 30.878906 5.457031 32.515625 5.457031 34.113281 5.582031 L 34.019531 6.738281 C 32.488281 6.617188 30.914062 6.621094 29.382812 6.75 Z M 42.980469 8.988281 C 41.566406 8.371094 40.089844 7.867188 38.59375 7.488281 L 38.875 6.363281 C 40.433594 6.753906 41.972656 7.28125 43.445312 7.925781 Z M 20.433594 9.027344 L 19.964844 7.964844 C 21.433594 7.316406 22.96875 6.785156 24.527344 6.390625 L 24.8125 7.515625 C 23.316406 7.894531 21.84375 8.402344 20.433594 9.027344 Z M 50.722656 14.039062 C 49.585938 12.996094 48.351562 12.035156 47.0625 11.195312 L 47.695312 10.222656 C 49.039062 11.097656 50.320312 12.097656 51.507812 13.183594 Z M 12.710938 14.101562 L 11.925781 13.25 C 13.105469 12.160156 14.382812 11.15625 15.726562 10.277344 L 16.363281 11.246094 C 15.074219 12.09375 13.84375 13.054688 12.710938 14.101562 Z M 56.417969 21.324219 C 55.679688 19.96875 54.820312 18.664062 53.871094 17.449219 L 54.78125 16.734375 C 55.773438 18 56.664062 19.359375 57.433594 20.769531 Z M 7.039062 21.410156 L 6.019531 20.855469 C 6.785156 19.445312 7.671875 18.082031 8.660156 16.808594 L 9.574219 17.523438 C 8.625 18.742188 7.773438 20.050781 7.039062 21.410156 Z M 59.433594 30.0625 C 59.175781 28.539062 58.792969 27.027344 58.289062 25.566406 L 59.382812 25.1875 C 59.90625 26.707031 60.308594 28.28125 60.574219 29.871094 Z M 4.054688 30.160156 L 2.910156 29.972656 C 3.171875 28.382812 3.566406 26.808594 4.085938 25.285156 L 5.183594 25.660156 C 4.683594 27.121094 4.304688 28.636719 4.054688 30.160156 Z M 60.585938 39.570312 L 59.445312 39.378906 C 59.695312 37.863281 59.820312 36.304688 59.820312 34.753906 L 59.820312 34.6875 L 60.980469 34.6875 L 60.980469 34.75 C 60.980469 36.367188 60.847656 37.988281 60.585938 39.570312 Z M 2.921875 39.601562 C 2.65625 38.023438 2.523438 36.402344 2.523438 34.789062 L 3.679688 34.789062 C 3.683594 36.339844 3.8125 37.894531 4.0625 39.414062 Z M 57.464844 48.679688 L 56.445312 48.128906 C 57.183594 46.769531 57.808594 45.339844 58.308594 43.878906 L 59.40625 44.253906 C 58.882812 45.773438 58.230469 47.265625 57.464844 48.679688 Z M 6.050781 48.707031 C 5.285156 47.292969 4.628906 45.804688 4.109375 44.289062 L 5.203125 43.910156 C 5.707031 45.367188 6.332031 46.796875 7.070312 48.152344 Z M 51.550781 56.28125 L 50.765625 55.425781 C 51.902344 54.378906 52.960938 53.230469 53.90625 52.011719 L 54.820312 52.726562 C 53.835938 53.992188 52.734375 55.191406 51.550781 56.28125 Z M 11.96875 56.300781 C 10.789062 55.210938 9.6875 54.015625 8.699219 52.746094 L 9.613281 52.035156 C 10.5625 53.25 11.617188 54.398438 12.753906 55.445312 Z M 43.507812 61.554688 L 43.039062 60.492188 C 44.449219 59.871094 45.820312 59.128906 47.113281 58.28125 L 47.746094 59.25 C 46.402344 60.132812 44.976562 60.910156 43.507812 61.554688 Z M 20.027344 61.566406 C 18.554688 60.921875 17.125 60.148438 15.78125 59.265625 L 16.414062 58.296875 C 17.707031 59.140625 19.078125 59.886719 20.492188 60.503906 Z M 34.179688 63.917969 L 34.085938 62.761719 C 35.625 62.636719 37.164062 62.378906 38.65625 62 L 38.941406 63.125 C 37.386719 63.519531 35.785156 63.785156 34.179688 63.917969 Z M 29.355469 63.921875 C 27.75 63.792969 26.148438 63.527344 24.59375 63.132812 L 24.878906 62.007812 C 26.371094 62.386719 27.910156 62.640625 29.449219 62.765625 L 29.355469 63.921875 " fill-opacity="1" fill-rule="nonzero"/></g><g clip-path="url(#abed52a9db)"><path fill="#ffffff" d="M 32.25 9.054688 C 17.964844 9.054688 6.390625 20.628906 6.390625 34.910156 C 6.390625 49.195312 17.964844 60.769531 32.25 60.769531 C 46.53125 60.769531 58.105469 49.195312 58.105469 34.910156 C 58.105469 20.628906 46.53125 9.054688 32.25 9.054688 " fill-opacity="1" fill-rule="nonzero"/></g><path fill="#949191" d="M 51.371094 33.402344 C 51.371094 33.402344 49.019531 43.253906 40.210938 44.722656 C 40.210938 44.722656 50.847656 45.820312 51.371094 33.402344 " fill-opacity="1" fill-rule="nonzero"/><path fill="#949191" d="M 21.960938 30.074219 C 21.960938 30.074219 22.058594 40.203125 30.3125 43.605469 C 30.3125 43.605469 19.703125 42.296875 21.960938 30.074219 " fill-opacity="1" fill-rule="nonzero"/><path fill="#949191" d="M 18.757812 23.023438 C 18.757812 23.023438 11.367188 27.703125 13.324219 37.976562 C 13.324219 37.976562 8.03125 26.894531 18.757812 23.023438 " fill-opacity="1" fill-rule="nonzero"/><g clip-path="url(#1ec38a3aea)"><path fill="#949191" d="M 43.515625 19.847656 C 43.105469 19.847656 42.703125 19.871094 42.308594 19.90625 C 48.714844 20.515625 53.722656 25.921875 53.722656 32.5 C 53.722656 39.082031 48.714844 44.484375 42.308594 45.09375 C 42.703125 45.132812 43.105469 45.152344 43.515625 45.152344 C 50.484375 45.152344 56.136719 39.488281 56.136719 32.5 C 56.136719 25.515625 50.484375 19.847656 43.515625 19.847656 " fill-opacity="1" fill-rule="nonzero"/></g><g clip-path="url(#1f856af739)"><path fill="#949191" d="M 22.359375 17.101562 C 22.839844 17.101562 23.3125 17.125 23.78125 17.167969 C 16.230469 17.886719 10.324219 24.257812 10.324219 32.011719 C 10.324219 39.769531 16.230469 46.140625 23.78125 46.855469 C 23.3125 46.898438 22.839844 46.921875 22.359375 46.921875 C 14.144531 46.921875 7.484375 40.246094 7.484375 32.011719 C 7.484375 23.777344 14.144531 17.101562 22.359375 17.101562 " fill-opacity="1" fill-rule="nonzero"/></g><path fill="#949191" d="M 24.03125 14.554688 C 23.933594 14.824219 23.851562 15.09375 23.78125 15.363281 C 25.714844 11.289062 30.460938 9.285156 34.773438 10.859375 C 39.089844 12.4375 41.433594 17.035156 40.296875 21.402344 C 40.417969 21.148438 40.527344 20.890625 40.625 20.621094 C 42.292969 16.027344 39.933594 10.949219 35.351562 9.273438 C 30.769531 7.597656 25.703125 9.964844 24.03125 14.554688 " fill-opacity="1" fill-rule="nonzero"/><path fill="#949191" d="M 23.882812 19.394531 C 23.574219 19.535156 23.269531 19.6875 22.980469 19.855469 C 28.101562 18.105469 33.800781 20.519531 36.066406 25.5625 C 38.328125 30.609375 36.347656 36.484375 31.644531 39.164062 C 31.960938 39.054688 32.277344 38.933594 32.589844 38.792969 C 37.933594 36.382812 40.316406 30.085938 37.914062 24.730469 C 35.507812 19.371094 29.226562 16.984375 23.882812 19.394531 " fill-opacity="1" fill-rule="nonzero"/><path fill="#949191" d="M 16.039062 32.421875 C 16.039062 31.941406 16.0625 31.464844 16.105469 30.996094 C 16.820312 38.5625 23.179688 44.484375 30.914062 44.484375 C 38.652344 44.484375 45.007812 38.5625 45.722656 30.996094 C 45.765625 31.464844 45.792969 31.941406 45.792969 32.421875 C 45.792969 40.65625 39.128906 47.332031 30.914062 47.332031 C 22.699219 47.332031 16.039062 40.65625 16.039062 32.421875 " fill-opacity="1" fill-rule="nonzero"/><g clip-path="url(#2205bbaf0e)"><path fill="#56b813" d="M 42.566406 41.691406 C 40.136719 44.546875 37.765625 42.351562 34.574219 45.464844 C 38.636719 41.625 39.152344 34.4375 39.152344 34.4375 C 37.175781 40.023438 33.21875 39.222656 30.554688 44.546875 C 28.109375 43.261719 22.839844 44.898438 20.390625 40.183594 C 21.726562 46.921875 29.648438 47.695312 29.648438 47.695312 C 28.738281 56.304688 30.039062 60.6875 30.679688 61.832031 C 30.871094 62.171875 31.285156 62.3125 31.644531 62.164062 C 32.109375 61.96875 32.265625 61.382812 31.957031 60.984375 C 29.324219 57.558594 31.265625 47.828125 31.265625 47.828125 C 38.859375 47.644531 42.566406 41.691406 42.566406 41.691406 " fill-opacity="1" fill-rule="nonzero"/></g><g fill="#56b813" fill-opacity="1"><g transform="translate(66.180965, 61.865469)"><g><path d="M 20.171875 0 L 14.984375 0 L 14.984375 -11.046875 L 7.28125 -11.046875 L 7.28125 0 L 2.078125 0 L 2.078125 -25.8125 L 7.28125 -25.8125 L 7.28125 -15.375 L 14.984375 -15.375 L 14.984375 -25.8125 L 20.171875 -25.8125 Z M 20.171875 0 "/></g></g></g><g fill="#56b813" fill-opacity="1"><g transform="translate(88.464339, 61.865469)"><g><path d="M 15.40625 -11.171875 L 7.28125 -11.171875 L 7.28125 -4.328125 L 16.890625 -4.328125 L 16.890625 0 L 2.078125 0 L 2.078125 -25.8125 L 16.859375 -25.8125 L 16.859375 -21.46875 L 7.28125 -21.46875 L 7.28125 -15.375 L 15.40625 -15.375 Z M 15.40625 -11.171875 "/></g></g></g><g fill="#56b813" fill-opacity="1"><g transform="translate(106.280401, 61.865469)"><g><path d="M 14.390625 -5.28125 L 7.28125 -5.28125 L 5.90625 0 L 0.390625 0 L 8.453125 -25.8125 L 13.234375 -25.8125 L 21.34375 0 L 15.78125 0 Z M 8.421875 -9.625 L 13.25 -9.625 L 10.828125 -18.828125 Z M 8.421875 -9.625 "/></g></g></g><g fill="#56b813" fill-opacity="1"><g transform="translate(127.961041, 61.865469)"><g><path d="M 7.28125 -4.328125 L 16.4375 -4.328125 L 16.4375 0 L 2.078125 0 L 2.078125 -25.8125 L 7.28125 -25.8125 Z M 7.28125 -4.328125 "/></g></g></g><g fill="#56b813" fill-opacity="1"><g transform="translate(145.333917, 61.865469)"><g><path d="M 18.796875 -21.46875 L 12.40625 -21.46875 L 12.40625 0 L 7.1875 0 L 7.1875 -21.46875 L 0.90625 -21.46875 L 0.90625 -25.8125 L 18.796875 -25.8125 Z M 18.796875 -21.46875 "/></g></g></g><g fill="#56b813" fill-opacity="1"><g transform="translate(165.046814, 61.865469)"><g><path d="M 20.171875 0 L 14.984375 0 L 14.984375 -11.046875 L 7.28125 -11.046875 L 7.28125 0 L 2.078125 0 L 2.078125 -25.8125 L 7.28125 -25.8125 L 7.28125 -15.375 L 14.984375 -15.375 L 14.984375 -25.8125 L 20.171875 -25.8125 Z M 20.171875 0 "/></g></g></g><g fill="#ffffff" fill-opacity="1"><g transform="translate(66.846038, 28.387661)"><g><path d="M 13.859375 -6.09375 C 13.765625 -4.007812 13.175781 -2.429688 12.09375 -1.359375 C 11.019531 -0.285156 9.5 0.25 7.53125 0.25 C 5.46875 0.25 3.882812 -0.425781 2.78125 -1.78125 C 1.675781 -3.144531 1.125 -5.085938 1.125 -7.609375 L 1.125 -10.6875 C 1.125 -13.195312 1.691406 -15.128906 2.828125 -16.484375 C 3.972656 -17.847656 5.554688 -18.53125 7.578125 -18.53125 C 9.578125 -18.53125 11.09375 -17.972656 12.125 -16.859375 C 13.15625 -15.742188 13.742188 -14.144531 13.890625 -12.0625 L 10.1875 -12.0625 C 10.15625 -13.351562 9.957031 -14.242188 9.59375 -14.734375 C 9.226562 -15.222656 8.554688 -15.46875 7.578125 -15.46875 C 6.597656 -15.46875 5.898438 -15.125 5.484375 -14.4375 C 5.078125 -13.75 4.859375 -12.613281 4.828125 -11.03125 L 4.828125 -7.578125 C 4.828125 -5.753906 5.03125 -4.503906 5.4375 -3.828125 C 5.84375 -3.148438 6.539062 -2.8125 7.53125 -2.8125 C 8.5 -2.8125 9.164062 -3.046875 9.53125 -3.515625 C 9.90625 -3.992188 10.117188 -4.851562 10.171875 -6.09375 Z M 13.859375 -6.09375 "/></g></g></g><g fill="#ffffff" fill-opacity="1"><g transform="translate(81.513641, 28.387661)"><g><path d="M 14.34375 -7.5 C 14.34375 -5.039062 13.757812 -3.132812 12.59375 -1.78125 C 11.4375 -0.425781 9.828125 0.25 7.765625 0.25 C 5.722656 0.25 4.113281 -0.421875 2.9375 -1.765625 C 1.769531 -3.109375 1.175781 -4.988281 1.15625 -7.40625 L 1.15625 -10.53125 C 1.15625 -13.039062 1.734375 -15 2.890625 -16.40625 C 4.054688 -17.820312 5.675781 -18.53125 7.75 -18.53125 C 9.78125 -18.53125 11.378906 -17.835938 12.546875 -16.453125 C 13.722656 -15.066406 14.320312 -13.125 14.34375 -10.625 Z M 10.640625 -10.5625 C 10.640625 -12.207031 10.40625 -13.429688 9.9375 -14.234375 C 9.46875 -15.046875 8.738281 -15.453125 7.75 -15.453125 C 6.769531 -15.453125 6.046875 -15.0625 5.578125 -14.28125 C 5.109375 -13.507812 4.863281 -12.332031 4.84375 -10.75 L 4.84375 -7.5 C 4.84375 -5.894531 5.082031 -4.710938 5.5625 -3.953125 C 6.039062 -3.203125 6.773438 -2.828125 7.765625 -2.828125 C 8.734375 -2.828125 9.453125 -3.195312 9.921875 -3.9375 C 10.390625 -4.675781 10.628906 -5.828125 10.640625 -7.390625 Z M 10.640625 -10.5625 "/></g></g></g><g fill="#ffffff" fill-opacity="1"><g transform="translate(97.035179, 28.387661)"><g><path d="M 13.3125 -15.203125 L 8.796875 -15.203125 L 8.796875 0 L 5.09375 0 L 5.09375 -15.203125 L 0.640625 -15.203125 L 0.640625 -18.28125 L 13.3125 -18.28125 Z M 13.3125 -15.203125 "/></g></g></g><g fill="#ffffff" fill-opacity="1"><g transform="translate(110.999541, 28.387661)"><g><path d="M 13.3125 -15.203125 L 8.796875 -15.203125 L 8.796875 0 L 5.09375 0 L 5.09375 -15.203125 L 0.640625 -15.203125 L 0.640625 -18.28125 L 13.3125 -18.28125 Z M 13.3125 -15.203125 "/></g></g></g><g fill="#ffffff" fill-opacity="1"><g transform="translate(124.963902, 28.387661)"><g><path d="M 14.34375 -7.5 C 14.34375 -5.039062 13.757812 -3.132812 12.59375 -1.78125 C 11.4375 -0.425781 9.828125 0.25 7.765625 0.25 C 5.722656 0.25 4.113281 -0.421875 2.9375 -1.765625 C 1.769531 -3.109375 1.175781 -4.988281 1.15625 -7.40625 L 1.15625 -10.53125 C 1.15625 -13.039062 1.734375 -15 2.890625 -16.40625 C 4.054688 -17.820312 5.675781 -18.53125 7.75 -18.53125 C 9.78125 -18.53125 11.378906 -17.835938 12.546875 -16.453125 C 13.722656 -15.066406 14.320312 -13.125 14.34375 -10.625 Z M 10.640625 -10.5625 C 10.640625 -12.207031 10.40625 -13.429688 9.9375 -14.234375 C 9.46875 -15.046875 8.738281 -15.453125 7.75 -15.453125 C 6.769531 -15.453125 6.046875 -15.0625 5.578125 -14.28125 C 5.109375 -13.507812 4.863281 -12.332031 4.84375 -10.75 L 4.84375 -7.5 C 4.84375 -5.894531 5.082031 -4.710938 5.5625 -3.953125 C 6.039062 -3.203125 6.773438 -2.828125 7.765625 -2.828125 C 8.734375 -2.828125 9.453125 -3.195312 9.921875 -3.9375 C 10.390625 -4.675781 10.628906 -5.828125 10.640625 -7.390625 Z M 10.640625 -10.5625 "/></g></g></g><g fill="#ffffff" fill-opacity="1"><g transform="translate(140.48544, 28.387661)"><g><path d="M 14.25 0 L 10.5625 0 L 5.15625 -12 L 5.15625 0 L 1.46875 0 L 1.46875 -18.28125 L 5.15625 -18.28125 L 10.578125 -6.28125 L 10.578125 -18.28125 L 14.25 -18.28125 Z M 14.25 0 "/></g></g></g></svg>