<svg xmlns="http://www.w3.org/2000/svg" xmlns:xlink="http://www.w3.org/1999/xlink" width="300" zoomAndPan="magnify" viewBox="0 0 224.87999 225" height="300" preserveAspectRatio="xMidYMid meet" version="1.0"><defs><clipPath id="id1"><path d="M 10.3125 9.074219 L 215.703125 9.074219 L 215.703125 214.464844 L 10.3125 214.464844 Z M 10.3125 9.074219 " clip-rule="nonzero"/></clipPath><clipPath id="id2"><path d="M 15.46875 14.414062 L 208.867188 14.414062 L 208.867188 207.8125 L 15.46875 207.8125 Z M 15.46875 14.414062 " clip-rule="nonzero"/></clipPath><clipPath id="id3"><path d="M 28.242188 26.304688 L 197.652344 26.304688 L 197.652344 195.714844 L 28.242188 195.714844 Z M 28.242188 26.304688 " clip-rule="nonzero"/></clipPath><clipPath id="id4"><path d="M 21.441406 30.601562 L 203.597656 30.601562 L 203.597656 194.765625 L 21.441406 194.765625 Z M 21.441406 30.601562 " clip-rule="nonzero"/></clipPath></defs><g clip-path="url(#id1)"><path fill="#00a78e" d="M 113.007812 9.074219 C 56.289062 9.074219 10.3125 55.054688 10.3125 111.769531 C 10.3125 168.488281 56.289062 214.464844 113.007812 214.464844 C 169.722656 214.464844 215.703125 168.488281 215.703125 111.769531 C 215.703125 55.054688 169.722656 9.074219 113.007812 9.074219 " fill-opacity="1" fill-rule="nonzero"/></g><g clip-path="url(#id2)"><path fill="#00a78e" d="M 104.328125 18.699219 L 104.007812 14.875 C 109.277344 14.433594 114.691406 14.425781 119.96875 14.847656 L 119.660156 18.671875 C 114.59375 18.265625 109.394531 18.277344 104.328125 18.699219 Z M 149.304688 26.109375 C 144.625 24.0625 139.742188 22.394531 134.789062 21.152344 L 135.71875 17.429688 C 140.878906 18.722656 145.964844 20.460938 150.839844 22.59375 Z M 74.71875 26.242188 L 73.171875 22.730469 C 78.039062 20.578125 83.117188 18.824219 88.261719 17.515625 L 89.207031 21.234375 C 84.265625 22.492188 79.390625 24.175781 74.71875 26.242188 Z M 174.914062 42.820312 C 171.148438 39.359375 167.074219 36.191406 162.800781 33.402344 L 164.894531 30.191406 C 169.339844 33.09375 173.585938 36.390625 177.503906 39.992188 Z M 49.179688 43.03125 L 46.578125 40.210938 C 50.484375 36.597656 54.714844 33.289062 59.152344 30.367188 L 61.257812 33.578125 C 56.992188 36.378906 52.929688 39.558594 49.179688 43.03125 Z M 193.746094 66.917969 C 191.304688 62.4375 188.472656 58.121094 185.324219 54.09375 L 188.34375 51.726562 C 191.621094 55.921875 194.570312 60.414062 197.109375 65.082031 Z M 30.425781 67.199219 L 27.054688 65.371094 C 29.578125 60.695312 32.511719 56.191406 35.777344 51.984375 L 38.804688 54.339844 C 35.667969 58.378906 32.847656 62.707031 30.425781 67.199219 Z M 203.722656 95.820312 C 202.875 90.78125 201.601562 85.777344 199.933594 80.949219 L 203.558594 79.695312 C 205.292969 84.722656 206.621094 89.933594 207.503906 95.183594 Z M 20.542969 96.152344 L 16.761719 95.527344 C 17.625 90.273438 18.929688 85.054688 20.648438 80.023438 L 24.277344 81.265625 C 22.628906 86.097656 21.371094 91.105469 20.542969 96.152344 Z M 207.539062 127.269531 L 203.757812 126.640625 C 204.589844 121.621094 205.007812 116.472656 205.007812 111.339844 L 205.007812 111.117188 L 208.84375 111.117188 L 208.84375 111.332031 C 208.84375 116.683594 208.40625 122.042969 207.539062 127.269531 Z M 16.796875 127.382812 C 15.925781 122.15625 15.484375 116.796875 15.476562 111.457031 L 19.308594 111.453125 C 19.316406 116.585938 19.742188 121.730469 20.578125 126.75 Z M 197.214844 157.410156 L 193.84375 155.582031 C 196.277344 151.082031 198.351562 146.351562 200.007812 141.523438 L 203.632812 142.769531 C 201.910156 147.800781 199.75 152.726562 197.214844 157.410156 Z M 27.15625 157.5 C 24.617188 152.820312 22.453125 147.902344 20.726562 142.878906 L 24.347656 141.628906 C 26.007812 146.453125 28.085938 151.175781 30.523438 155.667969 Z M 177.65625 182.550781 L 175.058594 179.726562 C 178.816406 176.261719 182.308594 172.460938 185.445312 168.429688 L 188.46875 170.789062 C 185.203125 174.984375 181.566406 178.941406 177.65625 182.550781 Z M 46.730469 182.613281 C 42.816406 179.007812 39.175781 175.054688 35.90625 170.863281 L 38.929688 168.5 C 42.070312 172.527344 45.566406 176.324219 49.324219 179.785156 Z M 151.042969 200 L 149.5 196.484375 C 154.164062 194.433594 158.695312 191.96875 162.96875 189.167969 L 165.070312 192.378906 C 160.617188 195.296875 155.898438 197.859375 151.042969 200 Z M 73.375 200.042969 C 68.507812 197.90625 63.785156 195.34375 59.332031 192.429688 L 61.429688 189.214844 C 65.703125 192.015625 70.242188 194.476562 74.914062 196.527344 Z M 120.199219 207.816406 L 119.882812 203.992188 C 124.980469 203.570312 130.066406 202.726562 135.003906 201.472656 L 135.945312 205.195312 C 130.800781 206.5 125.503906 207.378906 120.199219 207.816406 Z M 104.238281 207.828125 C 98.929688 207.394531 93.628906 206.519531 88.488281 205.222656 L 89.425781 201.5 C 94.359375 202.746094 99.449219 203.585938 104.546875 204 L 104.238281 207.828125 " fill-opacity="1" fill-rule="nonzero"/></g><g clip-path="url(#id3)"><path fill="#00a78e" d="M 112.949219 26.304688 C 66.167969 26.304688 28.242188 64.230469 28.242188 111.011719 C 28.242188 157.792969 66.167969 195.714844 112.949219 195.714844 C 159.730469 195.714844 197.652344 157.792969 197.652344 111.011719 C 197.652344 64.230469 159.730469 26.304688 112.949219 26.304688 " fill-opacity="1" fill-rule="nonzero"/></g><g clip-path="url(#id4)"><path fill="#ffffff" d="M 112.519531 30.601562 C 86.109375 30.601562 64.105469 49.425781 59.042969 74.414062 C 59.261719 74.378906 59.476562 74.378906 59.695312 74.378906 C 65.816406 74.378906 71.71875 75.585938 77.292969 77.921875 C 79.148438 78.6875 80.019531 80.835938 79.253906 82.695312 C 78.492188 84.554688 76.347656 85.433594 74.488281 84.632812 C 69.789062 82.664062 64.832031 81.675781 59.695312 81.675781 C 59.148438 81.675781 58.605469 81.675781 58.058594 81.710938 L 58.058594 81.746094 C 54.234375 81.894531 50.589844 82.625 47.128906 83.828125 C 46.546875 84.011719 45.960938 84.226562 45.414062 84.484375 C 44.285156 84.882812 43.191406 85.394531 42.136719 85.980469 C 41.589844 86.234375 41.042969 86.527344 40.535156 86.855469 C 40.023438 87.148438 39.515625 87.476562 39.003906 87.804688 C 37.476562 88.75 36.019531 89.847656 34.671875 91.050781 C 34.234375 91.417969 33.792969 91.820312 33.390625 92.222656 C 31.207031 94.265625 29.28125 96.558594 27.675781 99.074219 C 27.347656 99.585938 27.015625 100.097656 26.722656 100.605469 C 25.484375 102.648438 24.464844 104.84375 23.664062 107.140625 C 23.445312 107.722656 23.261719 108.308594 23.082031 108.894531 C 22.714844 110.0625 22.425781 111.257812 22.171875 112.464844 C 22.0625 113.082031 21.953125 113.667969 21.878906 114.289062 C 21.585938 116.148438 21.445312 118.046875 21.445312 119.980469 C 21.445312 120.710938 21.480469 121.402344 21.515625 122.097656 C 21.515625 122.535156 21.550781 122.933594 21.585938 123.335938 C 21.625 123.847656 21.699219 124.394531 21.773438 124.902344 C 21.773438 125.011719 21.769531 125.085938 21.808594 125.160156 C 21.917969 125.960938 22.03125 126.730469 22.214844 127.496094 C 22.359375 128.335938 22.535156 129.136719 22.753906 129.941406 C 22.972656 130.707031 23.195312 131.46875 23.449219 132.199219 C 24.144531 134.242188 24.976562 136.21875 26 138.078125 C 26.253906 138.550781 26.511719 139.023438 26.800781 139.496094 C 27.824219 141.210938 28.984375 142.886719 30.296875 144.417969 C 30.695312 144.894531 31.097656 145.371094 31.535156 145.84375 C 31.933594 146.355469 32.414062 146.832031 32.886719 147.269531 C 33.359375 147.742188 33.828125 148.179688 34.335938 148.617188 C 34.375 148.652344 34.378906 148.652344 34.378906 148.6875 L 34.488281 148.800781 C 36.34375 150.40625 38.351562 151.863281 40.5 153.140625 C 40.570312 153.175781 40.605469 153.210938 40.640625 153.246094 C 45.996094 150.183594 53.210938 147.339844 61.515625 147.339844 L 63.339844 147.339844 C 62.792969 145.699219 62.25 143.875 61.738281 141.832031 C 59.296875 132.054688 55.398438 125.78125 55.363281 125.746094 C 53.941406 123.484375 53.867188 120.632812 55.140625 118.296875 C 56.417969 115.964844 58.859375 114.507812 61.515625 114.507812 C 73.246094 114.507812 80.277344 124.101562 86.433594 132.527344 C 93.394531 142.011719 99.953125 150.988281 112.519531 150.988281 C 125.089844 150.988281 131.644531 142.011719 138.605469 132.527344 C 144.761719 124.101562 151.792969 114.507812 163.523438 114.507812 C 166.179688 114.507812 168.621094 115.964844 169.898438 118.296875 C 171.171875 120.632812 171.097656 123.484375 169.675781 125.746094 C 169.640625 125.78125 165.742188 132.054688 163.300781 141.832031 C 162.792969 143.875 162.246094 145.699219 161.699219 147.339844 L 163.523438 147.339844 C 171.828125 147.339844 179.042969 150.183594 184.398438 153.246094 C 184.433594 153.210938 184.46875 153.175781 184.539062 153.140625 C 194.15625 147.484375 200.828125 137.964844 202.90625 127.203125 C 203.085938 126.476562 203.195312 125.746094 203.265625 125.019531 C 203.375 124.25 203.453125 123.445312 203.488281 122.679688 C 203.5625 121.804688 203.59375 120.890625 203.59375 119.980469 C 203.59375 118.628906 203.519531 117.316406 203.410156 116.003906 C 203.335938 115.382812 203.269531 114.765625 203.195312 114.179688 C 200.355469 95.792969 184.46875 81.675781 165.34375 81.675781 C 156.492188 81.675781 148.078125 84.667969 141.265625 90.210938 C 144.617188 93.640625 147.34375 97.691406 149.3125 102.253906 C 150.113281 104.113281 149.277344 106.222656 147.417969 107.027344 C 145.5625 107.828125 143.410156 106.992188 142.644531 105.132812 C 137.4375 93.09375 125.597656 85.324219 112.519531 85.324219 C 98.128906 85.324219 85.5625 94.550781 81.261719 108.230469 C 80.753906 109.800781 79.335938 110.789062 77.769531 110.789062 C 77.40625 110.789062 77.039062 110.75 76.671875 110.640625 C 74.777344 110.019531 73.683594 107.976562 74.304688 106.042969 C 79.585938 89.300781 94.960938 78.027344 112.519531 78.027344 C 121.007812 78.027344 129.054688 80.722656 135.6875 85.429688 C 143.921875 78.316406 154.339844 74.378906 165.34375 74.378906 C 165.5625 74.378906 165.777344 74.378906 165.996094 74.414062 C 160.96875 49.425781 138.96875 30.601562 112.519531 30.601562 Z M 61.515625 121.804688 C 61.515625 121.804688 66 128.84375 68.804688 140.042969 C 72.375 154.417969 75.980469 154.640625 83.046875 158.140625 C 81.445312 157.449219 74.269531 154.636719 61.515625 154.636719 C 57.21875 154.636719 53.246094 155.589844 49.785156 156.9375 C 46.359375 158.25 43.449219 159.929688 41.1875 161.5 C 39.878906 162.375 38.78125 163.207031 37.945312 163.863281 C 37.144531 164.519531 36.5625 165.03125 36.273438 165.359375 C 36.199219 165.433594 36.125 165.472656 36.085938 165.546875 C 36.269531 165.472656 36.636719 165.285156 37.21875 165.066406 C 37.363281 164.996094 37.546875 164.925781 37.765625 164.855469 C 38.605469 164.527344 39.699219 164.15625 41.046875 163.757812 C 42.140625 163.429688 43.375 163.136719 44.796875 162.84375 C 46.035156 162.589844 47.382812 162.40625 48.839844 162.226562 C 49.382812 162.152344 49.96875 162.113281 50.554688 162.074219 C 51.71875 161.964844 52.957031 161.933594 54.230469 161.933594 C 68.804688 161.933594 76.089844 176.523438 94.304688 176.523438 C 94.304688 186.59375 102.464844 194.765625 112.519531 194.765625 C 122.574219 194.765625 130.734375 186.59375 130.734375 176.523438 C 148.949219 176.523438 156.234375 161.933594 170.808594 161.933594 C 172.082031 161.933594 173.320312 161.964844 174.484375 162.074219 C 175.070312 162.113281 175.65625 162.152344 176.199219 162.226562 C 177.65625 162.40625 179.003906 162.589844 180.242188 162.84375 C 181.664062 163.136719 182.898438 163.429688 183.992188 163.757812 C 185.339844 164.15625 186.433594 164.527344 187.273438 164.855469 C 187.492188 164.925781 187.675781 164.996094 187.820312 165.066406 C 188.402344 165.285156 188.769531 165.472656 188.953125 165.546875 L 188.800781 165.394531 C 188.691406 165.25 188.515625 165.109375 188.296875 164.925781 C 188.1875 164.816406 188.074219 164.707031 187.925781 164.597656 C 187.527344 164.234375 186.980469 163.796875 186.398438 163.320312 C 186.289062 163.25 186.179688 163.140625 186.035156 163.03125 C 185.523438 162.664062 184.941406 162.226562 184.285156 161.789062 C 183.738281 161.390625 183.195312 161.023438 182.578125 160.65625 C 182.101562 160.328125 181.59375 160 181.046875 159.710938 C 180.863281 159.601562 180.644531 159.492188 180.425781 159.382812 C 179.84375 159.015625 179.226562 158.683594 178.570312 158.390625 C 174.417969 156.3125 169.242188 154.636719 163.523438 154.636719 C 151.175781 154.636719 144.167969 157.238281 142.277344 158.035156 C 142.539062 157.921875 142.632812 157.863281 143.292969 157.621094 C 143.253906 157.601562 143.210938 157.585938 143.171875 157.566406 C 149.398438 154.605469 152.890625 153.515625 156.234375 140.042969 C 159.039062 128.84375 163.523438 121.804688 163.523438 121.804688 C 145.304688 121.804688 141.664062 158.285156 112.519531 158.285156 C 83.375 158.285156 79.734375 121.804688 61.515625 121.804688 Z M 61.515625 121.804688 " fill-opacity="1" fill-rule="nonzero"/></g></svg>