<svg xmlns="http://www.w3.org/2000/svg" xmlns:xlink="http://www.w3.org/1999/xlink" width="300" zoomAndPan="magnify" viewBox="0 0 224.87999 225" height="300" preserveAspectRatio="xMidYMid meet" version="1.0"><defs><clipPath id="id1"><path d="M 10.3125 9.074219 L 215.703125 9.074219 L 215.703125 214.464844 L 10.3125 214.464844 Z M 10.3125 9.074219 " clip-rule="nonzero"/></clipPath><clipPath id="id2"><path d="M 15.46875 14.414062 L 208.867188 14.414062 L 208.867188 207.8125 L 15.46875 207.8125 Z M 15.46875 14.414062 " clip-rule="nonzero"/></clipPath><clipPath id="id3"><path d="M 28.242188 26.304688 L 197.652344 26.304688 L 197.652344 195.714844 L 28.242188 195.714844 Z M 28.242188 26.304688 " clip-rule="nonzero"/></clipPath><clipPath id="id4"><path d="M 26.402344 35.066406 L 198.808594 35.066406 L 198.808594 190.234375 L 26.402344 190.234375 Z M 26.402344 35.066406 " clip-rule="nonzero"/></clipPath></defs><g clip-path="url(#id1)"><path fill="#009b71" d="M 113.007812 9.074219 C 56.289062 9.074219 10.3125 55.054688 10.3125 111.769531 C 10.3125 168.488281 56.289062 214.464844 113.007812 214.464844 C 169.722656 214.464844 215.703125 168.488281 215.703125 111.769531 C 215.703125 55.054688 169.722656 9.074219 113.007812 9.074219 " fill-opacity="1" fill-rule="nonzero"/></g><g clip-path="url(#id2)"><path fill="#009b71" d="M 104.328125 18.699219 L 104.007812 14.875 C 109.277344 14.433594 114.691406 14.425781 119.96875 14.847656 L 119.660156 18.671875 C 114.59375 18.265625 109.394531 18.277344 104.328125 18.699219 Z M 149.304688 26.109375 C 144.625 24.0625 139.742188 22.394531 134.789062 21.152344 L 135.71875 17.429688 C 140.878906 18.722656 145.964844 20.460938 150.839844 22.59375 Z M 74.71875 26.242188 L 73.171875 22.730469 C 78.039062 20.578125 83.117188 18.824219 88.261719 17.515625 L 89.207031 21.234375 C 84.265625 22.492188 79.390625 24.175781 74.71875 26.242188 Z M 174.914062 42.820312 C 171.148438 39.359375 167.074219 36.191406 162.800781 33.402344 L 164.894531 30.191406 C 169.339844 33.09375 173.585938 36.390625 177.503906 39.992188 Z M 49.179688 43.03125 L 46.578125 40.210938 C 50.484375 36.597656 54.714844 33.289062 59.152344 30.367188 L 61.257812 33.578125 C 56.992188 36.378906 52.929688 39.558594 49.179688 43.03125 Z M 193.746094 66.917969 C 191.304688 62.4375 188.472656 58.121094 185.324219 54.09375 L 188.34375 51.726562 C 191.621094 55.921875 194.570312 60.414062 197.109375 65.082031 Z M 30.425781 67.199219 L 27.054688 65.371094 C 29.578125 60.695312 32.511719 56.191406 35.777344 51.984375 L 38.804688 54.339844 C 35.667969 58.378906 32.847656 62.707031 30.425781 67.199219 Z M 203.722656 95.820312 C 202.875 90.78125 201.601562 85.777344 199.933594 80.949219 L 203.558594 79.695312 C 205.292969 84.722656 206.621094 89.933594 207.503906 95.183594 Z M 20.542969 96.152344 L 16.761719 95.527344 C 17.625 90.273438 18.929688 85.054688 20.648438 80.023438 L 24.277344 81.265625 C 22.628906 86.097656 21.371094 91.105469 20.542969 96.152344 Z M 207.539062 127.269531 L 203.757812 126.640625 C 204.589844 121.621094 205.007812 116.472656 205.007812 111.339844 L 205.007812 111.117188 L 208.84375 111.117188 L 208.84375 111.332031 C 208.84375 116.683594 208.40625 122.042969 207.539062 127.269531 Z M 16.796875 127.382812 C 15.925781 122.15625 15.484375 116.796875 15.476562 111.457031 L 19.308594 111.453125 C 19.316406 116.585938 19.742188 121.730469 20.578125 126.75 Z M 197.214844 157.410156 L 193.84375 155.582031 C 196.277344 151.082031 198.351562 146.351562 200.007812 141.523438 L 203.632812 142.769531 C 201.910156 147.800781 199.75 152.726562 197.214844 157.410156 Z M 27.15625 157.5 C 24.617188 152.820312 22.453125 147.902344 20.726562 142.878906 L 24.347656 141.628906 C 26.007812 146.453125 28.085938 151.175781 30.523438 155.667969 Z M 177.65625 182.550781 L 175.058594 179.726562 C 178.816406 176.261719 182.308594 172.460938 185.445312 168.429688 L 188.46875 170.789062 C 185.203125 174.984375 181.566406 178.941406 177.65625 182.550781 Z M 46.730469 182.613281 C 42.816406 179.007812 39.175781 175.054688 35.90625 170.863281 L 38.929688 168.5 C 42.070312 172.527344 45.566406 176.324219 49.324219 179.785156 Z M 151.042969 200 L 149.5 196.484375 C 154.164062 194.433594 158.695312 191.96875 162.96875 189.167969 L 165.070312 192.378906 C 160.617188 195.296875 155.898438 197.859375 151.042969 200 Z M 73.375 200.042969 C 68.507812 197.90625 63.785156 195.34375 59.332031 192.429688 L 61.429688 189.214844 C 65.703125 192.015625 70.242188 194.476562 74.914062 196.527344 Z M 120.199219 207.816406 L 119.882812 203.992188 C 124.980469 203.570312 130.066406 202.726562 135.003906 201.472656 L 135.945312 205.195312 C 130.800781 206.5 125.503906 207.378906 120.199219 207.816406 Z M 104.238281 207.828125 C 98.929688 207.394531 93.628906 206.519531 88.488281 205.222656 L 89.425781 201.5 C 94.359375 202.746094 99.449219 203.585938 104.546875 204 L 104.238281 207.828125 " fill-opacity="1" fill-rule="nonzero"/></g><g clip-path="url(#id3)"><path fill="#009b71" d="M 112.949219 26.304688 C 66.167969 26.304688 28.242188 64.230469 28.242188 111.011719 C 28.242188 157.792969 66.167969 195.714844 112.949219 195.714844 C 159.730469 195.714844 197.652344 157.792969 197.652344 111.011719 C 197.652344 64.230469 159.730469 26.304688 112.949219 26.304688 " fill-opacity="1" fill-rule="nonzero"/></g><g clip-path="url(#id4)"><path fill="#ffffff" d="M 112.605469 35.066406 C 87.605469 35.066406 66.78125 52.859375 61.988281 76.476562 C 62.195312 76.441406 62.402344 76.445312 62.609375 76.445312 C 68.402344 76.445312 73.988281 77.585938 79.261719 79.792969 C 81.019531 80.515625 81.84375 82.546875 81.121094 84.304688 C 80.398438 86.0625 78.367188 86.894531 76.609375 86.136719 C 72.160156 84.273438 67.46875 83.339844 62.609375 83.339844 C 62.089844 83.339844 61.574219 83.339844 61.058594 83.375 L 61.058594 83.40625 C 57.4375 83.546875 53.988281 84.238281 50.714844 85.375 C 50.164062 85.546875 49.609375 85.753906 49.089844 85.992188 C 48.023438 86.375 46.988281 86.855469 45.988281 87.40625 C 45.46875 87.648438 44.953125 87.925781 44.472656 88.238281 C 43.988281 88.511719 43.507812 88.820312 43.023438 89.132812 C 41.574219 90.027344 40.199219 91.066406 38.921875 92.203125 C 38.507812 92.546875 38.089844 92.929688 37.710938 93.308594 C 35.640625 95.238281 33.820312 97.40625 32.300781 99.785156 C 31.992188 100.269531 31.675781 100.75 31.398438 101.234375 C 30.226562 103.164062 29.261719 105.238281 28.503906 107.410156 C 28.296875 107.960938 28.125 108.515625 27.949219 109.066406 C 27.605469 110.171875 27.332031 111.304688 27.089844 112.441406 C 26.984375 113.027344 26.882812 113.578125 26.8125 114.164062 C 26.539062 115.921875 26.402344 117.71875 26.402344 119.546875 C 26.402344 120.234375 26.433594 120.890625 26.46875 121.546875 C 26.46875 121.960938 26.503906 122.339844 26.535156 122.71875 C 26.570312 123.199219 26.644531 123.714844 26.710938 124.199219 C 26.710938 124.304688 26.710938 124.371094 26.746094 124.441406 C 26.847656 125.199219 26.957031 125.925781 27.128906 126.652344 C 27.265625 127.445312 27.433594 128.203125 27.640625 128.960938 C 27.847656 129.683594 28.058594 130.40625 28.300781 131.097656 C 28.957031 133.027344 29.746094 134.894531 30.710938 136.652344 C 30.953125 137.101562 31.199219 137.542969 31.472656 137.992188 C 32.4375 139.613281 33.539062 141.199219 34.78125 142.644531 C 35.160156 143.09375 35.539062 143.542969 35.953125 143.992188 C 36.332031 144.476562 36.785156 144.925781 37.230469 145.339844 C 37.679688 145.789062 38.121094 146.199219 38.605469 146.613281 C 38.640625 146.648438 38.644531 146.644531 38.644531 146.679688 L 38.746094 146.789062 C 40.503906 148.304688 42.402344 149.683594 44.4375 150.890625 C 44.507812 150.921875 44.539062 150.957031 44.574219 150.988281 C 49.640625 148.09375 56.46875 145.40625 64.332031 145.40625 L 66.054688 145.40625 C 65.539062 143.855469 65.023438 142.132812 64.539062 140.199219 C 62.230469 130.960938 58.539062 125.027344 58.507812 124.996094 C 57.160156 122.855469 57.089844 120.164062 58.296875 117.957031 C 59.503906 115.75 61.816406 114.375 64.332031 114.375 C 75.433594 114.375 82.089844 123.441406 87.917969 131.40625 C 94.503906 140.371094 100.710938 148.855469 112.605469 148.855469 C 124.503906 148.855469 130.710938 140.371094 137.296875 131.40625 C 143.121094 123.441406 149.777344 114.375 160.878906 114.375 C 163.398438 114.375 165.707031 115.75 166.914062 117.957031 C 168.121094 120.164062 168.050781 122.855469 166.707031 124.996094 C 166.671875 125.027344 162.980469 130.960938 160.671875 140.199219 C 160.1875 142.132812 159.671875 143.855469 159.15625 145.40625 L 160.878906 145.40625 C 168.742188 145.40625 175.570312 148.09375 180.640625 150.988281 C 180.675781 150.957031 180.707031 150.921875 180.773438 150.890625 C 189.878906 145.542969 196.191406 136.546875 198.15625 126.375 C 198.328125 125.683594 198.429688 124.996094 198.5 124.308594 C 198.605469 123.582031 198.675781 122.824219 198.710938 122.097656 C 198.777344 121.269531 198.808594 120.40625 198.808594 119.546875 C 198.808594 118.269531 198.738281 117.027344 198.636719 115.789062 C 198.566406 115.203125 198.503906 114.617188 198.433594 114.0625 C 195.742188 96.683594 180.707031 83.339844 162.605469 83.339844 C 154.226562 83.339844 146.261719 86.167969 139.8125 91.410156 C 142.988281 94.648438 145.570312 98.480469 147.429688 102.789062 C 148.191406 104.546875 147.398438 106.542969 145.640625 107.300781 C 143.882812 108.0625 141.84375 107.269531 141.121094 105.511719 C 136.191406 94.132812 124.984375 86.789062 112.605469 86.789062 C 98.984375 86.789062 87.089844 95.511719 83.019531 108.441406 C 82.539062 109.921875 81.195312 110.859375 79.714844 110.859375 C 79.367188 110.859375 79.023438 110.820312 78.675781 110.714844 C 76.882812 110.128906 75.847656 108.199219 76.433594 106.371094 C 81.433594 90.546875 95.984375 79.890625 112.605469 79.890625 C 120.640625 79.890625 128.257812 82.441406 134.535156 86.890625 C 142.328125 80.164062 152.191406 76.445312 162.605469 76.445312 C 162.8125 76.445312 163.015625 76.441406 163.222656 76.476562 C 158.464844 52.859375 137.640625 35.066406 112.605469 35.066406 Z M 64.332031 121.269531 C 64.332031 121.269531 68.574219 127.925781 71.226562 138.511719 C 74.609375 152.097656 78.023438 152.304688 84.710938 155.617188 C 83.195312 154.960938 76.402344 152.304688 64.332031 152.304688 C 60.261719 152.304688 56.503906 153.203125 53.226562 154.476562 C 49.984375 155.71875 47.230469 157.304688 45.089844 158.789062 C 43.847656 159.617188 42.8125 160.402344 42.019531 161.023438 C 41.261719 161.644531 40.714844 162.128906 40.4375 162.4375 C 40.367188 162.507812 40.296875 162.542969 40.261719 162.613281 C 40.433594 162.542969 40.78125 162.371094 41.332031 162.164062 C 41.472656 162.09375 41.644531 162.03125 41.851562 161.960938 C 42.644531 161.648438 43.679688 161.300781 44.957031 160.921875 C 45.992188 160.613281 47.160156 160.335938 48.503906 160.0625 C 49.679688 159.820312 50.953125 159.648438 52.332031 159.476562 C 52.847656 159.40625 53.402344 159.367188 53.953125 159.335938 C 55.058594 159.230469 56.230469 159.199219 57.4375 159.199219 C 71.226562 159.199219 78.125 172.992188 95.367188 172.992188 C 95.367188 182.507812 103.089844 190.234375 112.605469 190.234375 C 122.125 190.234375 129.847656 182.507812 129.847656 172.992188 C 147.085938 172.992188 153.984375 159.199219 167.777344 159.199219 C 168.984375 159.199219 170.15625 159.230469 171.257812 159.335938 C 171.808594 159.367188 172.363281 159.40625 172.882812 159.476562 C 174.261719 159.648438 175.535156 159.820312 176.707031 160.0625 C 178.050781 160.335938 179.222656 160.613281 180.257812 160.921875 C 181.53125 161.300781 182.566406 161.648438 183.359375 161.960938 C 183.566406 162.03125 183.742188 162.09375 183.878906 162.164062 C 184.429688 162.371094 184.777344 162.542969 184.949219 162.613281 L 184.808594 162.472656 C 184.707031 162.335938 184.539062 162.199219 184.332031 162.027344 C 184.226562 161.925781 184.117188 161.820312 183.980469 161.71875 C 183.601562 161.375 183.085938 160.960938 182.53125 160.511719 C 182.429688 160.445312 182.328125 160.339844 182.1875 160.238281 C 181.707031 159.890625 181.152344 159.476562 180.53125 159.066406 C 180.015625 158.683594 179.503906 158.339844 178.914062 157.992188 C 178.46875 157.683594 177.984375 157.375 177.46875 157.097656 C 177.296875 156.996094 177.089844 156.890625 176.882812 156.789062 C 176.332031 156.445312 175.746094 156.128906 175.125 155.851562 C 171.191406 153.886719 166.292969 152.304688 160.878906 152.304688 C 149.195312 152.304688 142.5625 154.761719 140.769531 155.515625 C 141.019531 155.40625 141.109375 155.351562 141.734375 155.125 C 141.695312 155.105469 141.65625 155.089844 141.621094 155.070312 C 147.515625 152.273438 150.816406 151.242188 153.984375 138.511719 C 156.640625 127.925781 160.878906 121.269531 160.878906 121.269531 C 143.640625 121.269531 140.191406 155.75 112.605469 155.75 C 85.019531 155.75 81.574219 121.269531 64.332031 121.269531 Z M 64.332031 121.269531 " fill-opacity="1" fill-rule="nonzero"/></g></svg>