<svg xmlns="http://www.w3.org/2000/svg" xmlns:xlink="http://www.w3.org/1999/xlink" width="300" zoomAndPan="magnify" viewBox="0 0 224.87999 225" height="300" preserveAspectRatio="xMidYMid meet" version="1.0"><defs><clipPath id="id1"><path d="M 9.664062 9.722656 L 215.054688 9.722656 L 215.054688 215.113281 L 9.664062 215.113281 Z M 9.664062 9.722656 " clip-rule="nonzero"/></clipPath><clipPath id="id2"><path d="M 14.820312 15.0625 L 208.21875 15.0625 L 208.21875 208.460938 L 14.820312 208.460938 Z M 14.820312 15.0625 " clip-rule="nonzero"/></clipPath><clipPath id="id3"><path d="M 27.59375 26.953125 L 197.003906 26.953125 L 197.003906 196.363281 L 27.59375 196.363281 Z M 27.59375 26.953125 " clip-rule="nonzero"/></clipPath><clipPath id="id4"><path d="M 144 67 L 185.582031 67 L 185.582031 143 L 144 143 Z M 144 67 " clip-rule="nonzero"/></clipPath><clipPath id="id5"><path d="M 39.410156 59 L 89 59 L 89 149 L 39.410156 149 Z M 39.410156 59 " clip-rule="nonzero"/></clipPath></defs><g clip-path="url(#id1)"><path fill="#bddba9" d="M 112.359375 9.722656 C 55.640625 9.722656 9.664062 55.703125 9.664062 112.417969 C 9.664062 169.136719 55.640625 215.113281 112.359375 215.113281 C 169.074219 215.113281 215.054688 169.136719 215.054688 112.417969 C 215.054688 55.703125 169.074219 9.722656 112.359375 9.722656 " fill-opacity="1" fill-rule="nonzero"/></g><g clip-path="url(#id2)"><path fill="#46835c" d="M 103.679688 19.347656 L 103.359375 15.523438 C 108.632812 15.082031 114.042969 15.070312 119.320312 15.492188 L 119.011719 19.320312 C 113.945312 18.914062 108.746094 18.925781 103.679688 19.347656 Z M 148.65625 26.757812 C 143.976562 24.710938 139.09375 23.042969 134.140625 21.800781 L 135.070312 18.078125 C 140.230469 19.371094 145.316406 21.109375 150.191406 23.242188 Z M 74.070312 26.890625 L 72.523438 23.378906 C 77.390625 21.226562 82.46875 19.472656 87.617188 18.164062 L 88.558594 21.882812 C 83.617188 23.140625 78.742188 24.824219 74.070312 26.890625 Z M 174.265625 43.46875 C 170.5 40.007812 166.425781 36.839844 162.152344 34.050781 L 164.246094 30.835938 C 168.695312 33.742188 172.9375 37.039062 176.855469 40.640625 Z M 48.53125 43.679688 L 45.929688 40.859375 C 49.835938 37.246094 54.066406 33.933594 58.503906 31.015625 L 60.609375 34.222656 C 56.347656 37.027344 52.28125 40.207031 48.53125 43.679688 Z M 193.097656 67.566406 C 190.65625 63.085938 187.824219 58.769531 184.675781 54.742188 L 187.695312 52.375 C 190.972656 56.570312 193.921875 61.0625 196.460938 65.730469 Z M 29.777344 67.847656 L 26.40625 66.019531 C 28.929688 61.34375 31.863281 56.839844 35.132812 52.632812 L 38.15625 54.988281 C 35.019531 59.027344 32.203125 63.355469 29.777344 67.847656 Z M 203.074219 96.46875 C 202.226562 91.429688 200.953125 86.425781 199.289062 81.597656 L 202.910156 80.34375 C 204.648438 85.371094 205.972656 90.582031 206.855469 95.832031 Z M 19.894531 96.796875 L 16.113281 96.175781 C 16.976562 90.921875 18.285156 85.703125 20 80.671875 L 23.628906 81.914062 C 21.980469 86.742188 20.722656 91.753906 19.894531 96.796875 Z M 206.890625 127.917969 L 203.109375 127.289062 C 203.941406 122.269531 204.359375 117.121094 204.359375 111.988281 L 204.359375 111.761719 L 208.195312 111.761719 L 208.195312 111.980469 C 208.195312 117.332031 207.757812 122.6875 206.890625 127.917969 Z M 16.152344 128.03125 C 15.28125 122.804688 14.835938 117.445312 14.828125 112.105469 L 18.660156 112.101562 C 18.667969 117.234375 19.09375 122.378906 19.929688 127.398438 Z M 196.566406 158.058594 L 193.195312 156.230469 C 195.628906 151.730469 197.703125 147 199.359375 142.171875 L 202.984375 143.414062 C 201.261719 148.449219 199.101562 153.375 196.566406 158.058594 Z M 26.507812 158.148438 C 23.96875 153.46875 21.804688 148.550781 20.078125 143.527344 L 23.699219 142.277344 C 25.359375 147.101562 27.4375 151.824219 29.875 156.316406 Z M 177.007812 183.199219 L 174.410156 180.375 C 178.167969 176.910156 181.660156 173.109375 184.796875 169.078125 L 187.820312 171.4375 C 184.554688 175.632812 180.917969 179.589844 177.007812 183.199219 Z M 46.082031 183.261719 C 42.167969 179.65625 38.527344 175.703125 35.257812 171.511719 L 38.28125 169.148438 C 41.421875 173.175781 44.917969 176.972656 48.675781 180.433594 Z M 150.394531 200.648438 L 148.851562 197.132812 C 153.515625 195.082031 158.046875 192.617188 162.320312 189.816406 L 164.421875 193.027344 C 159.96875 195.945312 155.25 198.507812 150.394531 200.648438 Z M 72.726562 200.691406 C 67.859375 198.554688 63.136719 195.992188 58.683594 193.078125 L 60.78125 189.863281 C 65.058594 192.664062 69.59375 195.125 74.265625 197.175781 Z M 119.550781 208.464844 L 119.234375 204.640625 C 124.332031 204.21875 129.421875 203.375 134.355469 202.121094 L 135.296875 205.84375 C 130.15625 207.144531 124.855469 208.027344 119.550781 208.464844 Z M 103.589844 208.476562 C 98.28125 208.042969 92.980469 207.167969 87.839844 205.871094 L 88.777344 202.148438 C 93.710938 203.394531 98.800781 204.234375 103.898438 204.648438 L 103.589844 208.476562 " fill-opacity="1" fill-rule="nonzero"/></g><g clip-path="url(#id3)"><path fill="#00a78e" d="M 112.300781 26.953125 C 65.519531 26.953125 27.59375 64.878906 27.59375 111.660156 C 27.59375 158.441406 65.519531 196.363281 112.300781 196.363281 C 159.082031 196.363281 197.003906 158.441406 197.003906 111.660156 C 197.003906 64.878906 159.082031 26.953125 112.300781 26.953125 " fill-opacity="1" fill-rule="nonzero"/></g><path fill="#ffffff" d="M 171.183594 107.746094 C 171.183594 107.746094 164.128906 137.164062 137.710938 141.554688 C 137.710938 141.554688 169.613281 144.828125 171.183594 107.746094 " fill-opacity="1" fill-rule="nonzero"/><path fill="#ffffff" d="M 82.945312 97.804688 C 82.945312 97.804688 83.242188 128.054688 108.011719 138.214844 C 108.011719 138.214844 76.179688 134.304688 82.945312 97.804688 " fill-opacity="1" fill-rule="nonzero"/><path fill="#ffffff" d="M 73.339844 76.75 C 73.339844 76.75 51.164062 90.71875 57.035156 121.398438 C 57.035156 121.398438 41.148438 88.308594 73.339844 76.75 " fill-opacity="1" fill-rule="nonzero"/><g clip-path="url(#id4)"><path fill="#ffffff" d="M 147.613281 67.265625 C 146.394531 67.265625 145.1875 67.328125 144 67.4375 C 163.214844 69.257812 178.25 85.398438 178.25 105.050781 C 178.25 124.699219 163.214844 140.84375 144 142.660156 C 145.1875 142.773438 146.394531 142.832031 147.613281 142.832031 C 168.527344 142.832031 185.480469 125.917969 185.480469 105.050781 C 185.480469 84.183594 168.527344 67.265625 147.613281 67.265625 " fill-opacity="1" fill-rule="nonzero"/></g><g clip-path="url(#id5)"><path fill="#ffffff" d="M 84.140625 59.054688 C 85.582031 59.054688 87 59.128906 88.40625 59.257812 C 65.753906 61.402344 48.03125 80.429688 48.03125 103.589844 C 48.03125 126.75 65.753906 145.78125 88.40625 147.921875 C 87 148.050781 85.582031 148.125 84.140625 148.125 C 59.492188 148.125 39.507812 128.183594 39.507812 103.589844 C 39.507812 78.996094 59.492188 59.054688 84.140625 59.054688 " fill-opacity="1" fill-rule="nonzero"/></g><path fill="#ffffff" d="M 89.15625 51.457031 C 88.867188 52.257812 88.617188 53.0625 88.40625 53.871094 C 94.210938 41.703125 108.449219 35.710938 121.394531 40.421875 C 134.339844 45.132812 141.375 58.863281 137.964844 71.902344 C 138.324219 71.148438 138.652344 70.375 138.945312 69.570312 C 143.957031 55.855469 136.878906 40.679688 123.128906 35.679688 C 109.378906 30.675781 94.171875 37.738281 89.15625 51.457031 " fill-opacity="1" fill-rule="nonzero"/><path fill="#ffffff" d="M 88.71875 65.902344 C 87.785156 66.320312 86.878906 66.785156 86.003906 67.28125 C 101.367188 62.058594 118.472656 69.265625 125.265625 84.328125 C 132.054688 99.394531 126.109375 116.945312 112.003906 124.949219 C 112.957031 124.625 113.902344 124.257812 114.835938 123.839844 C 130.871094 116.640625 138.023438 97.839844 130.808594 81.839844 C 123.597656 65.84375 104.753906 58.707031 88.71875 65.902344 " fill-opacity="1" fill-rule="nonzero"/><path fill="#ffffff" d="M 65.179688 104.808594 C 65.179688 103.375 65.25 101.957031 65.382812 100.558594 C 67.527344 123.15625 86.601562 140.835938 109.8125 140.835938 C 133.027344 140.835938 152.097656 123.15625 154.242188 100.558594 C 154.375 101.957031 154.445312 103.375 154.445312 104.808594 C 154.445312 129.40625 134.464844 149.34375 109.8125 149.34375 C 85.164062 149.34375 65.179688 129.40625 65.179688 104.808594 " fill-opacity="1" fill-rule="nonzero"/><path fill="#545454" d="M 144.769531 132.5 C 137.484375 141.019531 130.363281 134.46875 120.789062 143.773438 C 132.976562 132.296875 134.53125 110.839844 134.53125 110.839844 C 128.597656 127.515625 116.71875 125.117188 108.734375 141.019531 C 101.398438 137.183594 85.589844 142.074219 78.230469 127.992188 C 82.238281 148.125 106.011719 150.429688 106.011719 150.429688 C 103.28125 176.136719 107.183594 189.234375 109.109375 192.652344 C 109.679688 193.667969 110.925781 194.089844 112.003906 193.636719 C 113.402344 193.054688 113.859375 191.308594 112.9375 190.109375 C 105.039062 179.886719 110.859375 150.828125 110.859375 150.828125 C 133.652344 150.28125 144.769531 132.5 144.769531 132.5 " fill-opacity="1" fill-rule="nonzero"/></svg>