<svg xmlns="http://www.w3.org/2000/svg" xmlns:xlink="http://www.w3.org/1999/xlink" width="1920" height="1080" viewBox="0 0 1920 1080">
  <defs>
    <clipPath id="clip-Web_1920_3">
      <rect width="1920" height="1080"/>
    </clipPath>
  </defs>
  <g id="Web_1920_3" data-name="Web 1920 – 3" clip-path="url(#clip-Web_1920_3)">
    <rect width="1920" height="1080" fill="#fff"/>
    <path id="Path_1539" data-name="Path 1539" d="M2539.14,393.833c-14.025,33.626-35.829,59.283-55.256,78.822-9.2,9.255-29.356,18.578-40.739,25.7-28.32,17.72-55.427,27.662-115.445,38.679-85.4,15.673-174.49,25.05-262.062,17.147s-173.887-34.533-231.476-81.525c-50.752-41.418-76.464-95.7-127.458-136.982-71.437-57.9-185.629-83.159-294.671-81.658s-214.5,26.764-315.38,55.885c-58.278,16.826-118.158,35.392-181.165,34.079C841,342.424,773.3,313.115,716.894,278.9c-56.409-34.184-105.839-74.237-166.786-104.35-166.671-82.409-413.4-72.711-566,22.209V-8H2539.14Z" transform="translate(1904.11 1071.685) rotate(180)" fill="#35d4c1" opacity="0.3"/>
    <path id="Path_1539-2" data-name="Path 1539" d="M2554.277,472.68c-14.108,40.224-36.041,70.916-55.583,94.289-9.256,11.071-29.53,22.224-40.98,30.742-28.487,21.2-55.756,33.09-116.129,46.268-56.785,12.393-131.721,12.533-201.648,8.462-35.552-2.07-69.937-5.257-99.8-8.462-88.092-9.455-137.084-20.8-195.014-77.011-51.053-49.545-76.917-114.474-128.213-163.86-71.861-69.255-186.729-99.476-296.417-97.681s-215.77,32.015-317.248,66.851c-58.623,20.127-118.858,42.336-182.238,40.766-74.928-1.86-143.028-36.92-199.771-77.845-56.744-40.892-106.466-88.8-167.775-124.825C385.8,111.794,137.613,123.4-15.89,236.941V-8H2554.277Z" transform="translate(1924.246 1072) rotate(180)" fill="#35d4c1" opacity="0.3"/>
  </g>
</svg>
