<svg xmlns="http://www.w3.org/2000/svg" xmlns:xlink="http://www.w3.org/1999/xlink" width="1920" zoomAndPan="magnify" viewBox="0 0 1440 809.999993" height="1080" preserveAspectRatio="xMidYMid meet" version="1.0"><defs><filter x="0%" y="0%" width="100%" height="100%" id="id1"><feColorMatrix values="0 0 0 0 1 0 0 0 0 1 0 0 0 0 1 0 0 0 1 0" color-interpolation-filters="sRGB"/></filter><mask id="id2"><g filter="url(#id1)"><rect x="-144" width="1728" fill="#000000" y="-80.999999" height="971.999992" fill-opacity="0.3176"/></g></mask><clipPath id="id3"><path d="M 120 156 L 1298 156 L 1298 640 L 120 640 Z M 120 156 " clip-rule="nonzero"/></clipPath><clipPath id="id4"><path d="M 1164.582031 1009.117188 L 55.652344 680.832031 L 265.785156 -28.96875 L 1374.710938 299.320312 Z M 1164.582031 1009.117188 " clip-rule="nonzero"/></clipPath><clipPath id="id5"><path d="M 1403.746094 1600.121094 L -85.613281 1159.210938 L 266.09375 -28.820312 L 1755.449219 412.089844 Z M 1403.746094 1600.121094 " clip-rule="nonzero"/></clipPath><clipPath id="id6"><rect x="0" width="1298" y="0" height="640"/></clipPath><clipPath id="id7"><path d="M 197.777344 403.175781 L 205 403.175781 L 205 410 L 197.777344 410 Z M 197.777344 403.175781 " clip-rule="nonzero"/></clipPath><clipPath id="id8"><path d="M 217 403.175781 L 224 403.175781 L 224 410 L 217 410 Z M 217 403.175781 " clip-rule="nonzero"/></clipPath><clipPath id="id9"><path d="M 236 403.175781 L 243 403.175781 L 243 410 L 236 410 Z M 236 403.175781 " clip-rule="nonzero"/></clipPath><clipPath id="id10"><path d="M 255 403.175781 L 263 403.175781 L 263 410 L 255 410 Z M 255 403.175781 " clip-rule="nonzero"/></clipPath><clipPath id="id11"><path d="M 274 403.175781 L 282 403.175781 L 282 410 L 274 410 Z M 274 403.175781 " clip-rule="nonzero"/></clipPath><clipPath id="id12"><path d="M 293 403.175781 L 301 403.175781 L 301 410 L 293 410 Z M 293 403.175781 " clip-rule="nonzero"/></clipPath><clipPath id="id13"><path d="M 313 403.175781 L 320 403.175781 L 320 410 L 313 410 Z M 313 403.175781 " clip-rule="nonzero"/></clipPath><clipPath id="id14"><path d="M 197.777344 422 L 205 422 L 205 430 L 197.777344 430 Z M 197.777344 422 " clip-rule="nonzero"/></clipPath><clipPath id="id15"><path d="M 197.777344 441 L 205 441 L 205 449 L 197.777344 449 Z M 197.777344 441 " clip-rule="nonzero"/></clipPath><clipPath id="id16"><path d="M 197.777344 460 L 205 460 L 205 468 L 197.777344 468 Z M 197.777344 460 " clip-rule="nonzero"/></clipPath><clipPath id="id17"><path d="M 197.777344 480 L 205 480 L 205 487 L 197.777344 487 Z M 197.777344 480 " clip-rule="nonzero"/></clipPath><clipPath id="id18"><path d="M 197.777344 499 L 205 499 L 205 507 L 197.777344 507 Z M 197.777344 499 " clip-rule="nonzero"/></clipPath><clipPath id="id19"><path d="M 197.777344 518 L 205 518 L 205 525.425781 L 197.777344 525.425781 Z M 197.777344 518 " clip-rule="nonzero"/></clipPath><clipPath id="id20"><path d="M 217 518 L 224 518 L 224 525.425781 L 217 525.425781 Z M 217 518 " clip-rule="nonzero"/></clipPath><clipPath id="id21"><path d="M 236 518 L 243 518 L 243 525.425781 L 236 525.425781 Z M 236 518 " clip-rule="nonzero"/></clipPath><clipPath id="id22"><path d="M 255 518 L 263 518 L 263 525.425781 L 255 525.425781 Z M 255 518 " clip-rule="nonzero"/></clipPath><clipPath id="id23"><path d="M 274 518 L 282 518 L 282 525.425781 L 274 525.425781 Z M 274 518 " clip-rule="nonzero"/></clipPath><clipPath id="id24"><path d="M 293 518 L 301 518 L 301 525.425781 L 293 525.425781 Z M 293 518 " clip-rule="nonzero"/></clipPath><clipPath id="id25"><path d="M 313 518 L 320 518 L 320 525.425781 L 313 525.425781 Z M 313 518 " clip-rule="nonzero"/></clipPath><clipPath id="id26"><path d="M 332 403.175781 L 340 403.175781 L 340 410 L 332 410 Z M 332 403.175781 " clip-rule="nonzero"/></clipPath><clipPath id="id27"><path d="M 351 403.175781 L 359 403.175781 L 359 410 L 351 410 Z M 351 403.175781 " clip-rule="nonzero"/></clipPath><clipPath id="id28"><path d="M 370 403.175781 L 378 403.175781 L 378 410 L 370 410 Z M 370 403.175781 " clip-rule="nonzero"/></clipPath><clipPath id="id29"><path d="M 389 403.175781 L 397 403.175781 L 397 410 L 389 410 Z M 389 403.175781 " clip-rule="nonzero"/></clipPath><clipPath id="id30"><path d="M 409 403.175781 L 416 403.175781 L 416 410 L 409 410 Z M 409 403.175781 " clip-rule="nonzero"/></clipPath><clipPath id="id31"><path d="M 428 403.175781 L 436 403.175781 L 436 410 L 428 410 Z M 428 403.175781 " clip-rule="nonzero"/></clipPath><clipPath id="id32"><path d="M 447 403.175781 L 454.277344 403.175781 L 454.277344 410 L 447 410 Z M 447 403.175781 " clip-rule="nonzero"/></clipPath><clipPath id="id33"><path d="M 447 422 L 454.277344 422 L 454.277344 430 L 447 430 Z M 447 422 " clip-rule="nonzero"/></clipPath><clipPath id="id34"><path d="M 447 441 L 454.277344 441 L 454.277344 449 L 447 449 Z M 447 441 " clip-rule="nonzero"/></clipPath><clipPath id="id35"><path d="M 447 460 L 454.277344 460 L 454.277344 468 L 447 468 Z M 447 460 " clip-rule="nonzero"/></clipPath><clipPath id="id36"><path d="M 447 480 L 454.277344 480 L 454.277344 487 L 447 487 Z M 447 480 " clip-rule="nonzero"/></clipPath><clipPath id="id37"><path d="M 447 499 L 454.277344 499 L 454.277344 507 L 447 507 Z M 447 499 " clip-rule="nonzero"/></clipPath><clipPath id="id38"><path d="M 332 518 L 340 518 L 340 525.425781 L 332 525.425781 Z M 332 518 " clip-rule="nonzero"/></clipPath><clipPath id="id39"><path d="M 351 518 L 359 518 L 359 525.425781 L 351 525.425781 Z M 351 518 " clip-rule="nonzero"/></clipPath><clipPath id="id40"><path d="M 370 518 L 378 518 L 378 525.425781 L 370 525.425781 Z M 370 518 " clip-rule="nonzero"/></clipPath><clipPath id="id41"><path d="M 389 518 L 397 518 L 397 525.425781 L 389 525.425781 Z M 389 518 " clip-rule="nonzero"/></clipPath><clipPath id="id42"><path d="M 409 518 L 416 518 L 416 525.425781 L 409 525.425781 Z M 409 518 " clip-rule="nonzero"/></clipPath><clipPath id="id43"><path d="M 428 518 L 436 518 L 436 525.425781 L 428 525.425781 Z M 428 518 " clip-rule="nonzero"/></clipPath><clipPath id="id44"><path d="M 447 518 L 454.277344 518 L 454.277344 525.425781 L 447 525.425781 Z M 447 518 " clip-rule="nonzero"/></clipPath><clipPath id="id45"><path d="M 1235.644531 314 L 1315.894531 314 L 1315.894531 445.054688 L 1235.644531 445.054688 Z M 1235.644531 314 " clip-rule="nonzero"/></clipPath></defs><g mask="url(#id2)"><g transform="matrix(1, 0, 0, 1, 142, 170)"><g clip-path="url(#id6)"><g clip-path="url(#id3)"><g clip-path="url(#id4)"><g clip-path="url(#id5)"><path fill="#00a78e" d="M 1091 1379.066406 C 1360.695312 1486.46875 1528.15625 1179.945312 1328.742188 1028.515625 C 1206.84375 927.28125 1088.199219 844.851562 1237.972656 649.90625 C 1387.746094 454.957031 1276.707031 270.496094 1121.851562 234.046875 C 966.996094 197.601562 893.332031 343.386719 752.003906 225.722656 C 645.199219 136.800781 431.527344 130.847656 312.828125 225.074219 C 153.53125 351.515625 252.421875 546.6875 297.707031 688.820312 C 342.996094 830.957031 134.246094 852.792969 120.792969 991.316406 C 107.339844 1129.84375 268.617188 1263.957031 491.867188 1229.261719 C 675.019531 1200.796875 865.738281 1289.359375 1091 1379.066406 Z M 1091 1379.066406 " fill-opacity="1" fill-rule="nonzero"/></g></g></g></g></g></g><g clip-path="url(#id7)"><path fill="#2a9f5d" d="M 201.210938 403.175781 C 199.351562 403.175781 197.839844 404.695312 197.839844 406.5625 C 197.839844 408.429688 199.351562 409.945312 201.210938 409.945312 C 203.070312 409.945312 204.585938 408.429688 204.585938 406.5625 C 204.585938 404.695312 203.070312 403.175781 201.210938 403.175781 " fill-opacity="1" fill-rule="nonzero"/></g><g clip-path="url(#id8)"><path fill="#2a9f5d" d="M 220.417969 403.175781 C 218.554688 403.175781 217.042969 404.695312 217.042969 406.5625 C 217.042969 408.429688 218.554688 409.945312 220.417969 409.945312 C 222.277344 409.945312 223.789062 408.429688 223.789062 406.5625 C 223.789062 404.695312 222.277344 403.175781 220.417969 403.175781 " fill-opacity="1" fill-rule="nonzero"/></g><g clip-path="url(#id9)"><path fill="#2a9f5d" d="M 239.621094 403.175781 C 237.761719 403.175781 236.25 404.695312 236.25 406.5625 C 236.25 408.429688 237.761719 409.945312 239.621094 409.945312 C 241.480469 409.945312 242.996094 408.429688 242.996094 406.5625 C 242.996094 404.695312 241.480469 403.175781 239.621094 403.175781 " fill-opacity="1" fill-rule="nonzero"/></g><g clip-path="url(#id10)"><path fill="#2a9f5d" d="M 258.828125 403.175781 C 256.96875 403.175781 255.453125 404.695312 255.453125 406.5625 C 255.453125 408.429688 256.96875 409.945312 258.828125 409.945312 C 260.6875 409.945312 262.199219 408.429688 262.199219 406.5625 C 262.199219 404.695312 260.6875 403.175781 258.828125 403.175781 " fill-opacity="1" fill-rule="nonzero"/></g><g clip-path="url(#id11)"><path fill="#2a9f5d" d="M 278.03125 403.175781 C 276.171875 403.175781 274.660156 404.695312 274.660156 406.5625 C 274.660156 408.429688 276.171875 409.945312 278.03125 409.945312 C 279.894531 409.945312 281.40625 408.429688 281.40625 406.5625 C 281.40625 404.695312 279.894531 403.175781 278.03125 403.175781 " fill-opacity="1" fill-rule="nonzero"/></g><g clip-path="url(#id12)"><path fill="#2a9f5d" d="M 297.238281 403.175781 C 295.378906 403.175781 293.863281 404.695312 293.863281 406.5625 C 293.863281 408.429688 295.378906 409.945312 297.238281 409.945312 C 299.097656 409.945312 300.613281 408.429688 300.613281 406.5625 C 300.613281 404.695312 299.097656 403.175781 297.238281 403.175781 " fill-opacity="1" fill-rule="nonzero"/></g><g clip-path="url(#id13)"><path fill="#2a9f5d" d="M 316.445312 403.175781 C 314.582031 403.175781 313.070312 404.695312 313.070312 406.5625 C 313.070312 408.429688 314.582031 409.945312 316.445312 409.945312 C 318.304688 409.945312 319.816406 408.429688 319.816406 406.5625 C 319.816406 404.695312 318.304688 403.175781 316.445312 403.175781 " fill-opacity="1" fill-rule="nonzero"/></g><g clip-path="url(#id14)"><path fill="#2a9f5d" d="M 201.210938 422.441406 C 199.351562 422.441406 197.839844 423.960938 197.839844 425.828125 C 197.839844 427.691406 199.351562 429.210938 201.210938 429.210938 C 203.070312 429.210938 204.585938 427.691406 204.585938 425.828125 C 204.585938 423.960938 203.070312 422.441406 201.210938 422.441406 " fill-opacity="1" fill-rule="nonzero"/></g><path fill="#2a9f5d" d="M 220.417969 422.441406 C 218.554688 422.441406 217.042969 423.960938 217.042969 425.828125 C 217.042969 427.691406 218.554688 429.210938 220.417969 429.210938 C 222.277344 429.210938 223.789062 427.691406 223.789062 425.828125 C 223.789062 423.960938 222.277344 422.441406 220.417969 422.441406 " fill-opacity="1" fill-rule="nonzero"/><path fill="#2a9f5d" d="M 239.621094 422.441406 C 237.761719 422.441406 236.25 423.960938 236.25 425.828125 C 236.25 427.691406 237.761719 429.210938 239.621094 429.210938 C 241.480469 429.210938 242.996094 427.691406 242.996094 425.828125 C 242.996094 423.960938 241.480469 422.441406 239.621094 422.441406 " fill-opacity="1" fill-rule="nonzero"/><path fill="#2a9f5d" d="M 258.828125 422.441406 C 256.96875 422.441406 255.453125 423.960938 255.453125 425.828125 C 255.453125 427.691406 256.96875 429.210938 258.828125 429.210938 C 260.6875 429.210938 262.199219 427.691406 262.199219 425.828125 C 262.199219 423.960938 260.6875 422.441406 258.828125 422.441406 " fill-opacity="1" fill-rule="nonzero"/><path fill="#2a9f5d" d="M 278.03125 422.441406 C 276.171875 422.441406 274.660156 423.960938 274.660156 425.828125 C 274.660156 427.691406 276.171875 429.210938 278.03125 429.210938 C 279.894531 429.210938 281.40625 427.691406 281.40625 425.828125 C 281.40625 423.960938 279.894531 422.441406 278.03125 422.441406 " fill-opacity="1" fill-rule="nonzero"/><path fill="#2a9f5d" d="M 297.238281 422.441406 C 295.378906 422.441406 293.863281 423.960938 293.863281 425.828125 C 293.863281 427.691406 295.378906 429.210938 297.238281 429.210938 C 299.097656 429.210938 300.613281 427.691406 300.613281 425.828125 C 300.613281 423.960938 299.097656 422.441406 297.238281 422.441406 " fill-opacity="1" fill-rule="nonzero"/><path fill="#2a9f5d" d="M 316.445312 422.441406 C 314.582031 422.441406 313.070312 423.960938 313.070312 425.828125 C 313.070312 427.691406 314.582031 429.210938 316.445312 429.210938 C 318.304688 429.210938 319.816406 427.691406 319.816406 425.828125 C 319.816406 423.960938 318.304688 422.441406 316.445312 422.441406 " fill-opacity="1" fill-rule="nonzero"/><g clip-path="url(#id15)"><path fill="#2a9f5d" d="M 201.210938 441.589844 C 199.351562 441.589844 197.839844 443.105469 197.839844 444.972656 C 197.839844 446.839844 199.351562 448.355469 201.210938 448.355469 C 203.070312 448.355469 204.585938 446.839844 204.585938 444.972656 C 204.585938 443.105469 203.070312 441.589844 201.210938 441.589844 " fill-opacity="1" fill-rule="nonzero"/></g><path fill="#2a9f5d" d="M 220.417969 441.589844 C 218.554688 441.589844 217.042969 443.105469 217.042969 444.972656 C 217.042969 446.839844 218.554688 448.355469 220.417969 448.355469 C 222.277344 448.355469 223.789062 446.839844 223.789062 444.972656 C 223.789062 443.105469 222.277344 441.589844 220.417969 441.589844 " fill-opacity="1" fill-rule="nonzero"/><path fill="#2a9f5d" d="M 239.621094 441.589844 C 237.761719 441.589844 236.25 443.105469 236.25 444.972656 C 236.25 446.839844 237.761719 448.355469 239.621094 448.355469 C 241.480469 448.355469 242.996094 446.839844 242.996094 444.972656 C 242.996094 443.105469 241.480469 441.589844 239.621094 441.589844 " fill-opacity="1" fill-rule="nonzero"/><path fill="#2a9f5d" d="M 258.828125 441.589844 C 256.96875 441.589844 255.453125 443.105469 255.453125 444.972656 C 255.453125 446.839844 256.96875 448.355469 258.828125 448.355469 C 260.6875 448.355469 262.199219 446.839844 262.199219 444.972656 C 262.199219 443.105469 260.6875 441.589844 258.828125 441.589844 " fill-opacity="1" fill-rule="nonzero"/><path fill="#2a9f5d" d="M 278.03125 441.589844 C 276.171875 441.589844 274.660156 443.105469 274.660156 444.972656 C 274.660156 446.839844 276.171875 448.355469 278.03125 448.355469 C 279.894531 448.355469 281.40625 446.839844 281.40625 444.972656 C 281.40625 443.105469 279.894531 441.589844 278.03125 441.589844 " fill-opacity="1" fill-rule="nonzero"/><path fill="#2a9f5d" d="M 297.238281 441.589844 C 295.378906 441.589844 293.863281 443.105469 293.863281 444.972656 C 293.863281 446.839844 295.378906 448.355469 297.238281 448.355469 C 299.097656 448.355469 300.613281 446.839844 300.613281 444.972656 C 300.613281 443.105469 299.097656 441.589844 297.238281 441.589844 " fill-opacity="1" fill-rule="nonzero"/><path fill="#2a9f5d" d="M 316.445312 441.589844 C 314.582031 441.589844 313.070312 443.105469 313.070312 444.972656 C 313.070312 446.839844 314.582031 448.355469 316.445312 448.355469 C 318.304688 448.355469 319.816406 446.839844 319.816406 444.972656 C 319.816406 443.105469 318.304688 441.589844 316.445312 441.589844 " fill-opacity="1" fill-rule="nonzero"/><g clip-path="url(#id16)"><path fill="#2a9f5d" d="M 201.210938 460.855469 C 199.351562 460.855469 197.839844 462.375 197.839844 464.242188 C 197.839844 466.109375 199.351562 467.628906 201.210938 467.628906 C 203.070312 467.628906 204.585938 466.109375 204.585938 464.242188 C 204.585938 462.375 203.070312 460.855469 201.210938 460.855469 " fill-opacity="1" fill-rule="nonzero"/></g><path fill="#2a9f5d" d="M 220.417969 460.855469 C 218.554688 460.855469 217.042969 462.375 217.042969 464.242188 C 217.042969 466.109375 218.554688 467.628906 220.417969 467.628906 C 222.277344 467.628906 223.789062 466.109375 223.789062 464.242188 C 223.789062 462.375 222.277344 460.855469 220.417969 460.855469 " fill-opacity="1" fill-rule="nonzero"/><path fill="#2a9f5d" d="M 239.621094 460.855469 C 237.761719 460.855469 236.25 462.375 236.25 464.242188 C 236.25 466.109375 237.761719 467.628906 239.621094 467.628906 C 241.480469 467.628906 242.996094 466.109375 242.996094 464.242188 C 242.996094 462.375 241.480469 460.855469 239.621094 460.855469 " fill-opacity="1" fill-rule="nonzero"/><path fill="#2a9f5d" d="M 258.828125 460.855469 C 256.96875 460.855469 255.453125 462.375 255.453125 464.242188 C 255.453125 466.109375 256.96875 467.628906 258.828125 467.628906 C 260.6875 467.628906 262.199219 466.109375 262.199219 464.242188 C 262.199219 462.375 260.6875 460.855469 258.828125 460.855469 " fill-opacity="1" fill-rule="nonzero"/><path fill="#2a9f5d" d="M 278.03125 460.855469 C 276.171875 460.855469 274.660156 462.375 274.660156 464.242188 C 274.660156 466.109375 276.171875 467.628906 278.03125 467.628906 C 279.894531 467.628906 281.40625 466.109375 281.40625 464.242188 C 281.40625 462.375 279.894531 460.855469 278.03125 460.855469 " fill-opacity="1" fill-rule="nonzero"/><path fill="#2a9f5d" d="M 297.238281 460.855469 C 295.378906 460.855469 293.863281 462.375 293.863281 464.242188 C 293.863281 466.109375 295.378906 467.628906 297.238281 467.628906 C 299.097656 467.628906 300.613281 466.109375 300.613281 464.242188 C 300.613281 462.375 299.097656 460.855469 297.238281 460.855469 " fill-opacity="1" fill-rule="nonzero"/><path fill="#2a9f5d" d="M 316.445312 460.855469 C 314.582031 460.855469 313.070312 462.375 313.070312 464.242188 C 313.070312 466.109375 314.582031 467.628906 316.445312 467.628906 C 318.304688 467.628906 319.816406 466.109375 319.816406 464.242188 C 319.816406 462.375 318.304688 460.855469 316.445312 460.855469 " fill-opacity="1" fill-rule="nonzero"/><g clip-path="url(#id17)"><path fill="#2a9f5d" d="M 201.210938 480.121094 C 199.351562 480.121094 197.839844 481.640625 197.839844 483.507812 C 197.839844 485.375 199.351562 486.890625 201.210938 486.890625 C 203.070312 486.890625 204.585938 485.375 204.585938 483.507812 C 204.585938 481.640625 203.070312 480.121094 201.210938 480.121094 " fill-opacity="1" fill-rule="nonzero"/></g><path fill="#2a9f5d" d="M 220.417969 480.121094 C 218.554688 480.121094 217.042969 481.640625 217.042969 483.507812 C 217.042969 485.375 218.554688 486.890625 220.417969 486.890625 C 222.277344 486.890625 223.789062 485.375 223.789062 483.507812 C 223.789062 481.640625 222.277344 480.121094 220.417969 480.121094 " fill-opacity="1" fill-rule="nonzero"/><path fill="#2a9f5d" d="M 239.621094 480.121094 C 237.761719 480.121094 236.25 481.640625 236.25 483.507812 C 236.25 485.375 237.761719 486.890625 239.621094 486.890625 C 241.480469 486.890625 242.996094 485.375 242.996094 483.507812 C 242.996094 481.640625 241.480469 480.121094 239.621094 480.121094 " fill-opacity="1" fill-rule="nonzero"/><path fill="#2a9f5d" d="M 258.828125 480.121094 C 256.96875 480.121094 255.453125 481.640625 255.453125 483.507812 C 255.453125 485.375 256.96875 486.890625 258.828125 486.890625 C 260.6875 486.890625 262.199219 485.375 262.199219 483.507812 C 262.199219 481.640625 260.6875 480.121094 258.828125 480.121094 " fill-opacity="1" fill-rule="nonzero"/><path fill="#2a9f5d" d="M 278.03125 480.121094 C 276.171875 480.121094 274.660156 481.640625 274.660156 483.507812 C 274.660156 485.375 276.171875 486.890625 278.03125 486.890625 C 279.894531 486.890625 281.40625 485.375 281.40625 483.507812 C 281.40625 481.640625 279.894531 480.121094 278.03125 480.121094 " fill-opacity="1" fill-rule="nonzero"/><path fill="#2a9f5d" d="M 297.238281 480.121094 C 295.378906 480.121094 293.863281 481.640625 293.863281 483.507812 C 293.863281 485.375 295.378906 486.890625 297.238281 486.890625 C 299.097656 486.890625 300.613281 485.375 300.613281 483.507812 C 300.613281 481.640625 299.097656 480.121094 297.238281 480.121094 " fill-opacity="1" fill-rule="nonzero"/><path fill="#2a9f5d" d="M 316.445312 480.121094 C 314.582031 480.121094 313.070312 481.640625 313.070312 483.507812 C 313.070312 485.375 314.582031 486.890625 316.445312 486.890625 C 318.304688 486.890625 319.816406 485.375 319.816406 483.507812 C 319.816406 481.640625 318.304688 480.121094 316.445312 480.121094 " fill-opacity="1" fill-rule="nonzero"/><g clip-path="url(#id18)"><path fill="#2a9f5d" d="M 201.210938 499.269531 C 199.351562 499.269531 197.839844 500.785156 197.839844 502.652344 C 197.839844 504.519531 199.351562 506.039062 201.210938 506.039062 C 203.070312 506.039062 204.585938 504.519531 204.585938 502.652344 C 204.585938 500.785156 203.070312 499.269531 201.210938 499.269531 " fill-opacity="1" fill-rule="nonzero"/></g><path fill="#2a9f5d" d="M 220.417969 499.269531 C 218.554688 499.269531 217.042969 500.785156 217.042969 502.652344 C 217.042969 504.519531 218.554688 506.039062 220.417969 506.039062 C 222.277344 506.039062 223.789062 504.519531 223.789062 502.652344 C 223.789062 500.785156 222.277344 499.269531 220.417969 499.269531 " fill-opacity="1" fill-rule="nonzero"/><path fill="#2a9f5d" d="M 239.621094 499.269531 C 237.761719 499.269531 236.25 500.785156 236.25 502.652344 C 236.25 504.519531 237.761719 506.039062 239.621094 506.039062 C 241.480469 506.039062 242.996094 504.519531 242.996094 502.652344 C 242.996094 500.785156 241.480469 499.269531 239.621094 499.269531 " fill-opacity="1" fill-rule="nonzero"/><path fill="#2a9f5d" d="M 258.828125 499.269531 C 256.96875 499.269531 255.453125 500.785156 255.453125 502.652344 C 255.453125 504.519531 256.96875 506.039062 258.828125 506.039062 C 260.6875 506.039062 262.199219 504.519531 262.199219 502.652344 C 262.199219 500.785156 260.6875 499.269531 258.828125 499.269531 " fill-opacity="1" fill-rule="nonzero"/><path fill="#2a9f5d" d="M 278.03125 499.269531 C 276.171875 499.269531 274.660156 500.785156 274.660156 502.652344 C 274.660156 504.519531 276.171875 506.039062 278.03125 506.039062 C 279.894531 506.039062 281.40625 504.519531 281.40625 502.652344 C 281.40625 500.785156 279.894531 499.269531 278.03125 499.269531 " fill-opacity="1" fill-rule="nonzero"/><path fill="#2a9f5d" d="M 297.238281 499.269531 C 295.378906 499.269531 293.863281 500.785156 293.863281 502.652344 C 293.863281 504.519531 295.378906 506.039062 297.238281 506.039062 C 299.097656 506.039062 300.613281 504.519531 300.613281 502.652344 C 300.613281 500.785156 299.097656 499.269531 297.238281 499.269531 " fill-opacity="1" fill-rule="nonzero"/><path fill="#2a9f5d" d="M 316.445312 499.269531 C 314.582031 499.269531 313.070312 500.785156 313.070312 502.652344 C 313.070312 504.519531 314.582031 506.039062 316.445312 506.039062 C 318.304688 506.039062 319.816406 504.519531 319.816406 502.652344 C 319.816406 500.785156 318.304688 499.269531 316.445312 499.269531 " fill-opacity="1" fill-rule="nonzero"/><g clip-path="url(#id19)"><path fill="#2a9f5d" d="M 201.210938 518.65625 C 199.351562 518.65625 197.839844 520.175781 197.839844 522.042969 C 197.839844 523.910156 199.351562 525.429688 201.210938 525.429688 C 203.070312 525.429688 204.585938 523.910156 204.585938 522.042969 C 204.585938 520.175781 203.070312 518.65625 201.210938 518.65625 " fill-opacity="1" fill-rule="nonzero"/></g><g clip-path="url(#id20)"><path fill="#2a9f5d" d="M 220.417969 518.65625 C 218.554688 518.65625 217.042969 520.175781 217.042969 522.042969 C 217.042969 523.910156 218.554688 525.429688 220.417969 525.429688 C 222.277344 525.429688 223.789062 523.910156 223.789062 522.042969 C 223.789062 520.175781 222.277344 518.65625 220.417969 518.65625 " fill-opacity="1" fill-rule="nonzero"/></g><g clip-path="url(#id21)"><path fill="#2a9f5d" d="M 239.621094 518.65625 C 237.761719 518.65625 236.25 520.175781 236.25 522.042969 C 236.25 523.910156 237.761719 525.429688 239.621094 525.429688 C 241.480469 525.429688 242.996094 523.910156 242.996094 522.042969 C 242.996094 520.175781 241.480469 518.65625 239.621094 518.65625 " fill-opacity="1" fill-rule="nonzero"/></g><g clip-path="url(#id22)"><path fill="#2a9f5d" d="M 258.828125 518.65625 C 256.96875 518.65625 255.453125 520.175781 255.453125 522.042969 C 255.453125 523.910156 256.96875 525.429688 258.828125 525.429688 C 260.6875 525.429688 262.199219 523.910156 262.199219 522.042969 C 262.199219 520.175781 260.6875 518.65625 258.828125 518.65625 " fill-opacity="1" fill-rule="nonzero"/></g><g clip-path="url(#id23)"><path fill="#2a9f5d" d="M 278.03125 518.65625 C 276.171875 518.65625 274.660156 520.175781 274.660156 522.042969 C 274.660156 523.910156 276.171875 525.429688 278.03125 525.429688 C 279.894531 525.429688 281.40625 523.910156 281.40625 522.042969 C 281.40625 520.175781 279.894531 518.65625 278.03125 518.65625 " fill-opacity="1" fill-rule="nonzero"/></g><g clip-path="url(#id24)"><path fill="#2a9f5d" d="M 297.238281 518.65625 C 295.378906 518.65625 293.863281 520.175781 293.863281 522.042969 C 293.863281 523.910156 295.378906 525.429688 297.238281 525.429688 C 299.097656 525.429688 300.613281 523.910156 300.613281 522.042969 C 300.613281 520.175781 299.097656 518.65625 297.238281 518.65625 " fill-opacity="1" fill-rule="nonzero"/></g><g clip-path="url(#id25)"><path fill="#2a9f5d" d="M 316.445312 518.65625 C 314.582031 518.65625 313.070312 520.175781 313.070312 522.042969 C 313.070312 523.910156 314.582031 525.429688 316.445312 525.429688 C 318.304688 525.429688 319.816406 523.910156 319.816406 522.042969 C 319.816406 520.175781 318.304688 518.65625 316.445312 518.65625 " fill-opacity="1" fill-rule="nonzero"/></g><g clip-path="url(#id26)"><path fill="#2a9f5d" d="M 335.640625 403.175781 C 333.78125 403.175781 332.269531 404.695312 332.269531 406.5625 C 332.269531 408.429688 333.78125 409.945312 335.640625 409.945312 C 337.503906 409.945312 339.015625 408.429688 339.015625 406.5625 C 339.015625 404.695312 337.503906 403.175781 335.640625 403.175781 " fill-opacity="1" fill-rule="nonzero"/></g><g clip-path="url(#id27)"><path fill="#2a9f5d" d="M 354.847656 403.175781 C 352.988281 403.175781 351.472656 404.695312 351.472656 406.5625 C 351.472656 408.429688 352.988281 409.945312 354.847656 409.945312 C 356.707031 409.945312 358.21875 408.429688 358.21875 406.5625 C 358.21875 404.695312 356.707031 403.175781 354.847656 403.175781 " fill-opacity="1" fill-rule="nonzero"/></g><g clip-path="url(#id28)"><path fill="#2a9f5d" d="M 374.054688 403.175781 C 372.191406 403.175781 370.679688 404.695312 370.679688 406.5625 C 370.679688 408.429688 372.191406 409.945312 374.054688 409.945312 C 375.914062 409.945312 377.425781 408.429688 377.425781 406.5625 C 377.425781 404.695312 375.914062 403.175781 374.054688 403.175781 " fill-opacity="1" fill-rule="nonzero"/></g><g clip-path="url(#id29)"><path fill="#2a9f5d" d="M 393.257812 403.175781 C 391.398438 403.175781 389.886719 404.695312 389.886719 406.5625 C 389.886719 408.429688 391.398438 409.945312 393.257812 409.945312 C 395.121094 409.945312 396.632812 408.429688 396.632812 406.5625 C 396.632812 404.695312 395.121094 403.175781 393.257812 403.175781 " fill-opacity="1" fill-rule="nonzero"/></g><g clip-path="url(#id30)"><path fill="#2a9f5d" d="M 412.464844 403.175781 C 410.605469 403.175781 409.089844 404.695312 409.089844 406.5625 C 409.089844 408.429688 410.605469 409.945312 412.464844 409.945312 C 414.324219 409.945312 415.839844 408.429688 415.839844 406.5625 C 415.839844 404.695312 414.324219 403.175781 412.464844 403.175781 " fill-opacity="1" fill-rule="nonzero"/></g><g clip-path="url(#id31)"><path fill="#2a9f5d" d="M 431.667969 403.175781 C 429.808594 403.175781 428.296875 404.695312 428.296875 406.5625 C 428.296875 408.429688 429.808594 409.945312 431.667969 409.945312 C 433.53125 409.945312 435.042969 408.429688 435.042969 406.5625 C 435.042969 404.695312 433.53125 403.175781 431.667969 403.175781 " fill-opacity="1" fill-rule="nonzero"/></g><g clip-path="url(#id32)"><path fill="#2a9f5d" d="M 450.875 409.945312 C 452.734375 409.945312 454.25 408.429688 454.25 406.5625 C 454.25 404.695312 452.734375 403.175781 450.875 403.175781 C 449.015625 403.175781 447.503906 404.695312 447.503906 406.5625 C 447.503906 408.429688 449.015625 409.945312 450.875 409.945312 " fill-opacity="1" fill-rule="nonzero"/></g><path fill="#2a9f5d" d="M 335.640625 422.441406 C 333.78125 422.441406 332.269531 423.960938 332.269531 425.828125 C 332.269531 427.691406 333.78125 429.210938 335.640625 429.210938 C 337.503906 429.210938 339.015625 427.691406 339.015625 425.828125 C 339.015625 423.960938 337.503906 422.441406 335.640625 422.441406 " fill-opacity="1" fill-rule="nonzero"/><path fill="#2a9f5d" d="M 354.847656 422.441406 C 352.988281 422.441406 351.472656 423.960938 351.472656 425.828125 C 351.472656 427.691406 352.988281 429.210938 354.847656 429.210938 C 356.707031 429.210938 358.21875 427.691406 358.21875 425.828125 C 358.21875 423.960938 356.707031 422.441406 354.847656 422.441406 " fill-opacity="1" fill-rule="nonzero"/><path fill="#2a9f5d" d="M 374.054688 422.441406 C 372.191406 422.441406 370.679688 423.960938 370.679688 425.828125 C 370.679688 427.691406 372.191406 429.210938 374.054688 429.210938 C 375.914062 429.210938 377.425781 427.691406 377.425781 425.828125 C 377.425781 423.960938 375.914062 422.441406 374.054688 422.441406 " fill-opacity="1" fill-rule="nonzero"/><path fill="#2a9f5d" d="M 393.257812 422.441406 C 391.398438 422.441406 389.886719 423.960938 389.886719 425.828125 C 389.886719 427.691406 391.398438 429.210938 393.257812 429.210938 C 395.121094 429.210938 396.632812 427.691406 396.632812 425.828125 C 396.632812 423.960938 395.121094 422.441406 393.257812 422.441406 " fill-opacity="1" fill-rule="nonzero"/><path fill="#2a9f5d" d="M 412.464844 422.441406 C 410.605469 422.441406 409.089844 423.960938 409.089844 425.828125 C 409.089844 427.691406 410.605469 429.210938 412.464844 429.210938 C 414.324219 429.210938 415.839844 427.691406 415.839844 425.828125 C 415.839844 423.960938 414.324219 422.441406 412.464844 422.441406 " fill-opacity="1" fill-rule="nonzero"/><path fill="#2a9f5d" d="M 431.667969 422.441406 C 429.808594 422.441406 428.296875 423.960938 428.296875 425.828125 C 428.296875 427.691406 429.808594 429.210938 431.667969 429.210938 C 433.53125 429.210938 435.042969 427.691406 435.042969 425.828125 C 435.042969 423.960938 433.53125 422.441406 431.667969 422.441406 " fill-opacity="1" fill-rule="nonzero"/><g clip-path="url(#id33)"><path fill="#2a9f5d" d="M 450.875 422.441406 C 449.015625 422.441406 447.503906 423.960938 447.503906 425.828125 C 447.503906 427.691406 449.015625 429.210938 450.875 429.210938 C 452.734375 429.210938 454.25 427.691406 454.25 425.828125 C 454.25 423.960938 452.734375 422.441406 450.875 422.441406 " fill-opacity="1" fill-rule="nonzero"/></g><path fill="#2a9f5d" d="M 335.640625 441.589844 C 333.78125 441.589844 332.269531 443.105469 332.269531 444.972656 C 332.269531 446.839844 333.78125 448.355469 335.640625 448.355469 C 337.503906 448.355469 339.015625 446.839844 339.015625 444.972656 C 339.015625 443.105469 337.503906 441.589844 335.640625 441.589844 " fill-opacity="1" fill-rule="nonzero"/><path fill="#2a9f5d" d="M 354.847656 441.589844 C 352.988281 441.589844 351.472656 443.105469 351.472656 444.972656 C 351.472656 446.839844 352.988281 448.355469 354.847656 448.355469 C 356.707031 448.355469 358.21875 446.839844 358.21875 444.972656 C 358.21875 443.105469 356.707031 441.589844 354.847656 441.589844 " fill-opacity="1" fill-rule="nonzero"/><path fill="#2a9f5d" d="M 374.054688 441.589844 C 372.191406 441.589844 370.679688 443.105469 370.679688 444.972656 C 370.679688 446.839844 372.191406 448.355469 374.054688 448.355469 C 375.914062 448.355469 377.425781 446.839844 377.425781 444.972656 C 377.425781 443.105469 375.914062 441.589844 374.054688 441.589844 " fill-opacity="1" fill-rule="nonzero"/><path fill="#2a9f5d" d="M 393.257812 441.589844 C 391.398438 441.589844 389.886719 443.105469 389.886719 444.972656 C 389.886719 446.839844 391.398438 448.355469 393.257812 448.355469 C 395.121094 448.355469 396.632812 446.839844 396.632812 444.972656 C 396.632812 443.105469 395.121094 441.589844 393.257812 441.589844 " fill-opacity="1" fill-rule="nonzero"/><path fill="#2a9f5d" d="M 412.464844 441.589844 C 410.605469 441.589844 409.089844 443.105469 409.089844 444.972656 C 409.089844 446.839844 410.605469 448.355469 412.464844 448.355469 C 414.324219 448.355469 415.839844 446.839844 415.839844 444.972656 C 415.839844 443.105469 414.324219 441.589844 412.464844 441.589844 " fill-opacity="1" fill-rule="nonzero"/><path fill="#2a9f5d" d="M 431.667969 441.589844 C 429.808594 441.589844 428.296875 443.105469 428.296875 444.972656 C 428.296875 446.839844 429.808594 448.355469 431.667969 448.355469 C 433.53125 448.355469 435.042969 446.839844 435.042969 444.972656 C 435.042969 443.105469 433.53125 441.589844 431.667969 441.589844 " fill-opacity="1" fill-rule="nonzero"/><g clip-path="url(#id34)"><path fill="#2a9f5d" d="M 450.875 441.589844 C 449.015625 441.589844 447.503906 443.105469 447.503906 444.972656 C 447.503906 446.839844 449.015625 448.355469 450.875 448.355469 C 452.734375 448.355469 454.25 446.839844 454.25 444.972656 C 454.25 443.105469 452.734375 441.589844 450.875 441.589844 " fill-opacity="1" fill-rule="nonzero"/></g><path fill="#2a9f5d" d="M 335.640625 460.855469 C 333.78125 460.855469 332.269531 462.375 332.269531 464.242188 C 332.269531 466.109375 333.78125 467.628906 335.640625 467.628906 C 337.503906 467.628906 339.015625 466.109375 339.015625 464.242188 C 339.015625 462.375 337.503906 460.855469 335.640625 460.855469 " fill-opacity="1" fill-rule="nonzero"/><path fill="#2a9f5d" d="M 354.847656 460.855469 C 352.988281 460.855469 351.472656 462.375 351.472656 464.242188 C 351.472656 466.109375 352.988281 467.628906 354.847656 467.628906 C 356.707031 467.628906 358.21875 466.109375 358.21875 464.242188 C 358.21875 462.375 356.707031 460.855469 354.847656 460.855469 " fill-opacity="1" fill-rule="nonzero"/><path fill="#2a9f5d" d="M 374.054688 460.855469 C 372.191406 460.855469 370.679688 462.375 370.679688 464.242188 C 370.679688 466.109375 372.191406 467.628906 374.054688 467.628906 C 375.914062 467.628906 377.425781 466.109375 377.425781 464.242188 C 377.425781 462.375 375.914062 460.855469 374.054688 460.855469 " fill-opacity="1" fill-rule="nonzero"/><path fill="#2a9f5d" d="M 393.257812 460.855469 C 391.398438 460.855469 389.886719 462.375 389.886719 464.242188 C 389.886719 466.109375 391.398438 467.628906 393.257812 467.628906 C 395.121094 467.628906 396.632812 466.109375 396.632812 464.242188 C 396.632812 462.375 395.121094 460.855469 393.257812 460.855469 " fill-opacity="1" fill-rule="nonzero"/><path fill="#2a9f5d" d="M 412.464844 460.855469 C 410.605469 460.855469 409.089844 462.375 409.089844 464.242188 C 409.089844 466.109375 410.605469 467.628906 412.464844 467.628906 C 414.324219 467.628906 415.839844 466.109375 415.839844 464.242188 C 415.839844 462.375 414.324219 460.855469 412.464844 460.855469 " fill-opacity="1" fill-rule="nonzero"/><path fill="#2a9f5d" d="M 431.667969 460.855469 C 429.808594 460.855469 428.296875 462.375 428.296875 464.242188 C 428.296875 466.109375 429.808594 467.628906 431.667969 467.628906 C 433.53125 467.628906 435.042969 466.109375 435.042969 464.242188 C 435.042969 462.375 433.53125 460.855469 431.667969 460.855469 " fill-opacity="1" fill-rule="nonzero"/><g clip-path="url(#id35)"><path fill="#2a9f5d" d="M 450.875 460.855469 C 449.015625 460.855469 447.503906 462.375 447.503906 464.242188 C 447.503906 466.109375 449.015625 467.628906 450.875 467.628906 C 452.734375 467.628906 454.25 466.109375 454.25 464.242188 C 454.25 462.375 452.734375 460.855469 450.875 460.855469 " fill-opacity="1" fill-rule="nonzero"/></g><path fill="#2a9f5d" d="M 335.640625 480.121094 C 333.78125 480.121094 332.269531 481.640625 332.269531 483.507812 C 332.269531 485.375 333.78125 486.890625 335.640625 486.890625 C 337.503906 486.890625 339.015625 485.375 339.015625 483.507812 C 339.015625 481.640625 337.503906 480.121094 335.640625 480.121094 " fill-opacity="1" fill-rule="nonzero"/><path fill="#2a9f5d" d="M 354.847656 480.121094 C 352.988281 480.121094 351.472656 481.640625 351.472656 483.507812 C 351.472656 485.375 352.988281 486.890625 354.847656 486.890625 C 356.707031 486.890625 358.21875 485.375 358.21875 483.507812 C 358.21875 481.640625 356.707031 480.121094 354.847656 480.121094 " fill-opacity="1" fill-rule="nonzero"/><path fill="#2a9f5d" d="M 374.054688 480.121094 C 372.191406 480.121094 370.679688 481.640625 370.679688 483.507812 C 370.679688 485.375 372.191406 486.890625 374.054688 486.890625 C 375.914062 486.890625 377.425781 485.375 377.425781 483.507812 C 377.425781 481.640625 375.914062 480.121094 374.054688 480.121094 " fill-opacity="1" fill-rule="nonzero"/><path fill="#2a9f5d" d="M 393.257812 480.121094 C 391.398438 480.121094 389.886719 481.640625 389.886719 483.507812 C 389.886719 485.375 391.398438 486.890625 393.257812 486.890625 C 395.121094 486.890625 396.632812 485.375 396.632812 483.507812 C 396.632812 481.640625 395.121094 480.121094 393.257812 480.121094 " fill-opacity="1" fill-rule="nonzero"/><path fill="#2a9f5d" d="M 412.464844 480.121094 C 410.605469 480.121094 409.089844 481.640625 409.089844 483.507812 C 409.089844 485.375 410.605469 486.890625 412.464844 486.890625 C 414.324219 486.890625 415.839844 485.375 415.839844 483.507812 C 415.839844 481.640625 414.324219 480.121094 412.464844 480.121094 " fill-opacity="1" fill-rule="nonzero"/><path fill="#2a9f5d" d="M 431.667969 480.121094 C 429.808594 480.121094 428.296875 481.640625 428.296875 483.507812 C 428.296875 485.375 429.808594 486.890625 431.667969 486.890625 C 433.53125 486.890625 435.042969 485.375 435.042969 483.507812 C 435.042969 481.640625 433.53125 480.121094 431.667969 480.121094 " fill-opacity="1" fill-rule="nonzero"/><g clip-path="url(#id36)"><path fill="#2a9f5d" d="M 450.875 480.121094 C 449.015625 480.121094 447.503906 481.640625 447.503906 483.507812 C 447.503906 485.375 449.015625 486.890625 450.875 486.890625 C 452.734375 486.890625 454.25 485.375 454.25 483.507812 C 454.25 481.640625 452.734375 480.121094 450.875 480.121094 " fill-opacity="1" fill-rule="nonzero"/></g><path fill="#2a9f5d" d="M 335.640625 499.269531 C 333.78125 499.269531 332.269531 500.785156 332.269531 502.652344 C 332.269531 504.519531 333.78125 506.039062 335.640625 506.039062 C 337.503906 506.039062 339.015625 504.519531 339.015625 502.652344 C 339.015625 500.785156 337.503906 499.269531 335.640625 499.269531 " fill-opacity="1" fill-rule="nonzero"/><path fill="#2a9f5d" d="M 354.847656 499.269531 C 352.988281 499.269531 351.472656 500.785156 351.472656 502.652344 C 351.472656 504.519531 352.988281 506.039062 354.847656 506.039062 C 356.707031 506.039062 358.21875 504.519531 358.21875 502.652344 C 358.21875 500.785156 356.707031 499.269531 354.847656 499.269531 " fill-opacity="1" fill-rule="nonzero"/><path fill="#2a9f5d" d="M 374.054688 499.269531 C 372.191406 499.269531 370.679688 500.785156 370.679688 502.652344 C 370.679688 504.519531 372.191406 506.039062 374.054688 506.039062 C 375.914062 506.039062 377.425781 504.519531 377.425781 502.652344 C 377.425781 500.785156 375.914062 499.269531 374.054688 499.269531 " fill-opacity="1" fill-rule="nonzero"/><path fill="#2a9f5d" d="M 393.257812 499.269531 C 391.398438 499.269531 389.886719 500.785156 389.886719 502.652344 C 389.886719 504.519531 391.398438 506.039062 393.257812 506.039062 C 395.121094 506.039062 396.632812 504.519531 396.632812 502.652344 C 396.632812 500.785156 395.121094 499.269531 393.257812 499.269531 " fill-opacity="1" fill-rule="nonzero"/><path fill="#2a9f5d" d="M 412.464844 499.269531 C 410.605469 499.269531 409.089844 500.785156 409.089844 502.652344 C 409.089844 504.519531 410.605469 506.039062 412.464844 506.039062 C 414.324219 506.039062 415.839844 504.519531 415.839844 502.652344 C 415.839844 500.785156 414.324219 499.269531 412.464844 499.269531 " fill-opacity="1" fill-rule="nonzero"/><path fill="#2a9f5d" d="M 431.667969 499.269531 C 429.808594 499.269531 428.296875 500.785156 428.296875 502.652344 C 428.296875 504.519531 429.808594 506.039062 431.667969 506.039062 C 433.53125 506.039062 435.042969 504.519531 435.042969 502.652344 C 435.042969 500.785156 433.53125 499.269531 431.667969 499.269531 " fill-opacity="1" fill-rule="nonzero"/><g clip-path="url(#id37)"><path fill="#2a9f5d" d="M 450.875 499.269531 C 449.015625 499.269531 447.503906 500.785156 447.503906 502.652344 C 447.503906 504.519531 449.015625 506.039062 450.875 506.039062 C 452.734375 506.039062 454.25 504.519531 454.25 502.652344 C 454.25 500.785156 452.734375 499.269531 450.875 499.269531 " fill-opacity="1" fill-rule="nonzero"/></g><g clip-path="url(#id38)"><path fill="#2a9f5d" d="M 335.640625 518.65625 C 333.78125 518.65625 332.269531 520.175781 332.269531 522.042969 C 332.269531 523.910156 333.78125 525.429688 335.640625 525.429688 C 337.503906 525.429688 339.015625 523.910156 339.015625 522.042969 C 339.015625 520.175781 337.503906 518.65625 335.640625 518.65625 " fill-opacity="1" fill-rule="nonzero"/></g><g clip-path="url(#id39)"><path fill="#2a9f5d" d="M 354.847656 518.65625 C 352.988281 518.65625 351.472656 520.175781 351.472656 522.042969 C 351.472656 523.910156 352.988281 525.429688 354.847656 525.429688 C 356.707031 525.429688 358.21875 523.910156 358.21875 522.042969 C 358.21875 520.175781 356.707031 518.65625 354.847656 518.65625 " fill-opacity="1" fill-rule="nonzero"/></g><g clip-path="url(#id40)"><path fill="#2a9f5d" d="M 374.054688 518.65625 C 372.191406 518.65625 370.679688 520.175781 370.679688 522.042969 C 370.679688 523.910156 372.191406 525.429688 374.054688 525.429688 C 375.914062 525.429688 377.425781 523.910156 377.425781 522.042969 C 377.425781 520.175781 375.914062 518.65625 374.054688 518.65625 " fill-opacity="1" fill-rule="nonzero"/></g><g clip-path="url(#id41)"><path fill="#2a9f5d" d="M 393.257812 518.65625 C 391.398438 518.65625 389.886719 520.175781 389.886719 522.042969 C 389.886719 523.910156 391.398438 525.429688 393.257812 525.429688 C 395.121094 525.429688 396.632812 523.910156 396.632812 522.042969 C 396.632812 520.175781 395.121094 518.65625 393.257812 518.65625 " fill-opacity="1" fill-rule="nonzero"/></g><g clip-path="url(#id42)"><path fill="#2a9f5d" d="M 412.464844 518.65625 C 410.605469 518.65625 409.089844 520.175781 409.089844 522.042969 C 409.089844 523.910156 410.605469 525.429688 412.464844 525.429688 C 414.324219 525.429688 415.839844 523.910156 415.839844 522.042969 C 415.839844 520.175781 414.324219 518.65625 412.464844 518.65625 " fill-opacity="1" fill-rule="nonzero"/></g><g clip-path="url(#id43)"><path fill="#2a9f5d" d="M 431.667969 518.65625 C 429.808594 518.65625 428.296875 520.175781 428.296875 522.042969 C 428.296875 523.910156 429.808594 525.429688 431.667969 525.429688 C 433.53125 525.429688 435.042969 523.910156 435.042969 522.042969 C 435.042969 520.175781 433.53125 518.65625 431.667969 518.65625 " fill-opacity="1" fill-rule="nonzero"/></g><g clip-path="url(#id44)"><path fill="#2a9f5d" d="M 450.875 518.65625 C 449.015625 518.65625 447.503906 520.175781 447.503906 522.042969 C 447.503906 523.910156 449.015625 525.429688 450.875 525.429688 C 452.734375 525.429688 454.25 523.910156 454.25 522.042969 C 454.25 520.175781 452.734375 518.65625 450.875 518.65625 " fill-opacity="1" fill-rule="nonzero"/></g><g clip-path="url(#id45)"><path fill="#299640" d="M 1238.007812 538.351562 C 1238.320312 538.351562 1238.625 538.410156 1238.914062 538.53125 C 1239.207031 538.648438 1239.464844 538.820312 1239.6875 539.039062 C 1239.910156 539.261719 1240.082031 539.515625 1240.203125 539.804688 C 1240.324219 540.09375 1240.382812 540.394531 1240.386719 540.707031 C 1240.386719 541.023438 1240.324219 541.324219 1240.207031 541.613281 C 1240.085938 541.902344 1239.914062 542.160156 1239.691406 542.382812 C 1239.472656 542.601562 1239.214844 542.773438 1238.925781 542.894531 C 1238.632812 543.015625 1238.332031 543.074219 1238.015625 543.074219 C 1237.703125 543.074219 1237.398438 543.015625 1237.109375 542.894531 C 1236.820312 542.777344 1236.5625 542.605469 1236.339844 542.382812 C 1236.117188 542.164062 1235.945312 541.90625 1235.824219 541.617188 C 1235.703125 541.328125 1235.644531 541.027344 1235.644531 540.714844 C 1235.644531 540.402344 1235.703125 540.101562 1235.824219 539.8125 C 1235.945312 539.523438 1236.113281 539.265625 1236.335938 539.046875 C 1236.558594 538.824219 1236.8125 538.652344 1237.101562 538.535156 C 1237.390625 538.414062 1237.695312 538.351562 1238.007812 538.351562 Z M 1235.644531 512.683594 C 1235.644531 512.996094 1235.703125 513.300781 1235.824219 513.589844 C 1235.941406 513.878906 1236.113281 514.136719 1236.335938 514.359375 C 1236.558594 514.582031 1236.8125 514.75 1237.105469 514.871094 C 1237.394531 514.992188 1237.699219 515.050781 1238.011719 515.054688 C 1238.328125 515.054688 1238.628906 514.992188 1238.921875 514.875 C 1239.210938 514.753906 1239.46875 514.582031 1239.691406 514.363281 C 1239.914062 514.140625 1240.085938 513.882812 1240.203125 513.59375 C 1240.324219 513.304688 1240.386719 513.003906 1240.386719 512.6875 C 1240.382812 512.375 1240.324219 512.074219 1240.203125 511.785156 C 1240.082031 511.496094 1239.910156 511.238281 1239.6875 511.019531 C 1239.464844 510.796875 1239.207031 510.625 1238.917969 510.507812 C 1238.625 510.386719 1238.324219 510.328125 1238.007812 510.328125 C 1237.695312 510.328125 1237.394531 510.390625 1237.101562 510.507812 C 1236.8125 510.628906 1236.558594 510.796875 1236.335938 511.019531 C 1236.113281 511.242188 1235.945312 511.496094 1235.824219 511.785156 C 1235.703125 512.070312 1235.644531 512.371094 1235.644531 512.683594 Z M 1235.644531 484.65625 C 1235.644531 484.96875 1235.703125 485.269531 1235.824219 485.558594 C 1235.941406 485.851562 1236.113281 486.105469 1236.335938 486.328125 C 1236.558594 486.550781 1236.8125 486.722656 1237.105469 486.84375 C 1237.394531 486.964844 1237.699219 487.023438 1238.011719 487.023438 C 1238.328125 487.023438 1238.628906 486.964844 1238.921875 486.84375 C 1239.210938 486.722656 1239.46875 486.554688 1239.691406 486.332031 C 1239.914062 486.109375 1240.085938 485.855469 1240.203125 485.566406 C 1240.324219 485.273438 1240.386719 484.972656 1240.386719 484.660156 C 1240.382812 484.347656 1240.324219 484.042969 1240.203125 483.753906 C 1240.082031 483.464844 1239.910156 483.210938 1239.6875 482.988281 C 1239.464844 482.769531 1239.207031 482.597656 1238.917969 482.476562 C 1238.625 482.359375 1238.324219 482.300781 1238.007812 482.300781 C 1237.695312 482.300781 1237.394531 482.363281 1237.105469 482.480469 C 1236.816406 482.601562 1236.558594 482.773438 1236.339844 482.992188 C 1236.117188 483.210938 1235.945312 483.46875 1235.828125 483.753906 C 1235.707031 484.042969 1235.644531 484.34375 1235.644531 484.65625 Z M 1235.644531 456.632812 C 1235.648438 456.945312 1235.710938 457.246094 1235.835938 457.53125 C 1235.957031 457.820312 1236.132812 458.074219 1236.355469 458.292969 C 1236.582031 458.511719 1236.835938 458.679688 1237.128906 458.796875 C 1237.417969 458.910156 1237.722656 458.96875 1238.035156 458.964844 C 1238.347656 458.964844 1238.652344 458.902344 1238.941406 458.777344 C 1239.226562 458.65625 1239.484375 458.484375 1239.703125 458.261719 C 1239.921875 458.039062 1240.09375 457.785156 1240.210938 457.492188 C 1240.328125 457.203125 1240.386719 456.902344 1240.382812 456.589844 C 1240.382812 456.277344 1240.320312 455.976562 1240.199219 455.691406 C 1240.078125 455.402344 1239.90625 455.148438 1239.683594 454.925781 C 1239.460938 454.707031 1239.203125 454.539062 1238.914062 454.417969 C 1238.625 454.300781 1238.320312 454.242188 1238.007812 454.242188 C 1237.691406 454.242188 1237.386719 454.304688 1237.097656 454.425781 C 1236.804688 454.550781 1236.546875 454.722656 1236.324219 454.945312 C 1236.105469 455.171875 1235.933594 455.429688 1235.816406 455.722656 C 1235.699219 456.015625 1235.640625 456.316406 1235.644531 456.632812 Z M 1235.644531 428.605469 C 1235.644531 428.917969 1235.703125 429.21875 1235.824219 429.507812 C 1235.941406 429.800781 1236.113281 430.054688 1236.335938 430.277344 C 1236.558594 430.5 1236.8125 430.671875 1237.105469 430.792969 C 1237.394531 430.910156 1237.699219 430.972656 1238.011719 430.972656 C 1238.328125 430.972656 1238.628906 430.914062 1238.921875 430.792969 C 1239.210938 430.671875 1239.46875 430.503906 1239.691406 430.28125 C 1239.914062 430.058594 1240.085938 429.804688 1240.203125 429.511719 C 1240.324219 429.222656 1240.386719 428.921875 1240.386719 428.609375 C 1240.382812 428.292969 1240.324219 427.992188 1240.203125 427.703125 C 1240.082031 427.414062 1239.910156 427.160156 1239.6875 426.9375 C 1239.464844 426.714844 1239.207031 426.546875 1238.917969 426.425781 C 1238.625 426.308594 1238.324219 426.25 1238.007812 426.25 C 1237.695312 426.25 1237.394531 426.308594 1237.101562 426.429688 C 1236.8125 426.546875 1236.558594 426.71875 1236.335938 426.9375 C 1236.113281 427.160156 1235.945312 427.414062 1235.824219 427.703125 C 1235.703125 427.992188 1235.644531 428.292969 1235.644531 428.605469 Z M 1235.644531 400.574219 C 1235.644531 400.886719 1235.703125 401.191406 1235.824219 401.480469 C 1235.941406 401.769531 1236.113281 402.027344 1236.335938 402.25 C 1236.558594 402.46875 1236.8125 402.640625 1237.105469 402.761719 C 1237.394531 402.882812 1237.699219 402.941406 1238.011719 402.941406 C 1238.328125 402.945312 1238.628906 402.882812 1238.921875 402.765625 C 1239.210938 402.644531 1239.46875 402.472656 1239.691406 402.25 C 1239.914062 402.03125 1240.085938 401.773438 1240.203125 401.484375 C 1240.324219 401.195312 1240.386719 400.894531 1240.386719 400.578125 C 1240.382812 400.265625 1240.324219 399.964844 1240.203125 399.675781 C 1240.082031 399.386719 1239.910156 399.128906 1239.6875 398.910156 C 1239.464844 398.6875 1239.207031 398.515625 1238.917969 398.398438 C 1238.625 398.277344 1238.324219 398.21875 1238.007812 398.21875 C 1237.695312 398.21875 1237.394531 398.28125 1237.101562 398.398438 C 1236.8125 398.519531 1236.558594 398.6875 1236.335938 398.910156 C 1236.113281 399.128906 1235.945312 399.386719 1235.824219 399.671875 C 1235.703125 399.960938 1235.644531 400.261719 1235.644531 400.574219 Z M 1235.644531 372.546875 C 1235.644531 372.859375 1235.703125 373.160156 1235.824219 373.449219 C 1235.941406 373.742188 1236.113281 373.996094 1236.335938 374.21875 C 1236.558594 374.441406 1236.8125 374.613281 1237.105469 374.734375 C 1237.394531 374.851562 1237.699219 374.914062 1238.011719 374.914062 C 1238.328125 374.914062 1238.628906 374.855469 1238.921875 374.734375 C 1239.210938 374.613281 1239.46875 374.445312 1239.691406 374.222656 C 1239.914062 374 1240.085938 373.746094 1240.203125 373.453125 C 1240.324219 373.164062 1240.386719 372.863281 1240.386719 372.550781 C 1240.382812 372.234375 1240.324219 371.933594 1240.203125 371.644531 C 1240.082031 371.355469 1239.910156 371.101562 1239.6875 370.878906 C 1239.464844 370.65625 1239.207031 370.488281 1238.917969 370.367188 C 1238.625 370.25 1238.324219 370.191406 1238.007812 370.191406 C 1237.695312 370.191406 1237.394531 370.25 1237.105469 370.371094 C 1236.816406 370.492188 1236.558594 370.660156 1236.339844 370.882812 C 1236.117188 371.101562 1235.945312 371.355469 1235.828125 371.644531 C 1235.707031 371.933594 1235.644531 372.234375 1235.644531 372.546875 Z M 1235.644531 344.523438 C 1235.644531 344.835938 1235.707031 345.136719 1235.828125 345.425781 C 1235.949219 345.714844 1236.121094 345.96875 1236.34375 346.191406 C 1236.566406 346.410156 1236.824219 346.582031 1237.113281 346.699219 C 1237.40625 346.820312 1237.707031 346.878906 1238.023438 346.878906 C 1238.335938 346.875 1238.636719 346.816406 1238.929688 346.695312 C 1239.21875 346.574219 1239.472656 346.402344 1239.695312 346.179688 C 1239.917969 345.957031 1240.085938 345.703125 1240.207031 345.414062 C 1240.328125 345.125 1240.386719 344.820312 1240.386719 344.507812 C 1240.382812 344.195312 1240.324219 343.894531 1240.203125 343.605469 C 1240.082031 343.316406 1239.910156 343.0625 1239.6875 342.839844 C 1239.460938 342.621094 1239.207031 342.449219 1238.914062 342.332031 C 1238.625 342.210938 1238.320312 342.152344 1238.007812 342.152344 C 1237.691406 342.15625 1237.390625 342.214844 1237.101562 342.335938 C 1236.8125 342.457031 1236.554688 342.628906 1236.332031 342.851562 C 1236.113281 343.074219 1235.941406 343.328125 1235.820312 343.617188 C 1235.703125 343.910156 1235.644531 344.210938 1235.644531 344.523438 Z M 1235.644531 316.492188 C 1235.644531 316.808594 1235.703125 317.109375 1235.824219 317.398438 C 1235.941406 317.6875 1236.113281 317.945312 1236.335938 318.167969 C 1236.558594 318.390625 1236.8125 318.5625 1237.105469 318.679688 C 1237.394531 318.800781 1237.699219 318.863281 1238.011719 318.863281 C 1238.328125 318.863281 1238.628906 318.804688 1238.921875 318.683594 C 1239.210938 318.5625 1239.46875 318.390625 1239.691406 318.171875 C 1239.914062 317.949219 1240.085938 317.691406 1240.203125 317.402344 C 1240.324219 317.113281 1240.386719 316.8125 1240.386719 316.5 C 1240.382812 316.183594 1240.324219 315.882812 1240.203125 315.59375 C 1240.082031 315.304688 1239.910156 315.046875 1239.6875 314.828125 C 1239.464844 314.605469 1239.207031 314.4375 1238.917969 314.316406 C 1238.625 314.199219 1238.324219 314.136719 1238.007812 314.140625 C 1237.695312 314.140625 1237.394531 314.199219 1237.101562 314.320312 C 1236.8125 314.4375 1236.558594 314.609375 1236.335938 314.828125 C 1236.113281 315.050781 1235.945312 315.304688 1235.824219 315.59375 C 1235.703125 315.882812 1235.644531 316.179688 1235.644531 316.492188 Z M 1260.820312 540.714844 C 1260.820312 541.027344 1260.878906 541.324219 1261 541.613281 C 1261.121094 541.902344 1261.292969 542.15625 1261.515625 542.375 C 1261.738281 542.597656 1261.992188 542.765625 1262.28125 542.882812 C 1262.574219 543.003906 1262.875 543.0625 1263.1875 543.0625 C 1263.5 543.058594 1263.800781 543 1264.089844 542.878906 C 1264.378906 542.761719 1264.632812 542.589844 1264.855469 542.367188 C 1265.078125 542.148438 1265.246094 541.894531 1265.367188 541.605469 C 1265.484375 541.316406 1265.546875 541.015625 1265.546875 540.703125 C 1265.546875 540.390625 1265.484375 540.09375 1265.363281 539.804688 C 1265.246094 539.515625 1265.074219 539.261719 1264.851562 539.039062 C 1264.628906 538.820312 1264.375 538.648438 1264.085938 538.53125 C 1263.796875 538.410156 1263.496094 538.351562 1263.183594 538.351562 C 1262.867188 538.351562 1262.566406 538.414062 1262.277344 538.535156 C 1261.988281 538.652344 1261.730469 538.824219 1261.511719 539.046875 C 1261.289062 539.265625 1261.117188 539.523438 1261 539.8125 C 1260.878906 540.101562 1260.820312 540.402344 1260.820312 540.714844 Z M 1260.820312 512.683594 C 1260.820312 512.996094 1260.878906 513.296875 1261 513.585938 C 1261.117188 513.875 1261.289062 514.128906 1261.511719 514.347656 C 1261.734375 514.570312 1261.988281 514.738281 1262.277344 514.859375 C 1262.566406 514.980469 1262.867188 515.039062 1263.183594 515.039062 C 1263.496094 515.039062 1263.796875 514.980469 1264.085938 514.859375 C 1264.375 514.738281 1264.632812 514.570312 1264.851562 514.347656 C 1265.074219 514.128906 1265.246094 513.875 1265.367188 513.585938 C 1265.484375 513.296875 1265.546875 512.996094 1265.546875 512.683594 C 1265.546875 512.371094 1265.484375 512.070312 1265.367188 511.785156 C 1265.246094 511.496094 1265.074219 511.242188 1264.851562 511.019531 C 1264.632812 510.796875 1264.375 510.628906 1264.085938 510.507812 C 1263.796875 510.390625 1263.496094 510.328125 1263.183594 510.328125 C 1262.867188 510.328125 1262.566406 510.390625 1262.277344 510.507812 C 1261.988281 510.628906 1261.734375 510.796875 1261.511719 511.019531 C 1261.289062 511.242188 1261.117188 511.496094 1261 511.785156 C 1260.878906 512.070312 1260.820312 512.371094 1260.820312 512.683594 Z M 1260.820312 484.65625 C 1260.820312 484.96875 1260.878906 485.269531 1261 485.554688 C 1261.117188 485.84375 1261.289062 486.097656 1261.511719 486.320312 C 1261.734375 486.539062 1261.988281 486.710938 1262.277344 486.832031 C 1262.566406 486.949219 1262.867188 487.007812 1263.183594 487.007812 C 1263.496094 487.007812 1263.796875 486.949219 1264.085938 486.832031 C 1264.375 486.710938 1264.632812 486.539062 1264.851562 486.320312 C 1265.074219 486.097656 1265.246094 485.84375 1265.367188 485.554688 C 1265.484375 485.269531 1265.546875 484.96875 1265.546875 484.65625 C 1265.546875 484.34375 1265.484375 484.042969 1265.367188 483.753906 C 1265.246094 483.464844 1265.074219 483.210938 1264.851562 482.988281 C 1264.632812 482.769531 1264.375 482.597656 1264.085938 482.480469 C 1263.796875 482.359375 1263.496094 482.300781 1263.183594 482.300781 C 1262.867188 482.300781 1262.566406 482.363281 1262.277344 482.480469 C 1261.988281 482.601562 1261.734375 482.773438 1261.511719 482.992188 C 1261.292969 483.210938 1261.121094 483.46875 1261 483.753906 C 1260.878906 484.042969 1260.820312 484.34375 1260.820312 484.65625 Z M 1260.820312 456.632812 C 1260.824219 456.945312 1260.886719 457.242188 1261.011719 457.527344 C 1261.132812 457.8125 1261.308594 458.066406 1261.53125 458.285156 C 1261.753906 458.5 1262.011719 458.667969 1262.300781 458.78125 C 1262.59375 458.898438 1262.894531 458.957031 1263.207031 458.953125 C 1263.519531 458.949219 1263.816406 458.886719 1264.105469 458.765625 C 1264.394531 458.644531 1264.644531 458.472656 1264.867188 458.25 C 1265.085938 458.027344 1265.253906 457.773438 1265.371094 457.484375 C 1265.488281 457.195312 1265.546875 456.898438 1265.546875 456.585938 C 1265.542969 456.273438 1265.480469 455.976562 1265.363281 455.6875 C 1265.242188 455.402344 1265.070312 455.148438 1264.847656 454.929688 C 1264.628906 454.710938 1264.371094 454.539062 1264.082031 454.421875 C 1263.796875 454.300781 1263.496094 454.242188 1263.183594 454.242188 C 1262.867188 454.242188 1262.5625 454.304688 1262.269531 454.425781 C 1261.980469 454.550781 1261.722656 454.722656 1261.5 454.945312 C 1261.277344 455.171875 1261.109375 455.429688 1260.992188 455.722656 C 1260.871094 456.015625 1260.816406 456.316406 1260.820312 456.632812 Z M 1260.820312 428.605469 C 1260.820312 428.914062 1260.878906 429.214844 1261 429.503906 C 1261.117188 429.792969 1261.289062 430.046875 1261.511719 430.269531 C 1261.734375 430.488281 1261.988281 430.660156 1262.277344 430.777344 C 1262.566406 430.898438 1262.867188 430.957031 1263.183594 430.957031 C 1263.496094 430.957031 1263.796875 430.898438 1264.085938 430.777344 C 1264.375 430.660156 1264.632812 430.488281 1264.851562 430.269531 C 1265.074219 430.046875 1265.246094 429.792969 1265.367188 429.503906 C 1265.484375 429.214844 1265.546875 428.914062 1265.546875 428.605469 C 1265.546875 428.292969 1265.484375 427.992188 1265.367188 427.703125 C 1265.246094 427.414062 1265.074219 427.160156 1264.851562 426.9375 C 1264.632812 426.71875 1264.375 426.546875 1264.085938 426.429688 C 1263.796875 426.308594 1263.496094 426.25 1263.183594 426.25 C 1262.867188 426.25 1262.566406 426.308594 1262.277344 426.429688 C 1261.988281 426.546875 1261.734375 426.71875 1261.511719 426.9375 C 1261.289062 427.160156 1261.117188 427.414062 1261 427.703125 C 1260.878906 427.992188 1260.820312 428.292969 1260.820312 428.605469 Z M 1260.820312 400.574219 C 1260.820312 400.886719 1260.878906 401.1875 1261 401.476562 C 1261.117188 401.765625 1261.289062 402.019531 1261.511719 402.238281 C 1261.734375 402.460938 1261.988281 402.628906 1262.277344 402.75 C 1262.566406 402.871094 1262.867188 402.929688 1263.183594 402.929688 C 1263.496094 402.929688 1263.796875 402.871094 1264.085938 402.75 C 1264.375 402.628906 1264.632812 402.460938 1264.851562 402.238281 C 1265.074219 402.019531 1265.246094 401.765625 1265.367188 401.476562 C 1265.484375 401.1875 1265.546875 400.886719 1265.546875 400.574219 C 1265.546875 400.261719 1265.484375 399.960938 1265.367188 399.671875 C 1265.246094 399.386719 1265.074219 399.128906 1264.851562 398.910156 C 1264.632812 398.6875 1264.375 398.519531 1264.085938 398.398438 C 1263.796875 398.28125 1263.496094 398.21875 1263.183594 398.21875 C 1262.867188 398.21875 1262.566406 398.28125 1262.277344 398.398438 C 1261.988281 398.519531 1261.734375 398.6875 1261.511719 398.910156 C 1261.289062 399.128906 1261.117188 399.386719 1261 399.671875 C 1260.878906 399.960938 1260.820312 400.261719 1260.820312 400.574219 Z M 1260.820312 372.546875 C 1260.820312 372.859375 1260.878906 373.15625 1261 373.445312 C 1261.117188 373.734375 1261.289062 373.988281 1261.511719 374.210938 C 1261.734375 374.429688 1261.988281 374.601562 1262.277344 374.71875 C 1262.566406 374.839844 1262.867188 374.898438 1263.183594 374.898438 C 1263.496094 374.898438 1263.796875 374.839844 1264.085938 374.71875 C 1264.375 374.601562 1264.632812 374.429688 1264.851562 374.210938 C 1265.074219 373.988281 1265.246094 373.734375 1265.367188 373.445312 C 1265.484375 373.15625 1265.546875 372.859375 1265.546875 372.546875 C 1265.546875 372.234375 1265.484375 371.933594 1265.367188 371.644531 C 1265.246094 371.355469 1265.074219 371.101562 1264.851562 370.878906 C 1264.632812 370.660156 1264.375 370.488281 1264.085938 370.371094 C 1263.796875 370.25 1263.496094 370.191406 1263.183594 370.191406 C 1262.867188 370.191406 1262.566406 370.25 1262.277344 370.371094 C 1261.988281 370.492188 1261.734375 370.660156 1261.511719 370.882812 C 1261.292969 371.101562 1261.121094 371.355469 1261 371.644531 C 1260.878906 371.933594 1260.820312 372.234375 1260.820312 372.546875 Z M 1260.820312 344.523438 C 1260.820312 344.835938 1260.882812 345.132812 1261.003906 345.421875 C 1261.125 345.710938 1261.296875 345.960938 1261.519531 346.183594 C 1261.742188 346.402344 1261.996094 346.570312 1262.289062 346.6875 C 1262.578125 346.804688 1262.878906 346.863281 1263.191406 346.863281 C 1263.503906 346.863281 1263.804688 346.800781 1264.09375 346.679688 C 1264.382812 346.5625 1264.636719 346.390625 1264.859375 346.167969 C 1265.078125 345.949219 1265.25 345.691406 1265.367188 345.40625 C 1265.488281 345.117188 1265.546875 344.816406 1265.546875 344.503906 C 1265.542969 344.191406 1265.484375 343.890625 1265.363281 343.605469 C 1265.242188 343.316406 1265.074219 343.0625 1264.851562 342.84375 C 1264.628906 342.621094 1264.375 342.453125 1264.085938 342.332031 C 1263.796875 342.214844 1263.496094 342.152344 1263.183594 342.152344 C 1262.867188 342.15625 1262.566406 342.214844 1262.277344 342.335938 C 1261.984375 342.457031 1261.730469 342.628906 1261.507812 342.851562 C 1261.285156 343.074219 1261.117188 343.328125 1260.996094 343.617188 C 1260.878906 343.910156 1260.816406 344.210938 1260.820312 344.523438 Z M 1260.820312 316.492188 C 1260.820312 316.804688 1260.878906 317.105469 1261 317.394531 C 1261.117188 317.683594 1261.289062 317.9375 1261.511719 318.160156 C 1261.734375 318.378906 1261.988281 318.550781 1262.277344 318.667969 C 1262.566406 318.789062 1262.867188 318.847656 1263.183594 318.847656 C 1263.496094 318.847656 1263.796875 318.789062 1264.085938 318.667969 C 1264.375 318.550781 1264.632812 318.378906 1264.851562 318.160156 C 1265.074219 317.9375 1265.246094 317.683594 1265.367188 317.394531 C 1265.484375 317.105469 1265.546875 316.804688 1265.546875 316.492188 C 1265.546875 316.179688 1265.484375 315.882812 1265.367188 315.59375 C 1265.246094 315.304688 1265.074219 315.050781 1264.851562 314.828125 C 1264.632812 314.609375 1264.375 314.4375 1264.085938 314.320312 C 1263.796875 314.199219 1263.496094 314.140625 1263.183594 314.140625 C 1262.867188 314.140625 1262.566406 314.199219 1262.277344 314.320312 C 1261.988281 314.4375 1261.734375 314.609375 1261.511719 314.828125 C 1261.289062 315.050781 1261.117188 315.304688 1261 315.59375 C 1260.878906 315.882812 1260.820312 316.179688 1260.820312 316.492188 Z M 1285.992188 540.714844 C 1285.996094 541.027344 1286.054688 541.324219 1286.175781 541.613281 C 1286.296875 541.902344 1286.46875 542.15625 1286.691406 542.375 C 1286.910156 542.597656 1287.167969 542.765625 1287.457031 542.882812 C 1287.746094 543.003906 1288.046875 543.0625 1288.363281 543.0625 C 1288.675781 543.058594 1288.976562 543 1289.265625 542.878906 C 1289.554688 542.761719 1289.808594 542.589844 1290.03125 542.367188 C 1290.25 542.148438 1290.421875 541.894531 1290.542969 541.605469 C 1290.660156 541.316406 1290.71875 541.015625 1290.71875 540.703125 C 1290.71875 540.390625 1290.660156 540.09375 1290.539062 539.804688 C 1290.417969 539.515625 1290.25 539.261719 1290.027344 539.039062 C 1289.804688 538.820312 1289.550781 538.648438 1289.261719 538.53125 C 1288.972656 538.410156 1288.667969 538.351562 1288.355469 538.351562 C 1288.042969 538.351562 1287.742188 538.410156 1287.449219 538.53125 C 1287.160156 538.652344 1286.90625 538.824219 1286.683594 539.042969 C 1286.460938 539.265625 1286.289062 539.519531 1286.171875 539.808594 C 1286.050781 540.101562 1285.992188 540.402344 1285.992188 540.714844 Z M 1285.992188 512.683594 C 1285.992188 512.996094 1286.054688 513.296875 1286.171875 513.585938 C 1286.292969 513.875 1286.464844 514.128906 1286.6875 514.347656 C 1286.90625 514.570312 1287.164062 514.738281 1287.453125 514.859375 C 1287.742188 514.980469 1288.042969 515.039062 1288.355469 515.039062 C 1288.671875 515.039062 1288.972656 514.980469 1289.261719 514.859375 C 1289.550781 514.738281 1289.804688 514.570312 1290.027344 514.347656 C 1290.25 514.128906 1290.421875 513.875 1290.539062 513.585938 C 1290.660156 513.296875 1290.71875 512.996094 1290.71875 512.683594 C 1290.71875 512.371094 1290.660156 512.070312 1290.539062 511.785156 C 1290.421875 511.496094 1290.25 511.242188 1290.027344 511.019531 C 1289.804688 510.796875 1289.550781 510.628906 1289.261719 510.507812 C 1288.972656 510.390625 1288.671875 510.328125 1288.355469 510.328125 C 1288.042969 510.328125 1287.742188 510.386719 1287.453125 510.507812 C 1287.160156 510.625 1286.90625 510.796875 1286.683594 511.015625 C 1286.460938 511.238281 1286.292969 511.492188 1286.171875 511.78125 C 1286.050781 512.070312 1285.992188 512.371094 1285.992188 512.683594 Z M 1285.992188 484.65625 C 1285.992188 484.96875 1286.054688 485.269531 1286.171875 485.554688 C 1286.292969 485.84375 1286.464844 486.097656 1286.6875 486.320312 C 1286.90625 486.539062 1287.164062 486.710938 1287.453125 486.832031 C 1287.742188 486.949219 1288.042969 487.007812 1288.355469 487.007812 C 1288.671875 487.007812 1288.972656 486.949219 1289.261719 486.832031 C 1289.550781 486.710938 1289.804688 486.539062 1290.027344 486.320312 C 1290.25 486.097656 1290.421875 485.84375 1290.539062 485.554688 C 1290.660156 485.269531 1290.71875 484.96875 1290.71875 484.65625 C 1290.71875 484.34375 1290.660156 484.042969 1290.539062 483.753906 C 1290.421875 483.464844 1290.25 483.210938 1290.027344 482.988281 C 1289.804688 482.769531 1289.550781 482.597656 1289.261719 482.480469 C 1288.972656 482.359375 1288.671875 482.300781 1288.355469 482.300781 C 1288.042969 482.300781 1287.742188 482.359375 1287.453125 482.480469 C 1287.164062 482.597656 1286.90625 482.769531 1286.6875 482.988281 C 1286.464844 483.210938 1286.292969 483.464844 1286.171875 483.753906 C 1286.054688 484.042969 1285.992188 484.34375 1285.992188 484.65625 Z M 1285.992188 456.632812 C 1286 456.945312 1286.0625 457.242188 1286.1875 457.527344 C 1286.308594 457.8125 1286.484375 458.066406 1286.707031 458.285156 C 1286.929688 458.5 1287.1875 458.667969 1287.476562 458.78125 C 1287.765625 458.898438 1288.066406 458.957031 1288.378906 458.953125 C 1288.691406 458.949219 1288.992188 458.886719 1289.28125 458.765625 C 1289.566406 458.644531 1289.820312 458.472656 1290.039062 458.25 C 1290.257812 458.027344 1290.425781 457.773438 1290.546875 457.484375 C 1290.664062 457.195312 1290.722656 456.898438 1290.71875 456.585938 C 1290.71875 456.273438 1290.65625 455.976562 1290.535156 455.6875 C 1290.414062 455.402344 1290.246094 455.148438 1290.023438 454.929688 C 1289.800781 454.710938 1289.546875 454.539062 1289.257812 454.421875 C 1288.96875 454.300781 1288.667969 454.242188 1288.355469 454.242188 C 1288.039062 454.242188 1287.734375 454.304688 1287.445312 454.425781 C 1287.152344 454.546875 1286.894531 454.71875 1286.671875 454.945312 C 1286.449219 455.167969 1286.28125 455.429688 1286.164062 455.722656 C 1286.046875 456.015625 1285.988281 456.316406 1285.992188 456.632812 Z M 1285.992188 428.605469 C 1285.992188 428.914062 1286.054688 429.214844 1286.171875 429.503906 C 1286.292969 429.792969 1286.464844 430.046875 1286.6875 430.269531 C 1286.90625 430.488281 1287.164062 430.660156 1287.453125 430.777344 C 1287.742188 430.898438 1288.042969 430.957031 1288.355469 430.957031 C 1288.671875 430.957031 1288.972656 430.898438 1289.261719 430.777344 C 1289.550781 430.660156 1289.804688 430.488281 1290.027344 430.269531 C 1290.25 430.046875 1290.421875 429.792969 1290.539062 429.503906 C 1290.660156 429.214844 1290.71875 428.914062 1290.71875 428.605469 C 1290.71875 428.292969 1290.660156 427.992188 1290.539062 427.703125 C 1290.421875 427.414062 1290.25 427.160156 1290.027344 426.9375 C 1289.804688 426.71875 1289.550781 426.546875 1289.261719 426.429688 C 1288.972656 426.308594 1288.671875 426.25 1288.355469 426.25 C 1288.042969 426.25 1287.742188 426.308594 1287.453125 426.425781 C 1287.160156 426.546875 1286.90625 426.714844 1286.683594 426.9375 C 1286.460938 427.15625 1286.292969 427.414062 1286.171875 427.703125 C 1286.050781 427.992188 1285.992188 428.292969 1285.992188 428.605469 Z M 1285.992188 400.574219 C 1285.992188 400.886719 1286.054688 401.1875 1286.171875 401.476562 C 1286.292969 401.765625 1286.464844 402.019531 1286.6875 402.238281 C 1286.90625 402.460938 1287.164062 402.628906 1287.453125 402.75 C 1287.742188 402.871094 1288.042969 402.929688 1288.355469 402.929688 C 1288.671875 402.929688 1288.972656 402.871094 1289.261719 402.75 C 1289.550781 402.628906 1289.804688 402.460938 1290.027344 402.238281 C 1290.25 402.019531 1290.421875 401.765625 1290.539062 401.476562 C 1290.660156 401.1875 1290.71875 400.886719 1290.71875 400.574219 C 1290.71875 400.261719 1290.660156 399.960938 1290.539062 399.671875 C 1290.421875 399.386719 1290.25 399.128906 1290.027344 398.910156 C 1289.804688 398.6875 1289.550781 398.519531 1289.261719 398.398438 C 1288.972656 398.28125 1288.671875 398.21875 1288.355469 398.21875 C 1288.042969 398.21875 1287.742188 398.277344 1287.453125 398.398438 C 1287.160156 398.515625 1286.90625 398.6875 1286.683594 398.90625 C 1286.460938 399.128906 1286.292969 399.382812 1286.171875 399.671875 C 1286.050781 399.960938 1285.992188 400.261719 1285.992188 400.574219 Z M 1285.992188 372.546875 C 1285.992188 372.859375 1286.054688 373.15625 1286.171875 373.445312 C 1286.292969 373.734375 1286.464844 373.988281 1286.6875 374.210938 C 1286.90625 374.429688 1287.164062 374.601562 1287.453125 374.71875 C 1287.742188 374.839844 1288.042969 374.898438 1288.355469 374.898438 C 1288.671875 374.898438 1288.972656 374.839844 1289.261719 374.71875 C 1289.550781 374.601562 1289.804688 374.429688 1290.027344 374.210938 C 1290.25 373.988281 1290.421875 373.734375 1290.539062 373.445312 C 1290.660156 373.15625 1290.71875 372.859375 1290.71875 372.546875 C 1290.71875 372.234375 1290.660156 371.933594 1290.539062 371.644531 C 1290.421875 371.355469 1290.25 371.101562 1290.027344 370.878906 C 1289.804688 370.660156 1289.550781 370.488281 1289.261719 370.371094 C 1288.972656 370.25 1288.671875 370.191406 1288.355469 370.191406 C 1288.042969 370.191406 1287.742188 370.25 1287.453125 370.371094 C 1287.164062 370.488281 1286.90625 370.660156 1286.6875 370.878906 C 1286.464844 371.101562 1286.292969 371.355469 1286.171875 371.644531 C 1286.054688 371.933594 1285.992188 372.234375 1285.992188 372.546875 Z M 1285.992188 344.523438 C 1285.996094 344.835938 1286.058594 345.132812 1286.179688 345.421875 C 1286.300781 345.710938 1286.472656 345.960938 1286.695312 346.183594 C 1286.917969 346.402344 1287.171875 346.570312 1287.460938 346.6875 C 1287.75 346.804688 1288.054688 346.863281 1288.367188 346.863281 C 1288.679688 346.863281 1288.980469 346.800781 1289.269531 346.679688 C 1289.558594 346.5625 1289.8125 346.390625 1290.03125 346.167969 C 1290.253906 345.949219 1290.421875 345.691406 1290.542969 345.40625 C 1290.660156 345.117188 1290.71875 344.816406 1290.71875 344.503906 C 1290.71875 344.191406 1290.660156 343.890625 1290.539062 343.605469 C 1290.417969 343.316406 1290.246094 343.0625 1290.027344 342.84375 C 1289.804688 342.621094 1289.550781 342.453125 1289.261719 342.332031 C 1288.972656 342.214844 1288.667969 342.152344 1288.355469 342.152344 C 1288.042969 342.152344 1287.738281 342.214844 1287.449219 342.335938 C 1287.160156 342.457031 1286.902344 342.625 1286.679688 342.847656 C 1286.457031 343.070312 1286.289062 343.328125 1286.167969 343.617188 C 1286.050781 343.90625 1285.992188 344.210938 1285.992188 344.523438 Z M 1285.992188 316.492188 C 1285.992188 316.804688 1286.054688 317.105469 1286.171875 317.394531 C 1286.292969 317.683594 1286.464844 317.9375 1286.6875 318.160156 C 1286.90625 318.378906 1287.164062 318.550781 1287.453125 318.667969 C 1287.742188 318.789062 1288.042969 318.847656 1288.355469 318.847656 C 1288.671875 318.847656 1288.972656 318.789062 1289.261719 318.667969 C 1289.550781 318.550781 1289.804688 318.378906 1290.027344 318.160156 C 1290.25 317.9375 1290.421875 317.683594 1290.539062 317.394531 C 1290.660156 317.105469 1290.71875 316.804688 1290.71875 316.492188 C 1290.71875 316.179688 1290.660156 315.882812 1290.539062 315.59375 C 1290.421875 315.304688 1290.25 315.050781 1290.027344 314.828125 C 1289.804688 314.609375 1289.550781 314.4375 1289.261719 314.320312 C 1288.972656 314.199219 1288.671875 314.140625 1288.355469 314.140625 C 1288.042969 314.136719 1287.742188 314.199219 1287.453125 314.316406 C 1287.160156 314.4375 1286.90625 314.605469 1286.683594 314.828125 C 1286.460938 315.046875 1286.292969 315.300781 1286.171875 315.589844 C 1286.050781 315.878906 1285.992188 316.179688 1285.992188 316.492188 Z M 1311.167969 540.714844 C 1311.167969 541.027344 1311.230469 541.324219 1311.351562 541.613281 C 1311.472656 541.902344 1311.640625 542.15625 1311.863281 542.375 C 1312.085938 542.597656 1312.34375 542.765625 1312.632812 542.882812 C 1312.921875 543.003906 1313.222656 543.0625 1313.535156 543.0625 C 1313.847656 543.058594 1314.148438 543 1314.4375 542.878906 C 1314.726562 542.761719 1314.984375 542.589844 1315.203125 542.367188 C 1315.425781 542.148438 1315.597656 541.894531 1315.714844 541.605469 C 1315.835938 541.316406 1315.894531 541.015625 1315.894531 540.703125 C 1315.894531 540.390625 1315.832031 540.09375 1315.714844 539.804688 C 1315.59375 539.515625 1315.421875 539.261719 1315.203125 539.039062 C 1314.980469 538.820312 1314.722656 538.648438 1314.433594 538.53125 C 1314.144531 538.410156 1313.84375 538.351562 1313.53125 538.351562 C 1313.21875 538.351562 1312.914062 538.410156 1312.625 538.53125 C 1312.335938 538.652344 1312.078125 538.824219 1311.859375 539.042969 C 1311.636719 539.265625 1311.464844 539.519531 1311.347656 539.808594 C 1311.226562 540.101562 1311.167969 540.402344 1311.167969 540.714844 Z M 1311.167969 512.683594 C 1311.167969 512.996094 1311.226562 513.296875 1311.347656 513.585938 C 1311.46875 513.875 1311.636719 514.128906 1311.859375 514.347656 C 1312.082031 514.570312 1312.335938 514.738281 1312.625 514.859375 C 1312.917969 514.980469 1313.21875 515.039062 1313.53125 515.039062 C 1313.84375 515.039062 1314.144531 514.980469 1314.433594 514.859375 C 1314.726562 514.738281 1314.980469 514.570312 1315.203125 514.347656 C 1315.421875 514.128906 1315.59375 513.875 1315.714844 513.585938 C 1315.835938 513.296875 1315.894531 512.996094 1315.894531 512.683594 C 1315.894531 512.371094 1315.835938 512.070312 1315.714844 511.785156 C 1315.59375 511.496094 1315.421875 511.242188 1315.203125 511.019531 C 1314.980469 510.796875 1314.726562 510.628906 1314.433594 510.507812 C 1314.144531 510.390625 1313.84375 510.328125 1313.53125 510.328125 C 1313.21875 510.328125 1312.914062 510.386719 1312.625 510.507812 C 1312.335938 510.625 1312.078125 510.796875 1311.859375 511.015625 C 1311.636719 511.238281 1311.464844 511.492188 1311.347656 511.78125 C 1311.226562 512.070312 1311.167969 512.371094 1311.167969 512.683594 Z M 1311.167969 484.65625 C 1311.167969 484.96875 1311.226562 485.269531 1311.347656 485.554688 C 1311.46875 485.84375 1311.636719 486.097656 1311.859375 486.320312 C 1312.082031 486.539062 1312.335938 486.710938 1312.625 486.832031 C 1312.917969 486.949219 1313.21875 487.007812 1313.53125 487.007812 C 1313.84375 487.007812 1314.144531 486.949219 1314.433594 486.832031 C 1314.726562 486.710938 1314.980469 486.539062 1315.203125 486.320312 C 1315.421875 486.097656 1315.59375 485.84375 1315.714844 485.554688 C 1315.835938 485.269531 1315.894531 484.96875 1315.894531 484.65625 C 1315.894531 484.34375 1315.835938 484.042969 1315.714844 483.753906 C 1315.59375 483.464844 1315.421875 483.210938 1315.203125 482.988281 C 1314.980469 482.769531 1314.726562 482.597656 1314.433594 482.480469 C 1314.144531 482.359375 1313.84375 482.300781 1313.53125 482.300781 C 1313.21875 482.300781 1312.917969 482.359375 1312.625 482.480469 C 1312.335938 482.597656 1312.082031 482.769531 1311.859375 482.988281 C 1311.636719 483.210938 1311.46875 483.464844 1311.347656 483.753906 C 1311.226562 484.042969 1311.167969 484.34375 1311.167969 484.65625 Z M 1311.167969 456.632812 C 1311.167969 456.945312 1311.230469 457.246094 1311.351562 457.53125 C 1311.472656 457.820312 1311.640625 458.074219 1311.863281 458.296875 C 1312.085938 458.515625 1312.34375 458.683594 1312.632812 458.804688 C 1312.921875 458.921875 1313.222656 458.980469 1313.535156 458.980469 C 1313.847656 458.980469 1314.148438 458.917969 1314.4375 458.800781 C 1314.726562 458.679688 1314.984375 458.507812 1315.203125 458.289062 C 1315.425781 458.066406 1315.597656 457.8125 1315.714844 457.523438 C 1315.835938 457.234375 1315.894531 456.9375 1315.894531 456.625 C 1315.894531 456.3125 1315.832031 456.011719 1315.714844 455.722656 C 1315.59375 455.433594 1315.421875 455.179688 1315.203125 454.960938 C 1314.980469 454.738281 1314.722656 454.570312 1314.433594 454.449219 C 1314.144531 454.332031 1313.84375 454.269531 1313.53125 454.269531 C 1313.21875 454.269531 1312.914062 454.332031 1312.625 454.453125 C 1312.335938 454.570312 1312.078125 454.742188 1311.859375 454.964844 C 1311.636719 455.183594 1311.464844 455.441406 1311.347656 455.730469 C 1311.226562 456.019531 1311.167969 456.320312 1311.167969 456.632812 Z M 1311.167969 428.605469 C 1311.167969 428.914062 1311.226562 429.214844 1311.347656 429.503906 C 1311.46875 429.792969 1311.636719 430.046875 1311.859375 430.269531 C 1312.082031 430.488281 1312.335938 430.660156 1312.625 430.777344 C 1312.917969 430.898438 1313.21875 430.957031 1313.53125 430.957031 C 1313.84375 430.957031 1314.144531 430.898438 1314.433594 430.777344 C 1314.726562 430.660156 1314.980469 430.488281 1315.203125 430.269531 C 1315.421875 430.046875 1315.59375 429.792969 1315.714844 429.503906 C 1315.835938 429.214844 1315.894531 428.914062 1315.894531 428.605469 C 1315.894531 428.292969 1315.835938 427.992188 1315.714844 427.703125 C 1315.59375 427.414062 1315.421875 427.160156 1315.203125 426.9375 C 1314.980469 426.71875 1314.726562 426.546875 1314.433594 426.429688 C 1314.144531 426.308594 1313.84375 426.25 1313.53125 426.25 C 1313.21875 426.25 1312.914062 426.308594 1312.625 426.425781 C 1312.335938 426.546875 1312.078125 426.714844 1311.859375 426.9375 C 1311.636719 427.15625 1311.464844 427.414062 1311.347656 427.703125 C 1311.226562 427.992188 1311.167969 428.292969 1311.167969 428.605469 Z M 1311.167969 400.574219 C 1311.167969 400.886719 1311.226562 401.1875 1311.347656 401.476562 C 1311.46875 401.765625 1311.636719 402.019531 1311.859375 402.238281 C 1312.082031 402.460938 1312.335938 402.628906 1312.625 402.75 C 1312.917969 402.871094 1313.21875 402.929688 1313.53125 402.929688 C 1313.84375 402.929688 1314.144531 402.871094 1314.433594 402.75 C 1314.726562 402.628906 1314.980469 402.460938 1315.203125 402.238281 C 1315.421875 402.019531 1315.59375 401.765625 1315.714844 401.476562 C 1315.835938 401.1875 1315.894531 400.886719 1315.894531 400.574219 C 1315.894531 400.261719 1315.835938 399.960938 1315.714844 399.671875 C 1315.59375 399.386719 1315.421875 399.128906 1315.203125 398.910156 C 1314.980469 398.6875 1314.726562 398.519531 1314.433594 398.398438 C 1314.144531 398.28125 1313.84375 398.21875 1313.53125 398.21875 C 1313.21875 398.21875 1312.914062 398.277344 1312.625 398.398438 C 1312.335938 398.515625 1312.078125 398.6875 1311.859375 398.90625 C 1311.636719 399.128906 1311.464844 399.382812 1311.347656 399.671875 C 1311.226562 399.960938 1311.167969 400.261719 1311.167969 400.574219 Z M 1311.167969 372.546875 C 1311.167969 372.859375 1311.226562 373.15625 1311.347656 373.445312 C 1311.46875 373.734375 1311.636719 373.988281 1311.859375 374.210938 C 1312.082031 374.429688 1312.335938 374.601562 1312.625 374.71875 C 1312.917969 374.839844 1313.21875 374.898438 1313.53125 374.898438 C 1313.84375 374.898438 1314.144531 374.839844 1314.433594 374.71875 C 1314.726562 374.601562 1314.980469 374.429688 1315.203125 374.210938 C 1315.421875 373.988281 1315.59375 373.734375 1315.714844 373.445312 C 1315.835938 373.15625 1315.894531 372.859375 1315.894531 372.546875 C 1315.894531 372.234375 1315.835938 371.933594 1315.714844 371.644531 C 1315.59375 371.355469 1315.421875 371.101562 1315.203125 370.878906 C 1314.980469 370.660156 1314.726562 370.488281 1314.433594 370.371094 C 1314.144531 370.25 1313.84375 370.191406 1313.53125 370.191406 C 1313.21875 370.191406 1312.917969 370.25 1312.625 370.371094 C 1312.335938 370.488281 1312.082031 370.660156 1311.859375 370.878906 C 1311.636719 371.101562 1311.46875 371.355469 1311.347656 371.644531 C 1311.226562 371.933594 1311.167969 372.234375 1311.167969 372.546875 Z M 1311.167969 344.523438 C 1311.167969 344.835938 1311.230469 345.136719 1311.351562 345.421875 C 1311.472656 345.710938 1311.640625 345.964844 1311.863281 346.183594 C 1312.085938 346.40625 1312.34375 346.574219 1312.632812 346.691406 C 1312.921875 346.8125 1313.222656 346.871094 1313.535156 346.871094 C 1313.847656 346.871094 1314.148438 346.808594 1314.4375 346.691406 C 1314.726562 346.570312 1314.984375 346.398438 1315.203125 346.179688 C 1315.425781 345.957031 1315.597656 345.703125 1315.714844 345.414062 C 1315.835938 345.125 1315.894531 344.824219 1315.894531 344.511719 C 1315.894531 344.203125 1315.832031 343.902344 1315.714844 343.613281 C 1315.59375 343.324219 1315.421875 343.070312 1315.203125 342.851562 C 1314.980469 342.628906 1314.722656 342.460938 1314.433594 342.339844 C 1314.144531 342.222656 1313.84375 342.160156 1313.53125 342.160156 C 1313.21875 342.160156 1312.914062 342.222656 1312.625 342.339844 C 1312.335938 342.460938 1312.078125 342.632812 1311.859375 342.851562 C 1311.636719 343.074219 1311.464844 343.332031 1311.347656 343.621094 C 1311.226562 343.910156 1311.167969 344.210938 1311.167969 344.523438 Z M 1311.167969 316.492188 C 1311.167969 316.804688 1311.226562 317.105469 1311.347656 317.394531 C 1311.46875 317.683594 1311.636719 317.9375 1311.859375 318.160156 C 1312.082031 318.378906 1312.335938 318.550781 1312.625 318.667969 C 1312.917969 318.789062 1313.21875 318.847656 1313.53125 318.847656 C 1313.84375 318.847656 1314.144531 318.789062 1314.433594 318.667969 C 1314.726562 318.550781 1314.980469 318.378906 1315.203125 318.160156 C 1315.421875 317.9375 1315.59375 317.683594 1315.714844 317.394531 C 1315.835938 317.105469 1315.894531 316.804688 1315.894531 316.492188 C 1315.894531 316.179688 1315.835938 315.882812 1315.714844 315.59375 C 1315.59375 315.304688 1315.421875 315.050781 1315.203125 314.828125 C 1314.980469 314.609375 1314.726562 314.4375 1314.433594 314.320312 C 1314.144531 314.199219 1313.84375 314.140625 1313.53125 314.140625 C 1313.21875 314.136719 1312.914062 314.199219 1312.625 314.316406 C 1312.335938 314.4375 1312.078125 314.605469 1311.859375 314.828125 C 1311.636719 315.046875 1311.464844 315.300781 1311.347656 315.589844 C 1311.226562 315.878906 1311.167969 316.179688 1311.167969 316.492188 Z M 1311.167969 316.492188 " fill-opacity="1" fill-rule="nonzero"/></g></svg>