<svg xmlns="http://www.w3.org/2000/svg" xmlns:xlink="http://www.w3.org/1999/xlink" width="1920" zoomAndPan="magnify" viewBox="0 0 1440 809.999993" height="1080" preserveAspectRatio="xMidYMid meet" version="1.0"><defs><filter x="0%" y="0%" width="100%" height="100%" id="id1"><feColorMatrix values="0 0 0 0 1 0 0 0 0 1 0 0 0 0 1 0 0 0 1 0" color-interpolation-filters="sRGB"/></filter><mask id="id2"><g filter="url(#id1)"><rect x="-144" width="1728" fill="#000000" y="-80.999999" height="971.999992" fill-opacity="0.3176"/></g></mask><clipPath id="id3"><path d="M 119 156 L 1293 156 L 1293 376 L 119 376 Z M 119 156 " clip-rule="nonzero"/></clipPath><clipPath id="id4"><path d="M 1164.25 1008.894531 L 55.320312 680.605469 L 265.453125 -29.191406 L 1374.378906 299.09375 Z M 1164.25 1008.894531 " clip-rule="nonzero"/></clipPath><clipPath id="id5"><path d="M 1403.414062 1599.898438 L -85.945312 1158.988281 L 265.761719 -29.046875 L 1755.121094 411.863281 Z M 1403.414062 1599.898438 " clip-rule="nonzero"/></clipPath><clipPath id="id6"><rect x="0" width="1293" y="0" height="376"/></clipPath><clipPath id="id7"><path d="M 122.21875 628.84375 L 132 628.84375 L 132 638 L 122.21875 638 Z M 122.21875 628.84375 " clip-rule="nonzero"/></clipPath><clipPath id="id8"><path d="M 147 628.84375 L 157 628.84375 L 157 638 L 147 638 Z M 147 628.84375 " clip-rule="nonzero"/></clipPath><clipPath id="id9"><path d="M 172 628.84375 L 182 628.84375 L 182 638 L 172 638 Z M 172 628.84375 " clip-rule="nonzero"/></clipPath><clipPath id="id10"><path d="M 197 628.84375 L 207 628.84375 L 207 638 L 197 638 Z M 197 628.84375 " clip-rule="nonzero"/></clipPath><clipPath id="id11"><path d="M 223 628.84375 L 233 628.84375 L 233 638 L 223 638 Z M 223 628.84375 " clip-rule="nonzero"/></clipPath><clipPath id="id12"><path d="M 248 628.84375 L 258 628.84375 L 258 638 L 248 638 Z M 248 628.84375 " clip-rule="nonzero"/></clipPath><clipPath id="id13"><path d="M 273 628.84375 L 283 628.84375 L 283 638 L 273 638 Z M 273 628.84375 " clip-rule="nonzero"/></clipPath><clipPath id="id14"><path d="M 122.21875 654 L 132 654 L 132 663 L 122.21875 663 Z M 122.21875 654 " clip-rule="nonzero"/></clipPath><clipPath id="id15"><path d="M 122.21875 679 L 132 679 L 132 688 L 122.21875 688 Z M 122.21875 679 " clip-rule="nonzero"/></clipPath><clipPath id="id16"><path d="M 122.21875 704 L 132 704 L 132 714 L 122.21875 714 Z M 122.21875 704 " clip-rule="nonzero"/></clipPath><clipPath id="id17"><path d="M 122.21875 729 L 132 729 L 132 739 L 122.21875 739 Z M 122.21875 729 " clip-rule="nonzero"/></clipPath><clipPath id="id18"><path d="M 122.21875 754 L 132 754 L 132 764 L 122.21875 764 Z M 122.21875 754 " clip-rule="nonzero"/></clipPath><clipPath id="id19"><path d="M 122.21875 779 L 132 779 L 132 788.59375 L 122.21875 788.59375 Z M 122.21875 779 " clip-rule="nonzero"/></clipPath><clipPath id="id20"><path d="M 147 779 L 157 779 L 157 788.59375 L 147 788.59375 Z M 147 779 " clip-rule="nonzero"/></clipPath><clipPath id="id21"><path d="M 172 779 L 182 779 L 182 788.59375 L 172 788.59375 Z M 172 779 " clip-rule="nonzero"/></clipPath><clipPath id="id22"><path d="M 197 779 L 207 779 L 207 788.59375 L 197 788.59375 Z M 197 779 " clip-rule="nonzero"/></clipPath><clipPath id="id23"><path d="M 223 779 L 233 779 L 233 788.59375 L 223 788.59375 Z M 223 779 " clip-rule="nonzero"/></clipPath><clipPath id="id24"><path d="M 248 779 L 258 779 L 258 788.59375 L 248 788.59375 Z M 248 779 " clip-rule="nonzero"/></clipPath><clipPath id="id25"><path d="M 273 779 L 283 779 L 283 788.59375 L 273 788.59375 Z M 273 779 " clip-rule="nonzero"/></clipPath><clipPath id="id26"><path d="M 298 628.84375 L 308 628.84375 L 308 638 L 298 638 Z M 298 628.84375 " clip-rule="nonzero"/></clipPath><clipPath id="id27"><path d="M 324 628.84375 L 333 628.84375 L 333 638 L 324 638 Z M 324 628.84375 " clip-rule="nonzero"/></clipPath><clipPath id="id28"><path d="M 349 628.84375 L 359 628.84375 L 359 638 L 349 638 Z M 349 628.84375 " clip-rule="nonzero"/></clipPath><clipPath id="id29"><path d="M 374 628.84375 L 384 628.84375 L 384 638 L 374 638 Z M 374 628.84375 " clip-rule="nonzero"/></clipPath><clipPath id="id30"><path d="M 399 628.84375 L 409 628.84375 L 409 638 L 399 638 Z M 399 628.84375 " clip-rule="nonzero"/></clipPath><clipPath id="id31"><path d="M 424 628.84375 L 434 628.84375 L 434 638 L 424 638 Z M 424 628.84375 " clip-rule="nonzero"/></clipPath><clipPath id="id32"><path d="M 450 628.84375 L 458.96875 628.84375 L 458.96875 638 L 450 638 Z M 450 628.84375 " clip-rule="nonzero"/></clipPath><clipPath id="id33"><path d="M 450 654 L 458.96875 654 L 458.96875 663 L 450 663 Z M 450 654 " clip-rule="nonzero"/></clipPath><clipPath id="id34"><path d="M 450 679 L 458.96875 679 L 458.96875 688 L 450 688 Z M 450 679 " clip-rule="nonzero"/></clipPath><clipPath id="id35"><path d="M 450 704 L 458.96875 704 L 458.96875 714 L 450 714 Z M 450 704 " clip-rule="nonzero"/></clipPath><clipPath id="id36"><path d="M 450 729 L 458.96875 729 L 458.96875 739 L 450 739 Z M 450 729 " clip-rule="nonzero"/></clipPath><clipPath id="id37"><path d="M 450 754 L 458.96875 754 L 458.96875 764 L 450 764 Z M 450 754 " clip-rule="nonzero"/></clipPath><clipPath id="id38"><path d="M 298 779 L 308 779 L 308 788.59375 L 298 788.59375 Z M 298 779 " clip-rule="nonzero"/></clipPath><clipPath id="id39"><path d="M 324 779 L 333 779 L 333 788.59375 L 324 788.59375 Z M 324 779 " clip-rule="nonzero"/></clipPath><clipPath id="id40"><path d="M 349 779 L 359 779 L 359 788.59375 L 349 788.59375 Z M 349 779 " clip-rule="nonzero"/></clipPath><clipPath id="id41"><path d="M 374 779 L 384 779 L 384 788.59375 L 374 788.59375 Z M 374 779 " clip-rule="nonzero"/></clipPath><clipPath id="id42"><path d="M 399 779 L 409 779 L 409 788.59375 L 399 788.59375 Z M 399 779 " clip-rule="nonzero"/></clipPath><clipPath id="id43"><path d="M 424 779 L 434 779 L 434 788.59375 L 424 788.59375 Z M 424 779 " clip-rule="nonzero"/></clipPath><clipPath id="id44"><path d="M 450 779 L 458.96875 779 L 458.96875 788.59375 L 450 788.59375 Z M 450 779 " clip-rule="nonzero"/></clipPath><clipPath id="id45"><path d="M 1240.3125 577.253906 L 1320.5625 577.253906 L 1320.5625 708.828125 L 1240.3125 708.828125 Z M 1240.3125 577.253906 " clip-rule="nonzero"/></clipPath></defs><g mask="url(#id2)"><g transform="matrix(1, 0, 0, 1, 147, 434)"><g clip-path="url(#id6)"><g clip-path="url(#id3)"><g clip-path="url(#id4)"><g clip-path="url(#id5)"><path fill="#00a78e" d="M 1090.667969 1378.84375 C 1360.363281 1486.246094 1527.824219 1179.71875 1328.414062 1028.292969 C 1206.511719 927.058594 1087.867188 844.628906 1237.640625 649.679688 C 1387.414062 454.734375 1276.375 270.273438 1121.519531 233.824219 C 966.664062 197.375 893 343.164062 751.675781 225.5 C 644.867188 136.574219 431.195312 130.625 312.496094 224.847656 C 153.199219 351.292969 252.089844 546.464844 297.378906 688.597656 C 342.664062 830.730469 133.917969 852.570312 120.460938 991.09375 C 107.007812 1129.617188 268.285156 1263.734375 491.535156 1229.035156 C 674.6875 1200.570312 865.40625 1289.132812 1090.667969 1378.84375 Z M 1090.667969 1378.84375 " fill-opacity="1" fill-rule="nonzero"/></g></g></g></g></g></g><g clip-path="url(#id7)"><path fill="#2a9f5d" d="M 126.738281 628.84375 C 124.296875 628.84375 122.308594 630.828125 122.308594 633.265625 C 122.308594 635.707031 124.296875 637.691406 126.738281 637.691406 C 129.179688 637.691406 131.167969 635.707031 131.167969 633.265625 C 131.167969 630.828125 129.179688 628.84375 126.738281 628.84375 " fill-opacity="1" fill-rule="nonzero"/></g><g clip-path="url(#id8)"><path fill="#2a9f5d" d="M 151.953125 628.84375 C 149.507812 628.84375 147.523438 630.828125 147.523438 633.265625 C 147.523438 635.707031 149.507812 637.691406 151.953125 637.691406 C 154.394531 637.691406 156.378906 635.707031 156.378906 633.265625 C 156.378906 630.828125 154.394531 628.84375 151.953125 628.84375 " fill-opacity="1" fill-rule="nonzero"/></g><g clip-path="url(#id9)"><path fill="#2a9f5d" d="M 177.164062 628.84375 C 174.71875 628.84375 172.734375 630.828125 172.734375 633.265625 C 172.734375 635.707031 174.71875 637.691406 177.164062 637.691406 C 179.605469 637.691406 181.589844 635.707031 181.589844 633.265625 C 181.589844 630.828125 179.605469 628.84375 177.164062 628.84375 " fill-opacity="1" fill-rule="nonzero"/></g><g clip-path="url(#id10)"><path fill="#2a9f5d" d="M 202.375 628.84375 C 199.933594 628.84375 197.945312 630.828125 197.945312 633.265625 C 197.945312 635.707031 199.933594 637.691406 202.375 637.691406 C 204.816406 637.691406 206.804688 635.707031 206.804688 633.265625 C 206.804688 630.828125 204.816406 628.84375 202.375 628.84375 " fill-opacity="1" fill-rule="nonzero"/></g><g clip-path="url(#id11)"><path fill="#2a9f5d" d="M 227.589844 628.84375 C 225.144531 628.84375 223.160156 630.828125 223.160156 633.265625 C 223.160156 635.707031 225.144531 637.691406 227.589844 637.691406 C 230.03125 637.691406 232.015625 635.707031 232.015625 633.265625 C 232.015625 630.828125 230.03125 628.84375 227.589844 628.84375 " fill-opacity="1" fill-rule="nonzero"/></g><g clip-path="url(#id12)"><path fill="#2a9f5d" d="M 252.800781 628.84375 C 250.359375 628.84375 248.371094 630.828125 248.371094 633.265625 C 248.371094 635.707031 250.359375 637.691406 252.800781 637.691406 C 255.242188 637.691406 257.230469 635.707031 257.230469 633.265625 C 257.230469 630.828125 255.242188 628.84375 252.800781 628.84375 " fill-opacity="1" fill-rule="nonzero"/></g><g clip-path="url(#id13)"><path fill="#2a9f5d" d="M 278.011719 628.84375 C 275.570312 628.84375 273.585938 630.828125 273.585938 633.265625 C 273.585938 635.707031 275.570312 637.691406 278.011719 637.691406 C 280.453125 637.691406 282.441406 635.707031 282.441406 633.265625 C 282.441406 630.828125 280.453125 628.84375 278.011719 628.84375 " fill-opacity="1" fill-rule="nonzero"/></g><g clip-path="url(#id14)"><path fill="#2a9f5d" d="M 126.738281 654.019531 C 124.296875 654.019531 122.308594 656.003906 122.308594 658.445312 C 122.308594 660.882812 124.296875 662.867188 126.738281 662.867188 C 129.179688 662.867188 131.167969 660.882812 131.167969 658.445312 C 131.167969 656.003906 129.179688 654.019531 126.738281 654.019531 " fill-opacity="1" fill-rule="nonzero"/></g><path fill="#2a9f5d" d="M 151.953125 654.019531 C 149.507812 654.019531 147.523438 656.003906 147.523438 658.445312 C 147.523438 660.882812 149.507812 662.867188 151.953125 662.867188 C 154.394531 662.867188 156.378906 660.882812 156.378906 658.445312 C 156.378906 656.003906 154.394531 654.019531 151.953125 654.019531 " fill-opacity="1" fill-rule="nonzero"/><path fill="#2a9f5d" d="M 177.164062 654.019531 C 174.71875 654.019531 172.734375 656.003906 172.734375 658.445312 C 172.734375 660.882812 174.71875 662.867188 177.164062 662.867188 C 179.605469 662.867188 181.589844 660.882812 181.589844 658.445312 C 181.589844 656.003906 179.605469 654.019531 177.164062 654.019531 " fill-opacity="1" fill-rule="nonzero"/><path fill="#2a9f5d" d="M 202.375 654.019531 C 199.933594 654.019531 197.945312 656.003906 197.945312 658.445312 C 197.945312 660.882812 199.933594 662.867188 202.375 662.867188 C 204.816406 662.867188 206.804688 660.882812 206.804688 658.445312 C 206.804688 656.003906 204.816406 654.019531 202.375 654.019531 " fill-opacity="1" fill-rule="nonzero"/><path fill="#2a9f5d" d="M 227.589844 654.019531 C 225.144531 654.019531 223.160156 656.003906 223.160156 658.445312 C 223.160156 660.882812 225.144531 662.867188 227.589844 662.867188 C 230.03125 662.867188 232.015625 660.882812 232.015625 658.445312 C 232.015625 656.003906 230.03125 654.019531 227.589844 654.019531 " fill-opacity="1" fill-rule="nonzero"/><path fill="#2a9f5d" d="M 252.800781 654.019531 C 250.359375 654.019531 248.371094 656.003906 248.371094 658.445312 C 248.371094 660.882812 250.359375 662.867188 252.800781 662.867188 C 255.242188 662.867188 257.230469 660.882812 257.230469 658.445312 C 257.230469 656.003906 255.242188 654.019531 252.800781 654.019531 " fill-opacity="1" fill-rule="nonzero"/><path fill="#2a9f5d" d="M 278.011719 654.019531 C 275.570312 654.019531 273.585938 656.003906 273.585938 658.445312 C 273.585938 660.882812 275.570312 662.867188 278.011719 662.867188 C 280.453125 662.867188 282.441406 660.882812 282.441406 658.445312 C 282.441406 656.003906 280.453125 654.019531 278.011719 654.019531 " fill-opacity="1" fill-rule="nonzero"/><g clip-path="url(#id15)"><path fill="#2a9f5d" d="M 126.738281 679.039062 C 124.296875 679.039062 122.308594 681.023438 122.308594 683.460938 C 122.308594 685.898438 124.296875 687.882812 126.738281 687.882812 C 129.179688 687.882812 131.167969 685.898438 131.167969 683.460938 C 131.167969 681.023438 129.179688 679.039062 126.738281 679.039062 " fill-opacity="1" fill-rule="nonzero"/></g><path fill="#2a9f5d" d="M 151.953125 679.039062 C 149.507812 679.039062 147.523438 681.023438 147.523438 683.460938 C 147.523438 685.898438 149.507812 687.882812 151.953125 687.882812 C 154.394531 687.882812 156.378906 685.898438 156.378906 683.460938 C 156.378906 681.023438 154.394531 679.039062 151.953125 679.039062 " fill-opacity="1" fill-rule="nonzero"/><path fill="#2a9f5d" d="M 177.164062 679.039062 C 174.71875 679.039062 172.734375 681.023438 172.734375 683.460938 C 172.734375 685.898438 174.71875 687.882812 177.164062 687.882812 C 179.605469 687.882812 181.589844 685.898438 181.589844 683.460938 C 181.589844 681.023438 179.605469 679.039062 177.164062 679.039062 " fill-opacity="1" fill-rule="nonzero"/><path fill="#2a9f5d" d="M 202.375 679.039062 C 199.933594 679.039062 197.945312 681.023438 197.945312 683.460938 C 197.945312 685.898438 199.933594 687.882812 202.375 687.882812 C 204.816406 687.882812 206.804688 685.898438 206.804688 683.460938 C 206.804688 681.023438 204.816406 679.039062 202.375 679.039062 " fill-opacity="1" fill-rule="nonzero"/><path fill="#2a9f5d" d="M 227.589844 679.039062 C 225.144531 679.039062 223.160156 681.023438 223.160156 683.460938 C 223.160156 685.898438 225.144531 687.882812 227.589844 687.882812 C 230.03125 687.882812 232.015625 685.898438 232.015625 683.460938 C 232.015625 681.023438 230.03125 679.039062 227.589844 679.039062 " fill-opacity="1" fill-rule="nonzero"/><path fill="#2a9f5d" d="M 252.800781 679.039062 C 250.359375 679.039062 248.371094 681.023438 248.371094 683.460938 C 248.371094 685.898438 250.359375 687.882812 252.800781 687.882812 C 255.242188 687.882812 257.230469 685.898438 257.230469 683.460938 C 257.230469 681.023438 255.242188 679.039062 252.800781 679.039062 " fill-opacity="1" fill-rule="nonzero"/><path fill="#2a9f5d" d="M 278.011719 679.039062 C 275.570312 679.039062 273.585938 681.023438 273.585938 683.460938 C 273.585938 685.898438 275.570312 687.882812 278.011719 687.882812 C 280.453125 687.882812 282.441406 685.898438 282.441406 683.460938 C 282.441406 681.023438 280.453125 679.039062 278.011719 679.039062 " fill-opacity="1" fill-rule="nonzero"/><g clip-path="url(#id16)"><path fill="#2a9f5d" d="M 126.738281 704.21875 C 124.296875 704.21875 122.308594 706.203125 122.308594 708.640625 C 122.308594 711.082031 124.296875 713.066406 126.738281 713.066406 C 129.179688 713.066406 131.167969 711.082031 131.167969 708.640625 C 131.167969 706.203125 129.179688 704.21875 126.738281 704.21875 " fill-opacity="1" fill-rule="nonzero"/></g><path fill="#2a9f5d" d="M 151.953125 704.21875 C 149.507812 704.21875 147.523438 706.203125 147.523438 708.640625 C 147.523438 711.082031 149.507812 713.066406 151.953125 713.066406 C 154.394531 713.066406 156.378906 711.082031 156.378906 708.640625 C 156.378906 706.203125 154.394531 704.21875 151.953125 704.21875 " fill-opacity="1" fill-rule="nonzero"/><path fill="#2a9f5d" d="M 177.164062 704.21875 C 174.71875 704.21875 172.734375 706.203125 172.734375 708.640625 C 172.734375 711.082031 174.71875 713.066406 177.164062 713.066406 C 179.605469 713.066406 181.589844 711.082031 181.589844 708.640625 C 181.589844 706.203125 179.605469 704.21875 177.164062 704.21875 " fill-opacity="1" fill-rule="nonzero"/><path fill="#2a9f5d" d="M 202.375 704.21875 C 199.933594 704.21875 197.945312 706.203125 197.945312 708.640625 C 197.945312 711.082031 199.933594 713.066406 202.375 713.066406 C 204.816406 713.066406 206.804688 711.082031 206.804688 708.640625 C 206.804688 706.203125 204.816406 704.21875 202.375 704.21875 " fill-opacity="1" fill-rule="nonzero"/><path fill="#2a9f5d" d="M 227.589844 704.21875 C 225.144531 704.21875 223.160156 706.203125 223.160156 708.640625 C 223.160156 711.082031 225.144531 713.066406 227.589844 713.066406 C 230.03125 713.066406 232.015625 711.082031 232.015625 708.640625 C 232.015625 706.203125 230.03125 704.21875 227.589844 704.21875 " fill-opacity="1" fill-rule="nonzero"/><path fill="#2a9f5d" d="M 252.800781 704.21875 C 250.359375 704.21875 248.371094 706.203125 248.371094 708.640625 C 248.371094 711.082031 250.359375 713.066406 252.800781 713.066406 C 255.242188 713.066406 257.230469 711.082031 257.230469 708.640625 C 257.230469 706.203125 255.242188 704.21875 252.800781 704.21875 " fill-opacity="1" fill-rule="nonzero"/><path fill="#2a9f5d" d="M 278.011719 704.21875 C 275.570312 704.21875 273.585938 706.203125 273.585938 708.640625 C 273.585938 711.082031 275.570312 713.066406 278.011719 713.066406 C 280.453125 713.066406 282.441406 711.082031 282.441406 708.640625 C 282.441406 706.203125 280.453125 704.21875 278.011719 704.21875 " fill-opacity="1" fill-rule="nonzero"/><g clip-path="url(#id17)"><path fill="#2a9f5d" d="M 126.738281 729.394531 C 124.296875 729.394531 122.308594 731.378906 122.308594 733.816406 C 122.308594 736.253906 124.296875 738.238281 126.738281 738.238281 C 129.179688 738.238281 131.167969 736.253906 131.167969 733.816406 C 131.167969 731.378906 129.179688 729.394531 126.738281 729.394531 " fill-opacity="1" fill-rule="nonzero"/></g><path fill="#2a9f5d" d="M 151.953125 729.394531 C 149.507812 729.394531 147.523438 731.378906 147.523438 733.816406 C 147.523438 736.253906 149.507812 738.238281 151.953125 738.238281 C 154.394531 738.238281 156.378906 736.253906 156.378906 733.816406 C 156.378906 731.378906 154.394531 729.394531 151.953125 729.394531 " fill-opacity="1" fill-rule="nonzero"/><path fill="#2a9f5d" d="M 177.164062 729.394531 C 174.71875 729.394531 172.734375 731.378906 172.734375 733.816406 C 172.734375 736.253906 174.71875 738.238281 177.164062 738.238281 C 179.605469 738.238281 181.589844 736.253906 181.589844 733.816406 C 181.589844 731.378906 179.605469 729.394531 177.164062 729.394531 " fill-opacity="1" fill-rule="nonzero"/><path fill="#2a9f5d" d="M 202.375 729.394531 C 199.933594 729.394531 197.945312 731.378906 197.945312 733.816406 C 197.945312 736.253906 199.933594 738.238281 202.375 738.238281 C 204.816406 738.238281 206.804688 736.253906 206.804688 733.816406 C 206.804688 731.378906 204.816406 729.394531 202.375 729.394531 " fill-opacity="1" fill-rule="nonzero"/><path fill="#2a9f5d" d="M 227.589844 729.394531 C 225.144531 729.394531 223.160156 731.378906 223.160156 733.816406 C 223.160156 736.253906 225.144531 738.238281 227.589844 738.238281 C 230.03125 738.238281 232.015625 736.253906 232.015625 733.816406 C 232.015625 731.378906 230.03125 729.394531 227.589844 729.394531 " fill-opacity="1" fill-rule="nonzero"/><path fill="#2a9f5d" d="M 252.800781 729.394531 C 250.359375 729.394531 248.371094 731.378906 248.371094 733.816406 C 248.371094 736.253906 250.359375 738.238281 252.800781 738.238281 C 255.242188 738.238281 257.230469 736.253906 257.230469 733.816406 C 257.230469 731.378906 255.242188 729.394531 252.800781 729.394531 " fill-opacity="1" fill-rule="nonzero"/><path fill="#2a9f5d" d="M 278.011719 729.394531 C 275.570312 729.394531 273.585938 731.378906 273.585938 733.816406 C 273.585938 736.253906 275.570312 738.238281 278.011719 738.238281 C 280.453125 738.238281 282.441406 736.253906 282.441406 733.816406 C 282.441406 731.378906 280.453125 729.394531 278.011719 729.394531 " fill-opacity="1" fill-rule="nonzero"/><g clip-path="url(#id18)"><path fill="#2a9f5d" d="M 126.738281 754.410156 C 124.296875 754.410156 122.308594 756.394531 122.308594 758.835938 C 122.308594 761.273438 124.296875 763.257812 126.738281 763.257812 C 129.179688 763.257812 131.167969 761.273438 131.167969 758.835938 C 131.167969 756.394531 129.179688 754.410156 126.738281 754.410156 " fill-opacity="1" fill-rule="nonzero"/></g><path fill="#2a9f5d" d="M 151.953125 754.410156 C 149.507812 754.410156 147.523438 756.394531 147.523438 758.835938 C 147.523438 761.273438 149.507812 763.257812 151.953125 763.257812 C 154.394531 763.257812 156.378906 761.273438 156.378906 758.835938 C 156.378906 756.394531 154.394531 754.410156 151.953125 754.410156 " fill-opacity="1" fill-rule="nonzero"/><path fill="#2a9f5d" d="M 177.164062 754.410156 C 174.71875 754.410156 172.734375 756.394531 172.734375 758.835938 C 172.734375 761.273438 174.71875 763.257812 177.164062 763.257812 C 179.605469 763.257812 181.589844 761.273438 181.589844 758.835938 C 181.589844 756.394531 179.605469 754.410156 177.164062 754.410156 " fill-opacity="1" fill-rule="nonzero"/><path fill="#2a9f5d" d="M 202.375 754.410156 C 199.933594 754.410156 197.945312 756.394531 197.945312 758.835938 C 197.945312 761.273438 199.933594 763.257812 202.375 763.257812 C 204.816406 763.257812 206.804688 761.273438 206.804688 758.835938 C 206.804688 756.394531 204.816406 754.410156 202.375 754.410156 " fill-opacity="1" fill-rule="nonzero"/><path fill="#2a9f5d" d="M 227.589844 754.410156 C 225.144531 754.410156 223.160156 756.394531 223.160156 758.835938 C 223.160156 761.273438 225.144531 763.257812 227.589844 763.257812 C 230.03125 763.257812 232.015625 761.273438 232.015625 758.835938 C 232.015625 756.394531 230.03125 754.410156 227.589844 754.410156 " fill-opacity="1" fill-rule="nonzero"/><path fill="#2a9f5d" d="M 252.800781 754.410156 C 250.359375 754.410156 248.371094 756.394531 248.371094 758.835938 C 248.371094 761.273438 250.359375 763.257812 252.800781 763.257812 C 255.242188 763.257812 257.230469 761.273438 257.230469 758.835938 C 257.230469 756.394531 255.242188 754.410156 252.800781 754.410156 " fill-opacity="1" fill-rule="nonzero"/><path fill="#2a9f5d" d="M 278.011719 754.410156 C 275.570312 754.410156 273.585938 756.394531 273.585938 758.835938 C 273.585938 761.273438 275.570312 763.257812 278.011719 763.257812 C 280.453125 763.257812 282.441406 761.273438 282.441406 758.835938 C 282.441406 756.394531 280.453125 754.410156 278.011719 754.410156 " fill-opacity="1" fill-rule="nonzero"/><g clip-path="url(#id19)"><path fill="#2a9f5d" d="M 126.738281 779.75 C 124.296875 779.75 122.308594 781.734375 122.308594 784.171875 C 122.308594 786.613281 124.296875 788.59375 126.738281 788.59375 C 129.179688 788.59375 131.167969 786.613281 131.167969 784.171875 C 131.167969 781.734375 129.179688 779.75 126.738281 779.75 " fill-opacity="1" fill-rule="nonzero"/></g><g clip-path="url(#id20)"><path fill="#2a9f5d" d="M 151.953125 779.75 C 149.507812 779.75 147.523438 781.734375 147.523438 784.171875 C 147.523438 786.613281 149.507812 788.59375 151.953125 788.59375 C 154.394531 788.59375 156.378906 786.613281 156.378906 784.171875 C 156.378906 781.734375 154.394531 779.75 151.953125 779.75 " fill-opacity="1" fill-rule="nonzero"/></g><g clip-path="url(#id21)"><path fill="#2a9f5d" d="M 177.164062 779.75 C 174.71875 779.75 172.734375 781.734375 172.734375 784.171875 C 172.734375 786.613281 174.71875 788.59375 177.164062 788.59375 C 179.605469 788.59375 181.589844 786.613281 181.589844 784.171875 C 181.589844 781.734375 179.605469 779.75 177.164062 779.75 " fill-opacity="1" fill-rule="nonzero"/></g><g clip-path="url(#id22)"><path fill="#2a9f5d" d="M 202.375 779.75 C 199.933594 779.75 197.945312 781.734375 197.945312 784.171875 C 197.945312 786.613281 199.933594 788.59375 202.375 788.59375 C 204.816406 788.59375 206.804688 786.613281 206.804688 784.171875 C 206.804688 781.734375 204.816406 779.75 202.375 779.75 " fill-opacity="1" fill-rule="nonzero"/></g><g clip-path="url(#id23)"><path fill="#2a9f5d" d="M 227.589844 779.75 C 225.144531 779.75 223.160156 781.734375 223.160156 784.171875 C 223.160156 786.613281 225.144531 788.59375 227.589844 788.59375 C 230.03125 788.59375 232.015625 786.613281 232.015625 784.171875 C 232.015625 781.734375 230.03125 779.75 227.589844 779.75 " fill-opacity="1" fill-rule="nonzero"/></g><g clip-path="url(#id24)"><path fill="#2a9f5d" d="M 252.800781 779.75 C 250.359375 779.75 248.371094 781.734375 248.371094 784.171875 C 248.371094 786.613281 250.359375 788.59375 252.800781 788.59375 C 255.242188 788.59375 257.230469 786.613281 257.230469 784.171875 C 257.230469 781.734375 255.242188 779.75 252.800781 779.75 " fill-opacity="1" fill-rule="nonzero"/></g><g clip-path="url(#id25)"><path fill="#2a9f5d" d="M 278.011719 779.75 C 275.570312 779.75 273.585938 781.734375 273.585938 784.171875 C 273.585938 786.613281 275.570312 788.59375 278.011719 788.59375 C 280.453125 788.59375 282.441406 786.613281 282.441406 784.171875 C 282.441406 781.734375 280.453125 779.75 278.011719 779.75 " fill-opacity="1" fill-rule="nonzero"/></g><g clip-path="url(#id26)"><path fill="#2a9f5d" d="M 303.214844 628.84375 C 300.773438 628.84375 298.789062 630.828125 298.789062 633.265625 C 298.789062 635.707031 300.773438 637.691406 303.214844 637.691406 C 305.65625 637.691406 307.644531 635.707031 307.644531 633.265625 C 307.644531 630.828125 305.65625 628.84375 303.214844 628.84375 " fill-opacity="1" fill-rule="nonzero"/></g><g clip-path="url(#id27)"><path fill="#2a9f5d" d="M 328.429688 628.84375 C 325.984375 628.84375 324 630.828125 324 633.265625 C 324 635.707031 325.984375 637.691406 328.429688 637.691406 C 330.871094 637.691406 332.855469 635.707031 332.855469 633.265625 C 332.855469 630.828125 330.871094 628.84375 328.429688 628.84375 " fill-opacity="1" fill-rule="nonzero"/></g><g clip-path="url(#id28)"><path fill="#2a9f5d" d="M 353.640625 628.84375 C 351.199219 628.84375 349.214844 630.828125 349.214844 633.265625 C 349.214844 635.707031 351.199219 637.691406 353.640625 637.691406 C 356.082031 637.691406 358.070312 635.707031 358.070312 633.265625 C 358.070312 630.828125 356.082031 628.84375 353.640625 628.84375 " fill-opacity="1" fill-rule="nonzero"/></g><g clip-path="url(#id29)"><path fill="#2a9f5d" d="M 378.855469 628.84375 C 376.410156 628.84375 374.425781 630.828125 374.425781 633.265625 C 374.425781 635.707031 376.410156 637.691406 378.855469 637.691406 C 381.296875 637.691406 383.28125 635.707031 383.28125 633.265625 C 383.28125 630.828125 381.296875 628.84375 378.855469 628.84375 " fill-opacity="1" fill-rule="nonzero"/></g><g clip-path="url(#id30)"><path fill="#2a9f5d" d="M 404.066406 628.84375 C 401.625 628.84375 399.636719 630.828125 399.636719 633.265625 C 399.636719 635.707031 401.625 637.691406 404.066406 637.691406 C 406.507812 637.691406 408.496094 635.707031 408.496094 633.265625 C 408.496094 630.828125 406.507812 628.84375 404.066406 628.84375 " fill-opacity="1" fill-rule="nonzero"/></g><g clip-path="url(#id31)"><path fill="#2a9f5d" d="M 429.277344 628.84375 C 426.835938 628.84375 424.851562 630.828125 424.851562 633.265625 C 424.851562 635.707031 426.835938 637.691406 429.277344 637.691406 C 431.71875 637.691406 433.707031 635.707031 433.707031 633.265625 C 433.707031 630.828125 431.71875 628.84375 429.277344 628.84375 " fill-opacity="1" fill-rule="nonzero"/></g><g clip-path="url(#id32)"><path fill="#2a9f5d" d="M 454.492188 637.691406 C 456.933594 637.691406 458.917969 635.707031 458.917969 633.265625 C 458.917969 630.828125 456.933594 628.84375 454.492188 628.84375 C 452.050781 628.84375 450.0625 630.828125 450.0625 633.265625 C 450.0625 635.707031 452.050781 637.691406 454.492188 637.691406 " fill-opacity="1" fill-rule="nonzero"/></g><path fill="#2a9f5d" d="M 303.214844 654.019531 C 300.773438 654.019531 298.789062 656.003906 298.789062 658.445312 C 298.789062 660.882812 300.773438 662.867188 303.214844 662.867188 C 305.65625 662.867188 307.644531 660.882812 307.644531 658.445312 C 307.644531 656.003906 305.65625 654.019531 303.214844 654.019531 " fill-opacity="1" fill-rule="nonzero"/><path fill="#2a9f5d" d="M 328.429688 654.019531 C 325.984375 654.019531 324 656.003906 324 658.445312 C 324 660.882812 325.984375 662.867188 328.429688 662.867188 C 330.871094 662.867188 332.855469 660.882812 332.855469 658.445312 C 332.855469 656.003906 330.871094 654.019531 328.429688 654.019531 " fill-opacity="1" fill-rule="nonzero"/><path fill="#2a9f5d" d="M 353.640625 654.019531 C 351.199219 654.019531 349.214844 656.003906 349.214844 658.445312 C 349.214844 660.882812 351.199219 662.867188 353.640625 662.867188 C 356.082031 662.867188 358.070312 660.882812 358.070312 658.445312 C 358.070312 656.003906 356.082031 654.019531 353.640625 654.019531 " fill-opacity="1" fill-rule="nonzero"/><path fill="#2a9f5d" d="M 378.855469 654.019531 C 376.410156 654.019531 374.425781 656.003906 374.425781 658.445312 C 374.425781 660.882812 376.410156 662.867188 378.855469 662.867188 C 381.296875 662.867188 383.28125 660.882812 383.28125 658.445312 C 383.28125 656.003906 381.296875 654.019531 378.855469 654.019531 " fill-opacity="1" fill-rule="nonzero"/><path fill="#2a9f5d" d="M 404.066406 654.019531 C 401.625 654.019531 399.636719 656.003906 399.636719 658.445312 C 399.636719 660.882812 401.625 662.867188 404.066406 662.867188 C 406.507812 662.867188 408.496094 660.882812 408.496094 658.445312 C 408.496094 656.003906 406.507812 654.019531 404.066406 654.019531 " fill-opacity="1" fill-rule="nonzero"/><path fill="#2a9f5d" d="M 429.277344 654.019531 C 426.835938 654.019531 424.851562 656.003906 424.851562 658.445312 C 424.851562 660.882812 426.835938 662.867188 429.277344 662.867188 C 431.71875 662.867188 433.707031 660.882812 433.707031 658.445312 C 433.707031 656.003906 431.71875 654.019531 429.277344 654.019531 " fill-opacity="1" fill-rule="nonzero"/><g clip-path="url(#id33)"><path fill="#2a9f5d" d="M 454.492188 654.019531 C 452.050781 654.019531 450.0625 656.003906 450.0625 658.445312 C 450.0625 660.882812 452.050781 662.867188 454.492188 662.867188 C 456.933594 662.867188 458.917969 660.882812 458.917969 658.445312 C 458.917969 656.003906 456.933594 654.019531 454.492188 654.019531 " fill-opacity="1" fill-rule="nonzero"/></g><path fill="#2a9f5d" d="M 303.214844 679.039062 C 300.773438 679.039062 298.789062 681.023438 298.789062 683.460938 C 298.789062 685.898438 300.773438 687.882812 303.214844 687.882812 C 305.65625 687.882812 307.644531 685.898438 307.644531 683.460938 C 307.644531 681.023438 305.65625 679.039062 303.214844 679.039062 " fill-opacity="1" fill-rule="nonzero"/><path fill="#2a9f5d" d="M 328.429688 679.039062 C 325.984375 679.039062 324 681.023438 324 683.460938 C 324 685.898438 325.984375 687.882812 328.429688 687.882812 C 330.871094 687.882812 332.855469 685.898438 332.855469 683.460938 C 332.855469 681.023438 330.871094 679.039062 328.429688 679.039062 " fill-opacity="1" fill-rule="nonzero"/><path fill="#2a9f5d" d="M 353.640625 679.039062 C 351.199219 679.039062 349.214844 681.023438 349.214844 683.460938 C 349.214844 685.898438 351.199219 687.882812 353.640625 687.882812 C 356.082031 687.882812 358.070312 685.898438 358.070312 683.460938 C 358.070312 681.023438 356.082031 679.039062 353.640625 679.039062 " fill-opacity="1" fill-rule="nonzero"/><path fill="#2a9f5d" d="M 378.855469 679.039062 C 376.410156 679.039062 374.425781 681.023438 374.425781 683.460938 C 374.425781 685.898438 376.410156 687.882812 378.855469 687.882812 C 381.296875 687.882812 383.28125 685.898438 383.28125 683.460938 C 383.28125 681.023438 381.296875 679.039062 378.855469 679.039062 " fill-opacity="1" fill-rule="nonzero"/><path fill="#2a9f5d" d="M 404.066406 679.039062 C 401.625 679.039062 399.636719 681.023438 399.636719 683.460938 C 399.636719 685.898438 401.625 687.882812 404.066406 687.882812 C 406.507812 687.882812 408.496094 685.898438 408.496094 683.460938 C 408.496094 681.023438 406.507812 679.039062 404.066406 679.039062 " fill-opacity="1" fill-rule="nonzero"/><path fill="#2a9f5d" d="M 429.277344 679.039062 C 426.835938 679.039062 424.851562 681.023438 424.851562 683.460938 C 424.851562 685.898438 426.835938 687.882812 429.277344 687.882812 C 431.71875 687.882812 433.707031 685.898438 433.707031 683.460938 C 433.707031 681.023438 431.71875 679.039062 429.277344 679.039062 " fill-opacity="1" fill-rule="nonzero"/><g clip-path="url(#id34)"><path fill="#2a9f5d" d="M 454.492188 679.039062 C 452.050781 679.039062 450.0625 681.023438 450.0625 683.460938 C 450.0625 685.898438 452.050781 687.882812 454.492188 687.882812 C 456.933594 687.882812 458.917969 685.898438 458.917969 683.460938 C 458.917969 681.023438 456.933594 679.039062 454.492188 679.039062 " fill-opacity="1" fill-rule="nonzero"/></g><path fill="#2a9f5d" d="M 303.214844 704.21875 C 300.773438 704.21875 298.789062 706.203125 298.789062 708.640625 C 298.789062 711.082031 300.773438 713.066406 303.214844 713.066406 C 305.65625 713.066406 307.644531 711.082031 307.644531 708.640625 C 307.644531 706.203125 305.65625 704.21875 303.214844 704.21875 " fill-opacity="1" fill-rule="nonzero"/><path fill="#2a9f5d" d="M 328.429688 704.21875 C 325.984375 704.21875 324 706.203125 324 708.640625 C 324 711.082031 325.984375 713.066406 328.429688 713.066406 C 330.871094 713.066406 332.855469 711.082031 332.855469 708.640625 C 332.855469 706.203125 330.871094 704.21875 328.429688 704.21875 " fill-opacity="1" fill-rule="nonzero"/><path fill="#2a9f5d" d="M 353.640625 704.21875 C 351.199219 704.21875 349.214844 706.203125 349.214844 708.640625 C 349.214844 711.082031 351.199219 713.066406 353.640625 713.066406 C 356.082031 713.066406 358.070312 711.082031 358.070312 708.640625 C 358.070312 706.203125 356.082031 704.21875 353.640625 704.21875 " fill-opacity="1" fill-rule="nonzero"/><path fill="#2a9f5d" d="M 378.855469 704.21875 C 376.410156 704.21875 374.425781 706.203125 374.425781 708.640625 C 374.425781 711.082031 376.410156 713.066406 378.855469 713.066406 C 381.296875 713.066406 383.28125 711.082031 383.28125 708.640625 C 383.28125 706.203125 381.296875 704.21875 378.855469 704.21875 " fill-opacity="1" fill-rule="nonzero"/><path fill="#2a9f5d" d="M 404.066406 704.21875 C 401.625 704.21875 399.636719 706.203125 399.636719 708.640625 C 399.636719 711.082031 401.625 713.066406 404.066406 713.066406 C 406.507812 713.066406 408.496094 711.082031 408.496094 708.640625 C 408.496094 706.203125 406.507812 704.21875 404.066406 704.21875 " fill-opacity="1" fill-rule="nonzero"/><path fill="#2a9f5d" d="M 429.277344 704.21875 C 426.835938 704.21875 424.851562 706.203125 424.851562 708.640625 C 424.851562 711.082031 426.835938 713.066406 429.277344 713.066406 C 431.71875 713.066406 433.707031 711.082031 433.707031 708.640625 C 433.707031 706.203125 431.71875 704.21875 429.277344 704.21875 " fill-opacity="1" fill-rule="nonzero"/><g clip-path="url(#id35)"><path fill="#2a9f5d" d="M 454.492188 704.21875 C 452.050781 704.21875 450.0625 706.203125 450.0625 708.640625 C 450.0625 711.082031 452.050781 713.066406 454.492188 713.066406 C 456.933594 713.066406 458.917969 711.082031 458.917969 708.640625 C 458.917969 706.203125 456.933594 704.21875 454.492188 704.21875 " fill-opacity="1" fill-rule="nonzero"/></g><path fill="#2a9f5d" d="M 303.214844 729.394531 C 300.773438 729.394531 298.789062 731.378906 298.789062 733.816406 C 298.789062 736.253906 300.773438 738.238281 303.214844 738.238281 C 305.65625 738.238281 307.644531 736.253906 307.644531 733.816406 C 307.644531 731.378906 305.65625 729.394531 303.214844 729.394531 " fill-opacity="1" fill-rule="nonzero"/><path fill="#2a9f5d" d="M 328.429688 729.394531 C 325.984375 729.394531 324 731.378906 324 733.816406 C 324 736.253906 325.984375 738.238281 328.429688 738.238281 C 330.871094 738.238281 332.855469 736.253906 332.855469 733.816406 C 332.855469 731.378906 330.871094 729.394531 328.429688 729.394531 " fill-opacity="1" fill-rule="nonzero"/><path fill="#2a9f5d" d="M 353.640625 729.394531 C 351.199219 729.394531 349.214844 731.378906 349.214844 733.816406 C 349.214844 736.253906 351.199219 738.238281 353.640625 738.238281 C 356.082031 738.238281 358.070312 736.253906 358.070312 733.816406 C 358.070312 731.378906 356.082031 729.394531 353.640625 729.394531 " fill-opacity="1" fill-rule="nonzero"/><path fill="#2a9f5d" d="M 378.855469 729.394531 C 376.410156 729.394531 374.425781 731.378906 374.425781 733.816406 C 374.425781 736.253906 376.410156 738.238281 378.855469 738.238281 C 381.296875 738.238281 383.28125 736.253906 383.28125 733.816406 C 383.28125 731.378906 381.296875 729.394531 378.855469 729.394531 " fill-opacity="1" fill-rule="nonzero"/><path fill="#2a9f5d" d="M 404.066406 729.394531 C 401.625 729.394531 399.636719 731.378906 399.636719 733.816406 C 399.636719 736.253906 401.625 738.238281 404.066406 738.238281 C 406.507812 738.238281 408.496094 736.253906 408.496094 733.816406 C 408.496094 731.378906 406.507812 729.394531 404.066406 729.394531 " fill-opacity="1" fill-rule="nonzero"/><path fill="#2a9f5d" d="M 429.277344 729.394531 C 426.835938 729.394531 424.851562 731.378906 424.851562 733.816406 C 424.851562 736.253906 426.835938 738.238281 429.277344 738.238281 C 431.71875 738.238281 433.707031 736.253906 433.707031 733.816406 C 433.707031 731.378906 431.71875 729.394531 429.277344 729.394531 " fill-opacity="1" fill-rule="nonzero"/><g clip-path="url(#id36)"><path fill="#2a9f5d" d="M 454.492188 729.394531 C 452.050781 729.394531 450.0625 731.378906 450.0625 733.816406 C 450.0625 736.253906 452.050781 738.238281 454.492188 738.238281 C 456.933594 738.238281 458.917969 736.253906 458.917969 733.816406 C 458.917969 731.378906 456.933594 729.394531 454.492188 729.394531 " fill-opacity="1" fill-rule="nonzero"/></g><path fill="#2a9f5d" d="M 303.214844 754.410156 C 300.773438 754.410156 298.789062 756.394531 298.789062 758.835938 C 298.789062 761.273438 300.773438 763.257812 303.214844 763.257812 C 305.65625 763.257812 307.644531 761.273438 307.644531 758.835938 C 307.644531 756.394531 305.65625 754.410156 303.214844 754.410156 " fill-opacity="1" fill-rule="nonzero"/><path fill="#2a9f5d" d="M 328.429688 754.410156 C 325.984375 754.410156 324 756.394531 324 758.835938 C 324 761.273438 325.984375 763.257812 328.429688 763.257812 C 330.871094 763.257812 332.855469 761.273438 332.855469 758.835938 C 332.855469 756.394531 330.871094 754.410156 328.429688 754.410156 " fill-opacity="1" fill-rule="nonzero"/><path fill="#2a9f5d" d="M 353.640625 754.410156 C 351.199219 754.410156 349.214844 756.394531 349.214844 758.835938 C 349.214844 761.273438 351.199219 763.257812 353.640625 763.257812 C 356.082031 763.257812 358.070312 761.273438 358.070312 758.835938 C 358.070312 756.394531 356.082031 754.410156 353.640625 754.410156 " fill-opacity="1" fill-rule="nonzero"/><path fill="#2a9f5d" d="M 378.855469 754.410156 C 376.410156 754.410156 374.425781 756.394531 374.425781 758.835938 C 374.425781 761.273438 376.410156 763.257812 378.855469 763.257812 C 381.296875 763.257812 383.28125 761.273438 383.28125 758.835938 C 383.28125 756.394531 381.296875 754.410156 378.855469 754.410156 " fill-opacity="1" fill-rule="nonzero"/><path fill="#2a9f5d" d="M 404.066406 754.410156 C 401.625 754.410156 399.636719 756.394531 399.636719 758.835938 C 399.636719 761.273438 401.625 763.257812 404.066406 763.257812 C 406.507812 763.257812 408.496094 761.273438 408.496094 758.835938 C 408.496094 756.394531 406.507812 754.410156 404.066406 754.410156 " fill-opacity="1" fill-rule="nonzero"/><path fill="#2a9f5d" d="M 429.277344 754.410156 C 426.835938 754.410156 424.851562 756.394531 424.851562 758.835938 C 424.851562 761.273438 426.835938 763.257812 429.277344 763.257812 C 431.71875 763.257812 433.707031 761.273438 433.707031 758.835938 C 433.707031 756.394531 431.71875 754.410156 429.277344 754.410156 " fill-opacity="1" fill-rule="nonzero"/><g clip-path="url(#id37)"><path fill="#2a9f5d" d="M 454.492188 754.410156 C 452.050781 754.410156 450.0625 756.394531 450.0625 758.835938 C 450.0625 761.273438 452.050781 763.257812 454.492188 763.257812 C 456.933594 763.257812 458.917969 761.273438 458.917969 758.835938 C 458.917969 756.394531 456.933594 754.410156 454.492188 754.410156 " fill-opacity="1" fill-rule="nonzero"/></g><g clip-path="url(#id38)"><path fill="#2a9f5d" d="M 303.214844 779.75 C 300.773438 779.75 298.789062 781.734375 298.789062 784.171875 C 298.789062 786.613281 300.773438 788.59375 303.214844 788.59375 C 305.65625 788.59375 307.644531 786.613281 307.644531 784.171875 C 307.644531 781.734375 305.65625 779.75 303.214844 779.75 " fill-opacity="1" fill-rule="nonzero"/></g><g clip-path="url(#id39)"><path fill="#2a9f5d" d="M 328.429688 779.75 C 325.984375 779.75 324 781.734375 324 784.171875 C 324 786.613281 325.984375 788.59375 328.429688 788.59375 C 330.871094 788.59375 332.855469 786.613281 332.855469 784.171875 C 332.855469 781.734375 330.871094 779.75 328.429688 779.75 " fill-opacity="1" fill-rule="nonzero"/></g><g clip-path="url(#id40)"><path fill="#2a9f5d" d="M 353.640625 779.75 C 351.199219 779.75 349.214844 781.734375 349.214844 784.171875 C 349.214844 786.613281 351.199219 788.59375 353.640625 788.59375 C 356.082031 788.59375 358.070312 786.613281 358.070312 784.171875 C 358.070312 781.734375 356.082031 779.75 353.640625 779.75 " fill-opacity="1" fill-rule="nonzero"/></g><g clip-path="url(#id41)"><path fill="#2a9f5d" d="M 378.855469 779.75 C 376.410156 779.75 374.425781 781.734375 374.425781 784.171875 C 374.425781 786.613281 376.410156 788.59375 378.855469 788.59375 C 381.296875 788.59375 383.28125 786.613281 383.28125 784.171875 C 383.28125 781.734375 381.296875 779.75 378.855469 779.75 " fill-opacity="1" fill-rule="nonzero"/></g><g clip-path="url(#id42)"><path fill="#2a9f5d" d="M 404.066406 779.75 C 401.625 779.75 399.636719 781.734375 399.636719 784.171875 C 399.636719 786.613281 401.625 788.59375 404.066406 788.59375 C 406.507812 788.59375 408.496094 786.613281 408.496094 784.171875 C 408.496094 781.734375 406.507812 779.75 404.066406 779.75 " fill-opacity="1" fill-rule="nonzero"/></g><g clip-path="url(#id43)"><path fill="#2a9f5d" d="M 429.277344 779.75 C 426.835938 779.75 424.851562 781.734375 424.851562 784.171875 C 424.851562 786.613281 426.835938 788.59375 429.277344 788.59375 C 431.71875 788.59375 433.707031 786.613281 433.707031 784.171875 C 433.707031 781.734375 431.71875 779.75 429.277344 779.75 " fill-opacity="1" fill-rule="nonzero"/></g><g clip-path="url(#id44)"><path fill="#2a9f5d" d="M 454.492188 779.75 C 452.050781 779.75 450.0625 781.734375 450.0625 784.171875 C 450.0625 786.613281 452.050781 788.59375 454.492188 788.59375 C 456.933594 788.59375 458.917969 786.613281 458.917969 784.171875 C 458.917969 781.734375 456.933594 779.75 454.492188 779.75 " fill-opacity="1" fill-rule="nonzero"/></g><g clip-path="url(#id45)"><path fill="#299640" d="M 1242.675781 802.128906 C 1242.992188 802.125 1243.292969 802.1875 1243.585938 802.304688 C 1243.875 802.425781 1244.132812 802.59375 1244.355469 802.816406 C 1244.578125 803.035156 1244.75 803.292969 1244.871094 803.582031 C 1244.992188 803.871094 1245.054688 804.171875 1245.054688 804.484375 C 1245.054688 804.796875 1244.996094 805.101562 1244.875 805.390625 C 1244.753906 805.679688 1244.582031 805.933594 1244.363281 806.15625 C 1244.140625 806.378906 1243.882812 806.550781 1243.59375 806.671875 C 1243.300781 806.789062 1243 806.851562 1242.6875 806.851562 C 1242.371094 806.851562 1242.070312 806.792969 1241.777344 806.671875 C 1241.488281 806.550781 1241.230469 806.382812 1241.007812 806.160156 C 1240.785156 805.9375 1240.613281 805.683594 1240.492188 805.394531 C 1240.375 805.105469 1240.3125 804.804688 1240.3125 804.488281 C 1240.3125 804.175781 1240.371094 803.875 1240.492188 803.585938 C 1240.613281 803.296875 1240.78125 803.042969 1241.003906 802.820312 C 1241.226562 802.601562 1241.480469 802.429688 1241.769531 802.308594 C 1242.0625 802.1875 1242.363281 802.128906 1242.675781 802.128906 Z M 1240.3125 776.460938 C 1240.3125 776.773438 1240.371094 777.074219 1240.492188 777.367188 C 1240.609375 777.65625 1240.78125 777.910156 1241.003906 778.132812 C 1241.226562 778.355469 1241.480469 778.527344 1241.773438 778.648438 C 1242.0625 778.769531 1242.367188 778.828125 1242.679688 778.828125 C 1242.996094 778.828125 1243.296875 778.769531 1243.589844 778.648438 C 1243.878906 778.53125 1244.136719 778.359375 1244.359375 778.136719 C 1244.582031 777.914062 1244.753906 777.660156 1244.875 777.371094 C 1244.992188 777.082031 1245.054688 776.777344 1245.054688 776.464844 C 1245.054688 776.152344 1244.992188 775.851562 1244.871094 775.558594 C 1244.75 775.269531 1244.578125 775.015625 1244.355469 774.792969 C 1244.132812 774.574219 1243.875 774.402344 1243.585938 774.28125 C 1243.292969 774.164062 1242.992188 774.105469 1242.675781 774.105469 C 1242.363281 774.105469 1242.0625 774.164062 1241.773438 774.285156 C 1241.480469 774.40625 1241.226562 774.574219 1241.003906 774.796875 C 1240.785156 775.015625 1240.613281 775.269531 1240.492188 775.558594 C 1240.371094 775.847656 1240.3125 776.148438 1240.3125 776.460938 Z M 1240.3125 748.429688 C 1240.3125 748.746094 1240.371094 749.046875 1240.492188 749.335938 C 1240.609375 749.625 1240.78125 749.882812 1241.003906 750.105469 C 1241.226562 750.328125 1241.480469 750.496094 1241.773438 750.617188 C 1242.0625 750.738281 1242.367188 750.800781 1242.679688 750.800781 C 1242.996094 750.800781 1243.296875 750.738281 1243.589844 750.621094 C 1243.878906 750.5 1244.136719 750.328125 1244.359375 750.109375 C 1244.582031 749.886719 1244.753906 749.628906 1244.875 749.339844 C 1244.992188 749.050781 1245.054688 748.75 1245.054688 748.4375 C 1245.054688 748.121094 1244.992188 747.820312 1244.871094 747.53125 C 1244.75 747.242188 1244.578125 746.984375 1244.355469 746.765625 C 1244.132812 746.542969 1243.875 746.375 1243.585938 746.253906 C 1243.292969 746.132812 1242.992188 746.074219 1242.675781 746.078125 C 1242.363281 746.078125 1242.0625 746.136719 1241.773438 746.257812 C 1241.484375 746.378906 1241.230469 746.546875 1241.007812 746.769531 C 1240.785156 746.988281 1240.613281 747.242188 1240.496094 747.53125 C 1240.375 747.820312 1240.3125 748.117188 1240.3125 748.429688 Z M 1240.3125 720.410156 C 1240.316406 720.722656 1240.378906 721.019531 1240.503906 721.308594 C 1240.625 721.597656 1240.800781 721.847656 1241.023438 722.066406 C 1241.25 722.285156 1241.507812 722.453125 1241.796875 722.570312 C 1242.089844 722.6875 1242.390625 722.746094 1242.703125 722.742188 C 1243.019531 722.738281 1243.320312 722.675781 1243.609375 722.554688 C 1243.898438 722.433594 1244.152344 722.261719 1244.371094 722.039062 C 1244.589844 721.816406 1244.761719 721.558594 1244.878906 721.269531 C 1244.996094 720.980469 1245.054688 720.679688 1245.054688 720.367188 C 1245.050781 720.054688 1244.988281 719.753906 1244.867188 719.464844 C 1244.746094 719.175781 1244.574219 718.921875 1244.351562 718.703125 C 1244.128906 718.484375 1243.871094 718.3125 1243.582031 718.195312 C 1243.292969 718.078125 1242.988281 718.019531 1242.675781 718.019531 C 1242.359375 718.019531 1242.054688 718.082031 1241.765625 718.203125 C 1241.472656 718.324219 1241.214844 718.5 1240.996094 718.722656 C 1240.773438 718.949219 1240.601562 719.207031 1240.484375 719.496094 C 1240.367188 719.789062 1240.308594 720.09375 1240.3125 720.410156 Z M 1240.3125 692.378906 C 1240.3125 692.691406 1240.371094 692.996094 1240.492188 693.285156 C 1240.609375 693.574219 1240.78125 693.832031 1241.003906 694.054688 C 1241.226562 694.273438 1241.480469 694.445312 1241.773438 694.566406 C 1242.0625 694.6875 1242.367188 694.746094 1242.679688 694.75 C 1242.996094 694.75 1243.296875 694.6875 1243.589844 694.570312 C 1243.878906 694.449219 1244.136719 694.277344 1244.359375 694.054688 C 1244.582031 693.835938 1244.753906 693.578125 1244.875 693.289062 C 1244.992188 693 1245.054688 692.699219 1245.054688 692.382812 C 1245.054688 692.070312 1244.992188 691.769531 1244.871094 691.480469 C 1244.75 691.191406 1244.578125 690.933594 1244.355469 690.714844 C 1244.132812 690.492188 1243.875 690.320312 1243.585938 690.203125 C 1243.292969 690.082031 1242.992188 690.023438 1242.675781 690.023438 C 1242.363281 690.023438 1242.0625 690.085938 1241.773438 690.203125 C 1241.480469 690.324219 1241.226562 690.492188 1241.003906 690.714844 C 1240.785156 690.933594 1240.613281 691.191406 1240.492188 691.476562 C 1240.371094 691.765625 1240.3125 692.066406 1240.3125 692.378906 Z M 1240.3125 664.351562 C 1240.3125 664.664062 1240.371094 664.964844 1240.492188 665.253906 C 1240.609375 665.546875 1240.78125 665.800781 1241.003906 666.023438 C 1241.226562 666.246094 1241.480469 666.417969 1241.773438 666.539062 C 1242.0625 666.65625 1242.367188 666.71875 1242.679688 666.71875 C 1242.996094 666.71875 1243.296875 666.660156 1243.589844 666.539062 C 1243.878906 666.417969 1244.136719 666.25 1244.359375 666.027344 C 1244.582031 665.804688 1244.753906 665.550781 1244.875 665.261719 C 1244.992188 664.96875 1245.054688 664.667969 1245.054688 664.355469 C 1245.054688 664.042969 1244.992188 663.738281 1244.871094 663.449219 C 1244.75 663.160156 1244.578125 662.90625 1244.355469 662.683594 C 1244.132812 662.460938 1243.875 662.292969 1243.585938 662.171875 C 1243.292969 662.054688 1242.992188 661.996094 1242.675781 661.996094 C 1242.363281 661.996094 1242.0625 662.054688 1241.773438 662.175781 C 1241.480469 662.292969 1241.226562 662.464844 1241.003906 662.683594 C 1240.785156 662.90625 1240.613281 663.160156 1240.492188 663.449219 C 1240.371094 663.738281 1240.3125 664.039062 1240.3125 664.351562 Z M 1240.3125 636.320312 C 1240.3125 636.632812 1240.371094 636.9375 1240.492188 637.226562 C 1240.609375 637.515625 1240.78125 637.773438 1241.003906 637.996094 C 1241.226562 638.214844 1241.480469 638.386719 1241.773438 638.507812 C 1242.0625 638.628906 1242.367188 638.6875 1242.679688 638.691406 C 1242.996094 638.691406 1243.296875 638.628906 1243.589844 638.511719 C 1243.878906 638.390625 1244.136719 638.21875 1244.359375 637.996094 C 1244.582031 637.777344 1244.753906 637.519531 1244.875 637.230469 C 1244.992188 636.941406 1245.054688 636.640625 1245.054688 636.324219 C 1245.054688 636.011719 1244.992188 635.710938 1244.871094 635.421875 C 1244.75 635.132812 1244.578125 634.875 1244.355469 634.65625 C 1244.132812 634.433594 1243.875 634.261719 1243.585938 634.144531 C 1243.292969 634.023438 1242.992188 633.964844 1242.675781 633.964844 C 1242.363281 633.96875 1242.0625 634.027344 1241.773438 634.148438 C 1241.484375 634.265625 1241.230469 634.4375 1241.007812 634.65625 C 1240.785156 634.878906 1240.613281 635.132812 1240.496094 635.421875 C 1240.375 635.710938 1240.3125 636.007812 1240.3125 636.320312 Z M 1240.3125 608.296875 C 1240.3125 608.613281 1240.375 608.914062 1240.496094 609.203125 C 1240.617188 609.492188 1240.789062 609.746094 1241.011719 609.964844 C 1241.234375 610.1875 1241.492188 610.355469 1241.78125 610.476562 C 1242.074219 610.59375 1242.375 610.652344 1242.691406 610.652344 C 1243.003906 610.652344 1243.308594 610.589844 1243.597656 610.472656 C 1243.886719 610.351562 1244.144531 610.179688 1244.363281 609.957031 C 1244.585938 609.734375 1244.757812 609.480469 1244.875 609.1875 C 1244.996094 608.898438 1245.054688 608.597656 1245.054688 608.285156 C 1245.050781 607.972656 1244.992188 607.671875 1244.871094 607.382812 C 1244.75 607.09375 1244.578125 606.835938 1244.355469 606.617188 C 1244.132812 606.394531 1243.875 606.226562 1243.582031 606.105469 C 1243.292969 605.988281 1242.992188 605.929688 1242.675781 605.929688 C 1242.363281 605.929688 1242.058594 605.992188 1241.769531 606.113281 C 1241.480469 606.234375 1241.222656 606.40625 1241.003906 606.625 C 1240.78125 606.847656 1240.609375 607.105469 1240.492188 607.394531 C 1240.371094 607.683594 1240.3125 607.984375 1240.3125 608.296875 Z M 1240.3125 580.269531 C 1240.3125 580.582031 1240.371094 580.886719 1240.492188 581.175781 C 1240.609375 581.464844 1240.78125 581.722656 1241.003906 581.941406 C 1241.226562 582.164062 1241.480469 582.335938 1241.773438 582.457031 C 1242.0625 582.578125 1242.367188 582.636719 1242.679688 582.636719 C 1242.996094 582.636719 1243.296875 582.578125 1243.589844 582.457031 C 1243.878906 582.339844 1244.136719 582.167969 1244.359375 581.945312 C 1244.582031 581.726562 1244.753906 581.46875 1244.875 581.179688 C 1244.992188 580.890625 1245.054688 580.585938 1245.054688 580.273438 C 1245.054688 579.960938 1244.992188 579.660156 1244.871094 579.371094 C 1244.75 579.078125 1244.578125 578.824219 1244.355469 578.601562 C 1244.132812 578.382812 1243.875 578.210938 1243.585938 578.09375 C 1243.292969 577.972656 1242.992188 577.914062 1242.675781 577.914062 C 1242.363281 577.914062 1242.0625 577.976562 1241.773438 578.09375 C 1241.480469 578.214844 1241.226562 578.382812 1241.003906 578.605469 C 1240.785156 578.824219 1240.613281 579.078125 1240.492188 579.367188 C 1240.371094 579.65625 1240.3125 579.957031 1240.3125 580.269531 Z M 1265.488281 804.488281 C 1265.488281 804.800781 1265.550781 805.101562 1265.667969 805.390625 C 1265.789062 805.675781 1265.960938 805.929688 1266.183594 806.152344 C 1266.40625 806.371094 1266.660156 806.539062 1266.953125 806.660156 C 1267.242188 806.777344 1267.542969 806.835938 1267.855469 806.835938 C 1268.167969 806.835938 1268.46875 806.777344 1268.757812 806.65625 C 1269.046875 806.535156 1269.304688 806.367188 1269.523438 806.144531 C 1269.746094 805.925781 1269.914062 805.667969 1270.035156 805.378906 C 1270.15625 805.09375 1270.214844 804.792969 1270.214844 804.480469 C 1270.214844 804.167969 1270.152344 803.867188 1270.035156 803.578125 C 1269.914062 803.292969 1269.742188 803.039062 1269.519531 802.816406 C 1269.300781 802.597656 1269.042969 802.425781 1268.753906 802.308594 C 1268.464844 802.1875 1268.164062 802.128906 1267.851562 802.128906 C 1267.535156 802.128906 1267.234375 802.1875 1266.945312 802.308594 C 1266.65625 802.429688 1266.402344 802.601562 1266.179688 802.820312 C 1265.957031 803.042969 1265.785156 803.296875 1265.667969 803.585938 C 1265.546875 803.875 1265.488281 804.175781 1265.488281 804.488281 Z M 1265.488281 776.460938 C 1265.488281 776.773438 1265.546875 777.074219 1265.667969 777.359375 C 1265.789062 777.648438 1265.957031 777.90625 1266.179688 778.125 C 1266.402344 778.347656 1266.65625 778.515625 1266.945312 778.636719 C 1267.234375 778.753906 1267.539062 778.816406 1267.851562 778.816406 C 1268.164062 778.816406 1268.464844 778.753906 1268.753906 778.636719 C 1269.042969 778.515625 1269.300781 778.347656 1269.523438 778.125 C 1269.742188 777.90625 1269.914062 777.648438 1270.035156 777.359375 C 1270.152344 777.074219 1270.214844 776.773438 1270.214844 776.460938 C 1270.214844 776.148438 1270.152344 775.847656 1270.035156 775.558594 C 1269.914062 775.269531 1269.742188 775.015625 1269.523438 774.796875 C 1269.300781 774.574219 1269.042969 774.40625 1268.753906 774.285156 C 1268.464844 774.164062 1268.164062 774.105469 1267.851562 774.105469 C 1267.539062 774.105469 1267.234375 774.164062 1266.945312 774.285156 C 1266.65625 774.40625 1266.402344 774.574219 1266.179688 774.796875 C 1265.957031 775.015625 1265.789062 775.269531 1265.667969 775.558594 C 1265.546875 775.847656 1265.488281 776.148438 1265.488281 776.460938 Z M 1265.488281 748.429688 C 1265.488281 748.742188 1265.546875 749.042969 1265.667969 749.332031 C 1265.789062 749.621094 1265.957031 749.875 1266.179688 750.097656 C 1266.402344 750.316406 1266.65625 750.488281 1266.945312 750.605469 C 1267.234375 750.726562 1267.539062 750.785156 1267.851562 750.785156 C 1268.164062 750.785156 1268.464844 750.726562 1268.753906 750.605469 C 1269.042969 750.488281 1269.300781 750.316406 1269.523438 750.097656 C 1269.742188 749.875 1269.914062 749.621094 1270.035156 749.332031 C 1270.152344 749.042969 1270.214844 748.742188 1270.214844 748.429688 C 1270.214844 748.117188 1270.152344 747.816406 1270.035156 747.53125 C 1269.914062 747.242188 1269.742188 746.988281 1269.523438 746.765625 C 1269.300781 746.546875 1269.042969 746.375 1268.753906 746.253906 C 1268.464844 746.136719 1268.164062 746.078125 1267.851562 746.078125 C 1267.539062 746.078125 1267.238281 746.136719 1266.949219 746.257812 C 1266.660156 746.378906 1266.402344 746.546875 1266.183594 746.769531 C 1265.960938 746.988281 1265.789062 747.242188 1265.667969 747.53125 C 1265.550781 747.820312 1265.488281 748.117188 1265.488281 748.429688 Z M 1265.488281 720.410156 C 1265.492188 720.71875 1265.554688 721.019531 1265.679688 721.304688 C 1265.804688 721.589844 1265.976562 721.839844 1266.199219 722.058594 C 1266.425781 722.277344 1266.679688 722.441406 1266.96875 722.558594 C 1267.261719 722.675781 1267.5625 722.730469 1267.875 722.726562 C 1268.1875 722.726562 1268.484375 722.664062 1268.773438 722.539062 C 1269.0625 722.417969 1269.316406 722.246094 1269.535156 722.027344 C 1269.753906 721.804688 1269.921875 721.550781 1270.039062 721.261719 C 1270.15625 720.972656 1270.214844 720.671875 1270.214844 720.363281 C 1270.210938 720.050781 1270.152344 719.75 1270.03125 719.464844 C 1269.910156 719.175781 1269.738281 718.925781 1269.515625 718.703125 C 1269.296875 718.484375 1269.039062 718.316406 1268.753906 718.195312 C 1268.464844 718.078125 1268.164062 718.019531 1267.851562 718.019531 C 1267.535156 718.019531 1267.230469 718.082031 1266.9375 718.203125 C 1266.648438 718.324219 1266.390625 718.5 1266.167969 718.722656 C 1265.945312 718.949219 1265.777344 719.207031 1265.660156 719.496094 C 1265.539062 719.789062 1265.484375 720.09375 1265.488281 720.410156 Z M 1265.488281 692.378906 C 1265.488281 692.691406 1265.546875 692.992188 1265.667969 693.28125 C 1265.789062 693.570312 1265.957031 693.824219 1266.179688 694.042969 C 1266.402344 694.265625 1266.65625 694.433594 1266.945312 694.554688 C 1267.234375 694.675781 1267.539062 694.734375 1267.851562 694.734375 C 1268.164062 694.734375 1268.464844 694.675781 1268.753906 694.554688 C 1269.042969 694.433594 1269.300781 694.265625 1269.523438 694.042969 C 1269.742188 693.824219 1269.914062 693.570312 1270.035156 693.28125 C 1270.152344 692.992188 1270.214844 692.691406 1270.214844 692.378906 C 1270.214844 692.066406 1270.152344 691.765625 1270.035156 691.476562 C 1269.914062 691.191406 1269.742188 690.933594 1269.523438 690.714844 C 1269.300781 690.492188 1269.042969 690.324219 1268.753906 690.203125 C 1268.464844 690.085938 1268.164062 690.023438 1267.851562 690.023438 C 1267.539062 690.023438 1267.234375 690.085938 1266.945312 690.203125 C 1266.65625 690.324219 1266.402344 690.492188 1266.179688 690.714844 C 1265.957031 690.933594 1265.789062 691.191406 1265.667969 691.476562 C 1265.546875 691.765625 1265.488281 692.066406 1265.488281 692.378906 Z M 1265.488281 664.351562 C 1265.488281 664.664062 1265.546875 664.960938 1265.667969 665.25 C 1265.789062 665.539062 1265.957031 665.792969 1266.179688 666.015625 C 1266.402344 666.234375 1266.65625 666.40625 1266.945312 666.527344 C 1267.234375 666.644531 1267.539062 666.703125 1267.851562 666.703125 C 1268.164062 666.703125 1268.464844 666.644531 1268.753906 666.527344 C 1269.042969 666.40625 1269.300781 666.234375 1269.523438 666.015625 C 1269.742188 665.792969 1269.914062 665.539062 1270.035156 665.25 C 1270.152344 664.960938 1270.214844 664.664062 1270.214844 664.351562 C 1270.214844 664.039062 1270.152344 663.738281 1270.035156 663.449219 C 1269.914062 663.160156 1269.742188 662.90625 1269.523438 662.683594 C 1269.300781 662.464844 1269.042969 662.292969 1268.753906 662.175781 C 1268.464844 662.054688 1268.164062 661.996094 1267.851562 661.996094 C 1267.539062 661.996094 1267.234375 662.054688 1266.945312 662.175781 C 1266.65625 662.292969 1266.402344 662.464844 1266.179688 662.683594 C 1265.957031 662.90625 1265.789062 663.160156 1265.667969 663.449219 C 1265.546875 663.738281 1265.488281 664.039062 1265.488281 664.351562 Z M 1265.488281 636.320312 C 1265.488281 636.632812 1265.546875 636.933594 1265.667969 637.222656 C 1265.789062 637.511719 1265.957031 637.765625 1266.179688 637.984375 C 1266.402344 638.207031 1266.65625 638.375 1266.945312 638.496094 C 1267.234375 638.617188 1267.539062 638.675781 1267.851562 638.675781 C 1268.164062 638.675781 1268.464844 638.617188 1268.753906 638.496094 C 1269.042969 638.375 1269.300781 638.207031 1269.523438 637.984375 C 1269.742188 637.765625 1269.914062 637.511719 1270.035156 637.222656 C 1270.152344 636.933594 1270.214844 636.632812 1270.214844 636.320312 C 1270.214844 636.007812 1270.152344 635.707031 1270.035156 635.421875 C 1269.914062 635.132812 1269.742188 634.875 1269.523438 634.65625 C 1269.300781 634.433594 1269.042969 634.265625 1268.753906 634.144531 C 1268.464844 634.027344 1268.164062 633.964844 1267.851562 633.964844 C 1267.539062 633.96875 1267.238281 634.027344 1266.949219 634.148438 C 1266.660156 634.265625 1266.402344 634.4375 1266.183594 634.65625 C 1265.960938 634.878906 1265.789062 635.132812 1265.667969 635.421875 C 1265.550781 635.710938 1265.488281 636.007812 1265.488281 636.320312 Z M 1265.488281 608.296875 C 1265.488281 608.609375 1265.550781 608.910156 1265.671875 609.199219 C 1265.792969 609.484375 1265.964844 609.738281 1266.1875 609.957031 C 1266.410156 610.175781 1266.667969 610.347656 1266.957031 610.464844 C 1267.246094 610.582031 1267.546875 610.640625 1267.859375 610.640625 C 1268.171875 610.636719 1268.472656 610.578125 1268.761719 610.457031 C 1269.050781 610.335938 1269.304688 610.164062 1269.527344 609.945312 C 1269.746094 609.722656 1269.917969 609.46875 1270.035156 609.179688 C 1270.15625 608.890625 1270.214844 608.59375 1270.214844 608.28125 C 1270.214844 607.96875 1270.152344 607.667969 1270.03125 607.378906 C 1269.914062 607.09375 1269.742188 606.839844 1269.519531 606.617188 C 1269.296875 606.398438 1269.042969 606.226562 1268.753906 606.109375 C 1268.464844 605.988281 1268.164062 605.929688 1267.851562 605.929688 C 1267.535156 605.929688 1267.234375 605.992188 1266.945312 606.113281 C 1266.652344 606.234375 1266.398438 606.40625 1266.175781 606.625 C 1265.957031 606.847656 1265.785156 607.105469 1265.664062 607.394531 C 1265.546875 607.683594 1265.488281 607.984375 1265.488281 608.296875 Z M 1265.488281 580.269531 C 1265.488281 580.582031 1265.546875 580.882812 1265.667969 581.171875 C 1265.789062 581.460938 1265.957031 581.714844 1266.179688 581.933594 C 1266.402344 582.15625 1266.65625 582.324219 1266.945312 582.445312 C 1267.234375 582.5625 1267.539062 582.625 1267.851562 582.625 C 1268.164062 582.625 1268.464844 582.5625 1268.753906 582.445312 C 1269.042969 582.324219 1269.300781 582.15625 1269.523438 581.933594 C 1269.742188 581.714844 1269.914062 581.460938 1270.035156 581.171875 C 1270.152344 580.882812 1270.214844 580.582031 1270.214844 580.269531 C 1270.214844 579.957031 1270.152344 579.65625 1270.035156 579.367188 C 1269.914062 579.078125 1269.742188 578.824219 1269.523438 578.605469 C 1269.300781 578.382812 1269.042969 578.214844 1268.753906 578.09375 C 1268.464844 577.976562 1268.164062 577.914062 1267.851562 577.914062 C 1267.539062 577.914062 1267.234375 577.976562 1266.945312 578.09375 C 1266.65625 578.214844 1266.402344 578.382812 1266.179688 578.605469 C 1265.957031 578.824219 1265.789062 579.078125 1265.667969 579.367188 C 1265.546875 579.65625 1265.488281 579.957031 1265.488281 580.269531 Z M 1290.660156 804.488281 C 1290.664062 804.800781 1290.722656 805.101562 1290.84375 805.390625 C 1290.964844 805.675781 1291.136719 805.929688 1291.359375 806.152344 C 1291.582031 806.371094 1291.835938 806.539062 1292.125 806.660156 C 1292.414062 806.777344 1292.714844 806.835938 1293.03125 806.835938 C 1293.34375 806.835938 1293.644531 806.777344 1293.933594 806.65625 C 1294.222656 806.535156 1294.476562 806.367188 1294.699219 806.144531 C 1294.917969 805.925781 1295.089844 805.667969 1295.210938 805.378906 C 1295.328125 805.09375 1295.390625 804.792969 1295.386719 804.480469 C 1295.386719 804.167969 1295.328125 803.867188 1295.207031 803.578125 C 1295.085938 803.292969 1294.917969 803.039062 1294.695312 802.816406 C 1294.472656 802.597656 1294.21875 802.425781 1293.929688 802.308594 C 1293.640625 802.1875 1293.339844 802.128906 1293.023438 802.128906 C 1292.710938 802.128906 1292.410156 802.1875 1292.121094 802.308594 C 1291.828125 802.425781 1291.574219 802.597656 1291.351562 802.820312 C 1291.128906 803.042969 1290.960938 803.296875 1290.839844 803.585938 C 1290.71875 803.875 1290.660156 804.175781 1290.660156 804.488281 Z M 1290.660156 776.460938 C 1290.660156 776.773438 1290.722656 777.074219 1290.84375 777.359375 C 1290.960938 777.648438 1291.132812 777.90625 1291.355469 778.125 C 1291.574219 778.347656 1291.832031 778.515625 1292.121094 778.636719 C 1292.410156 778.753906 1292.710938 778.816406 1293.023438 778.816406 C 1293.339844 778.816406 1293.640625 778.753906 1293.929688 778.636719 C 1294.21875 778.515625 1294.472656 778.347656 1294.695312 778.125 C 1294.917969 777.90625 1295.089844 777.648438 1295.207031 777.359375 C 1295.328125 777.074219 1295.386719 776.773438 1295.386719 776.460938 C 1295.386719 776.148438 1295.328125 775.847656 1295.207031 775.558594 C 1295.089844 775.269531 1294.917969 775.015625 1294.695312 774.796875 C 1294.472656 774.574219 1294.21875 774.40625 1293.929688 774.285156 C 1293.640625 774.164062 1293.339844 774.105469 1293.023438 774.105469 C 1292.710938 774.105469 1292.410156 774.164062 1292.121094 774.28125 C 1291.828125 774.402344 1291.574219 774.570312 1291.351562 774.792969 C 1291.128906 775.015625 1290.960938 775.269531 1290.839844 775.558594 C 1290.71875 775.847656 1290.660156 776.148438 1290.660156 776.460938 Z M 1290.660156 748.429688 C 1290.660156 748.742188 1290.722656 749.042969 1290.84375 749.332031 C 1290.960938 749.621094 1291.132812 749.875 1291.355469 750.097656 C 1291.574219 750.316406 1291.832031 750.488281 1292.121094 750.605469 C 1292.410156 750.726562 1292.710938 750.785156 1293.023438 750.785156 C 1293.339844 750.785156 1293.640625 750.726562 1293.929688 750.605469 C 1294.21875 750.488281 1294.472656 750.316406 1294.695312 750.097656 C 1294.917969 749.875 1295.089844 749.621094 1295.207031 749.332031 C 1295.328125 749.042969 1295.386719 748.742188 1295.386719 748.429688 C 1295.386719 748.117188 1295.328125 747.816406 1295.207031 747.53125 C 1295.089844 747.242188 1294.917969 746.988281 1294.695312 746.765625 C 1294.472656 746.546875 1294.21875 746.375 1293.929688 746.253906 C 1293.640625 746.136719 1293.339844 746.078125 1293.023438 746.078125 C 1292.710938 746.078125 1292.410156 746.136719 1292.121094 746.253906 C 1291.832031 746.375 1291.574219 746.546875 1291.355469 746.765625 C 1291.132812 746.988281 1290.960938 747.242188 1290.84375 747.53125 C 1290.722656 747.816406 1290.660156 748.117188 1290.660156 748.429688 Z M 1290.660156 720.410156 C 1290.667969 720.71875 1290.730469 721.019531 1290.855469 721.304688 C 1290.976562 721.589844 1291.152344 721.839844 1291.375 722.058594 C 1291.597656 722.277344 1291.855469 722.441406 1292.144531 722.558594 C 1292.433594 722.675781 1292.734375 722.730469 1293.046875 722.726562 C 1293.359375 722.726562 1293.660156 722.664062 1293.949219 722.539062 C 1294.234375 722.417969 1294.488281 722.246094 1294.707031 722.027344 C 1294.925781 721.804688 1295.097656 721.550781 1295.214844 721.261719 C 1295.332031 720.972656 1295.390625 720.671875 1295.386719 720.363281 C 1295.386719 720.050781 1295.324219 719.75 1295.203125 719.464844 C 1295.085938 719.175781 1294.914062 718.925781 1294.691406 718.703125 C 1294.46875 718.484375 1294.214844 718.316406 1293.925781 718.195312 C 1293.636719 718.078125 1293.335938 718.019531 1293.023438 718.019531 C 1292.707031 718.019531 1292.40625 718.078125 1292.113281 718.203125 C 1291.820312 718.324219 1291.5625 718.496094 1291.339844 718.722656 C 1291.121094 718.945312 1290.949219 719.203125 1290.832031 719.496094 C 1290.714844 719.789062 1290.65625 720.09375 1290.660156 720.410156 Z M 1290.660156 692.378906 C 1290.660156 692.691406 1290.722656 692.992188 1290.84375 693.28125 C 1290.960938 693.570312 1291.132812 693.824219 1291.355469 694.042969 C 1291.574219 694.265625 1291.832031 694.433594 1292.121094 694.554688 C 1292.410156 694.675781 1292.710938 694.734375 1293.023438 694.734375 C 1293.339844 694.734375 1293.640625 694.675781 1293.929688 694.554688 C 1294.21875 694.433594 1294.472656 694.265625 1294.695312 694.042969 C 1294.917969 693.824219 1295.089844 693.570312 1295.207031 693.28125 C 1295.328125 692.992188 1295.386719 692.691406 1295.386719 692.378906 C 1295.386719 692.066406 1295.328125 691.765625 1295.207031 691.476562 C 1295.089844 691.191406 1294.917969 690.933594 1294.695312 690.714844 C 1294.472656 690.492188 1294.21875 690.324219 1293.929688 690.203125 C 1293.640625 690.085938 1293.339844 690.023438 1293.023438 690.023438 C 1292.710938 690.023438 1292.410156 690.082031 1292.121094 690.203125 C 1291.828125 690.320312 1291.574219 690.492188 1291.351562 690.710938 C 1291.128906 690.933594 1290.960938 691.1875 1290.839844 691.476562 C 1290.71875 691.765625 1290.660156 692.066406 1290.660156 692.378906 Z M 1290.660156 664.351562 C 1290.660156 664.664062 1290.722656 664.960938 1290.84375 665.25 C 1290.960938 665.539062 1291.132812 665.792969 1291.355469 666.015625 C 1291.574219 666.234375 1291.832031 666.40625 1292.121094 666.527344 C 1292.410156 666.644531 1292.710938 666.703125 1293.023438 666.703125 C 1293.339844 666.703125 1293.640625 666.644531 1293.929688 666.527344 C 1294.21875 666.40625 1294.472656 666.234375 1294.695312 666.015625 C 1294.917969 665.792969 1295.089844 665.539062 1295.207031 665.25 C 1295.328125 664.960938 1295.386719 664.664062 1295.386719 664.351562 C 1295.386719 664.039062 1295.328125 663.738281 1295.207031 663.449219 C 1295.089844 663.160156 1294.917969 662.90625 1294.695312 662.683594 C 1294.472656 662.464844 1294.21875 662.292969 1293.929688 662.175781 C 1293.640625 662.054688 1293.339844 661.996094 1293.023438 661.996094 C 1292.710938 661.996094 1292.410156 662.054688 1292.121094 662.171875 C 1291.828125 662.292969 1291.574219 662.460938 1291.351562 662.683594 C 1291.128906 662.902344 1290.960938 663.160156 1290.839844 663.449219 C 1290.71875 663.738281 1290.660156 664.039062 1290.660156 664.351562 Z M 1290.660156 636.320312 C 1290.660156 636.632812 1290.722656 636.933594 1290.84375 637.222656 C 1290.960938 637.511719 1291.132812 637.765625 1291.355469 637.984375 C 1291.574219 638.207031 1291.832031 638.375 1292.121094 638.496094 C 1292.410156 638.617188 1292.710938 638.675781 1293.023438 638.675781 C 1293.339844 638.675781 1293.640625 638.617188 1293.929688 638.496094 C 1294.21875 638.375 1294.472656 638.207031 1294.695312 637.984375 C 1294.917969 637.765625 1295.089844 637.511719 1295.207031 637.222656 C 1295.328125 636.933594 1295.386719 636.632812 1295.386719 636.320312 C 1295.386719 636.007812 1295.328125 635.707031 1295.207031 635.421875 C 1295.089844 635.132812 1294.917969 634.875 1294.695312 634.65625 C 1294.472656 634.433594 1294.21875 634.265625 1293.929688 634.144531 C 1293.640625 634.027344 1293.339844 633.964844 1293.023438 633.964844 C 1292.710938 633.964844 1292.410156 634.027344 1292.121094 634.144531 C 1291.832031 634.265625 1291.574219 634.433594 1291.355469 634.65625 C 1291.132812 634.875 1290.960938 635.132812 1290.84375 635.417969 C 1290.722656 635.707031 1290.660156 636.007812 1290.660156 636.320312 Z M 1290.660156 608.296875 C 1290.664062 608.609375 1290.726562 608.910156 1290.847656 609.199219 C 1290.96875 609.484375 1291.140625 609.738281 1291.363281 609.957031 C 1291.585938 610.175781 1291.839844 610.347656 1292.128906 610.464844 C 1292.421875 610.582031 1292.722656 610.640625 1293.035156 610.640625 C 1293.347656 610.636719 1293.648438 610.578125 1293.9375 610.457031 C 1294.226562 610.335938 1294.480469 610.164062 1294.699219 609.945312 C 1294.921875 609.722656 1295.089844 609.46875 1295.210938 609.179688 C 1295.328125 608.890625 1295.390625 608.59375 1295.386719 608.28125 C 1295.386719 607.96875 1295.328125 607.667969 1295.207031 607.378906 C 1295.085938 607.09375 1294.917969 606.839844 1294.695312 606.617188 C 1294.472656 606.398438 1294.21875 606.226562 1293.929688 606.109375 C 1293.640625 605.988281 1293.339844 605.929688 1293.023438 605.929688 C 1292.710938 605.929688 1292.40625 605.992188 1292.117188 606.109375 C 1291.828125 606.230469 1291.570312 606.402344 1291.347656 606.625 C 1291.128906 606.847656 1290.957031 607.101562 1290.835938 607.394531 C 1290.71875 607.683594 1290.660156 607.984375 1290.660156 608.296875 Z M 1290.660156 580.269531 C 1290.660156 580.582031 1290.722656 580.882812 1290.84375 581.171875 C 1290.960938 581.460938 1291.132812 581.714844 1291.355469 581.933594 C 1291.574219 582.15625 1291.832031 582.324219 1292.121094 582.445312 C 1292.410156 582.5625 1292.710938 582.625 1293.023438 582.625 C 1293.339844 582.625 1293.640625 582.5625 1293.929688 582.445312 C 1294.21875 582.324219 1294.472656 582.15625 1294.695312 581.933594 C 1294.917969 581.714844 1295.089844 581.460938 1295.207031 581.171875 C 1295.328125 580.882812 1295.386719 580.582031 1295.386719 580.269531 C 1295.386719 579.957031 1295.328125 579.65625 1295.207031 579.367188 C 1295.089844 579.078125 1294.917969 578.824219 1294.695312 578.605469 C 1294.472656 578.382812 1294.21875 578.214844 1293.929688 578.09375 C 1293.640625 577.976562 1293.339844 577.914062 1293.023438 577.914062 C 1292.710938 577.914062 1292.410156 577.972656 1292.121094 578.09375 C 1291.828125 578.210938 1291.574219 578.382812 1291.351562 578.601562 C 1291.128906 578.824219 1290.960938 579.078125 1290.839844 579.367188 C 1290.71875 579.65625 1290.660156 579.957031 1290.660156 580.269531 Z M 1315.835938 804.488281 C 1315.835938 804.800781 1315.898438 805.101562 1316.019531 805.390625 C 1316.140625 805.675781 1316.3125 805.929688 1316.53125 806.152344 C 1316.753906 806.371094 1317.011719 806.539062 1317.300781 806.660156 C 1317.589844 806.777344 1317.890625 806.835938 1318.203125 806.835938 C 1318.519531 806.835938 1318.820312 806.777344 1319.109375 806.65625 C 1319.398438 806.535156 1319.652344 806.367188 1319.875 806.144531 C 1320.09375 805.925781 1320.265625 805.667969 1320.382812 805.378906 C 1320.503906 805.09375 1320.5625 804.792969 1320.5625 804.480469 C 1320.5625 804.167969 1320.503906 803.867188 1320.382812 803.578125 C 1320.261719 803.292969 1320.089844 803.039062 1319.871094 802.816406 C 1319.648438 802.597656 1319.394531 802.425781 1319.101562 802.308594 C 1318.8125 802.1875 1318.511719 802.128906 1318.199219 802.128906 C 1317.886719 802.128906 1317.582031 802.1875 1317.292969 802.308594 C 1317.003906 802.425781 1316.746094 802.597656 1316.527344 802.820312 C 1316.304688 803.042969 1316.132812 803.296875 1316.015625 803.585938 C 1315.894531 803.875 1315.835938 804.175781 1315.835938 804.488281 Z M 1315.835938 776.460938 C 1315.835938 776.773438 1315.894531 777.074219 1316.015625 777.359375 C 1316.136719 777.648438 1316.308594 777.90625 1316.527344 778.125 C 1316.75 778.347656 1317.003906 778.515625 1317.296875 778.636719 C 1317.585938 778.753906 1317.886719 778.816406 1318.199219 778.816406 C 1318.511719 778.816406 1318.816406 778.753906 1319.105469 778.636719 C 1319.394531 778.515625 1319.648438 778.347656 1319.871094 778.125 C 1320.09375 777.90625 1320.261719 777.648438 1320.382812 777.359375 C 1320.503906 777.074219 1320.5625 776.773438 1320.5625 776.460938 C 1320.5625 776.148438 1320.503906 775.847656 1320.382812 775.558594 C 1320.261719 775.269531 1320.09375 775.015625 1319.871094 774.796875 C 1319.648438 774.574219 1319.394531 774.40625 1319.105469 774.285156 C 1318.816406 774.164062 1318.511719 774.105469 1318.199219 774.105469 C 1317.886719 774.105469 1317.585938 774.164062 1317.292969 774.28125 C 1317.003906 774.402344 1316.75 774.570312 1316.527344 774.792969 C 1316.304688 775.015625 1316.132812 775.269531 1316.015625 775.558594 C 1315.894531 775.847656 1315.835938 776.148438 1315.835938 776.460938 Z M 1315.835938 748.429688 C 1315.835938 748.742188 1315.894531 749.042969 1316.015625 749.332031 C 1316.136719 749.621094 1316.308594 749.875 1316.527344 750.097656 C 1316.75 750.316406 1317.003906 750.488281 1317.296875 750.605469 C 1317.585938 750.726562 1317.886719 750.785156 1318.199219 750.785156 C 1318.511719 750.785156 1318.816406 750.726562 1319.105469 750.605469 C 1319.394531 750.488281 1319.648438 750.316406 1319.871094 750.097656 C 1320.09375 749.875 1320.261719 749.621094 1320.382812 749.332031 C 1320.503906 749.042969 1320.5625 748.742188 1320.5625 748.429688 C 1320.5625 748.117188 1320.503906 747.816406 1320.382812 747.53125 C 1320.261719 747.242188 1320.09375 746.988281 1319.871094 746.765625 C 1319.648438 746.546875 1319.394531 746.375 1319.105469 746.253906 C 1318.816406 746.136719 1318.511719 746.078125 1318.199219 746.078125 C 1317.886719 746.078125 1317.585938 746.136719 1317.296875 746.253906 C 1317.003906 746.375 1316.75 746.546875 1316.527344 746.765625 C 1316.308594 746.988281 1316.136719 747.242188 1316.015625 747.53125 C 1315.894531 747.816406 1315.835938 748.117188 1315.835938 748.429688 Z M 1315.835938 720.410156 C 1315.835938 720.722656 1315.898438 721.019531 1316.019531 721.308594 C 1316.140625 721.597656 1316.3125 721.851562 1316.53125 722.070312 C 1316.753906 722.289062 1317.011719 722.460938 1317.300781 722.578125 C 1317.589844 722.699219 1317.890625 722.757812 1318.203125 722.757812 C 1318.519531 722.753906 1318.820312 722.695312 1319.109375 722.574219 C 1319.398438 722.457031 1319.652344 722.285156 1319.875 722.0625 C 1320.09375 721.84375 1320.265625 721.589844 1320.382812 721.300781 C 1320.503906 721.011719 1320.5625 720.710938 1320.5625 720.398438 C 1320.5625 720.085938 1320.503906 719.789062 1320.382812 719.5 C 1320.261719 719.210938 1320.089844 718.957031 1319.871094 718.734375 C 1319.648438 718.515625 1319.394531 718.34375 1319.101562 718.226562 C 1318.8125 718.105469 1318.511719 718.046875 1318.199219 718.046875 C 1317.886719 718.046875 1317.582031 718.105469 1317.292969 718.226562 C 1317.003906 718.347656 1316.746094 718.519531 1316.527344 718.738281 C 1316.304688 718.960938 1316.132812 719.214844 1316.015625 719.503906 C 1315.894531 719.792969 1315.835938 720.097656 1315.835938 720.410156 Z M 1315.835938 692.378906 C 1315.835938 692.691406 1315.894531 692.992188 1316.015625 693.28125 C 1316.136719 693.570312 1316.308594 693.824219 1316.527344 694.042969 C 1316.75 694.265625 1317.003906 694.433594 1317.296875 694.554688 C 1317.585938 694.675781 1317.886719 694.734375 1318.199219 694.734375 C 1318.511719 694.734375 1318.816406 694.675781 1319.105469 694.554688 C 1319.394531 694.433594 1319.648438 694.265625 1319.871094 694.042969 C 1320.09375 693.824219 1320.261719 693.570312 1320.382812 693.28125 C 1320.503906 692.992188 1320.5625 692.691406 1320.5625 692.378906 C 1320.5625 692.066406 1320.503906 691.765625 1320.382812 691.476562 C 1320.261719 691.191406 1320.09375 690.933594 1319.871094 690.714844 C 1319.648438 690.492188 1319.394531 690.324219 1319.105469 690.203125 C 1318.816406 690.085938 1318.511719 690.023438 1318.199219 690.023438 C 1317.886719 690.023438 1317.585938 690.082031 1317.292969 690.203125 C 1317.003906 690.320312 1316.75 690.492188 1316.527344 690.710938 C 1316.304688 690.933594 1316.132812 691.1875 1316.015625 691.476562 C 1315.894531 691.765625 1315.835938 692.066406 1315.835938 692.378906 Z M 1315.835938 664.351562 C 1315.835938 664.664062 1315.894531 664.960938 1316.015625 665.25 C 1316.136719 665.539062 1316.308594 665.792969 1316.527344 666.015625 C 1316.75 666.234375 1317.003906 666.40625 1317.296875 666.527344 C 1317.585938 666.644531 1317.886719 666.703125 1318.199219 666.703125 C 1318.511719 666.703125 1318.816406 666.644531 1319.105469 666.527344 C 1319.394531 666.40625 1319.648438 666.234375 1319.871094 666.015625 C 1320.09375 665.792969 1320.261719 665.539062 1320.382812 665.25 C 1320.503906 664.960938 1320.5625 664.664062 1320.5625 664.351562 C 1320.5625 664.039062 1320.503906 663.738281 1320.382812 663.449219 C 1320.261719 663.160156 1320.09375 662.90625 1319.871094 662.683594 C 1319.648438 662.464844 1319.394531 662.292969 1319.105469 662.175781 C 1318.816406 662.054688 1318.511719 661.996094 1318.199219 661.996094 C 1317.886719 661.996094 1317.585938 662.054688 1317.292969 662.171875 C 1317.003906 662.292969 1316.75 662.460938 1316.527344 662.683594 C 1316.304688 662.902344 1316.132812 663.160156 1316.015625 663.449219 C 1315.894531 663.738281 1315.835938 664.039062 1315.835938 664.351562 Z M 1315.835938 636.320312 C 1315.835938 636.632812 1315.894531 636.933594 1316.015625 637.222656 C 1316.136719 637.511719 1316.308594 637.765625 1316.527344 637.984375 C 1316.75 638.207031 1317.003906 638.375 1317.296875 638.496094 C 1317.585938 638.617188 1317.886719 638.675781 1318.199219 638.675781 C 1318.511719 638.675781 1318.816406 638.617188 1319.105469 638.496094 C 1319.394531 638.375 1319.648438 638.207031 1319.871094 637.984375 C 1320.09375 637.765625 1320.261719 637.511719 1320.382812 637.222656 C 1320.503906 636.933594 1320.5625 636.632812 1320.5625 636.320312 C 1320.5625 636.007812 1320.503906 635.707031 1320.382812 635.421875 C 1320.261719 635.132812 1320.09375 634.875 1319.871094 634.65625 C 1319.648438 634.433594 1319.394531 634.265625 1319.105469 634.144531 C 1318.816406 634.027344 1318.511719 633.964844 1318.199219 633.964844 C 1317.886719 633.964844 1317.585938 634.027344 1317.296875 634.144531 C 1317.003906 634.265625 1316.75 634.433594 1316.527344 634.65625 C 1316.308594 634.875 1316.136719 635.132812 1316.015625 635.417969 C 1315.894531 635.707031 1315.835938 636.007812 1315.835938 636.320312 Z M 1315.835938 608.296875 C 1315.835938 608.609375 1315.898438 608.910156 1316.019531 609.199219 C 1316.140625 609.488281 1316.3125 609.742188 1316.53125 609.960938 C 1316.753906 610.179688 1317.011719 610.351562 1317.300781 610.46875 C 1317.589844 610.585938 1317.890625 610.648438 1318.203125 610.644531 C 1318.515625 610.644531 1318.820312 610.585938 1319.109375 610.464844 C 1319.398438 610.34375 1319.652344 610.175781 1319.875 609.953125 C 1320.09375 609.734375 1320.265625 609.480469 1320.382812 609.191406 C 1320.503906 608.902344 1320.5625 608.601562 1320.5625 608.289062 C 1320.5625 607.976562 1320.503906 607.675781 1320.382812 607.390625 C 1320.261719 607.101562 1320.089844 606.847656 1319.871094 606.625 C 1319.648438 606.40625 1319.394531 606.234375 1319.101562 606.117188 C 1318.8125 605.996094 1318.511719 605.9375 1318.199219 605.9375 C 1317.886719 605.9375 1317.582031 605.996094 1317.292969 606.117188 C 1317.003906 606.238281 1316.746094 606.40625 1316.527344 606.628906 C 1316.304688 606.851562 1316.132812 607.105469 1316.015625 607.394531 C 1315.894531 607.683594 1315.835938 607.984375 1315.835938 608.296875 Z M 1315.835938 580.269531 C 1315.835938 580.582031 1315.894531 580.882812 1316.015625 581.171875 C 1316.136719 581.460938 1316.308594 581.714844 1316.527344 581.933594 C 1316.75 582.15625 1317.003906 582.324219 1317.296875 582.445312 C 1317.585938 582.5625 1317.886719 582.625 1318.199219 582.625 C 1318.511719 582.625 1318.816406 582.5625 1319.105469 582.445312 C 1319.394531 582.324219 1319.648438 582.15625 1319.871094 581.933594 C 1320.09375 581.714844 1320.261719 581.460938 1320.382812 581.171875 C 1320.503906 580.882812 1320.5625 580.582031 1320.5625 580.269531 C 1320.5625 579.957031 1320.503906 579.65625 1320.382812 579.367188 C 1320.261719 579.078125 1320.09375 578.824219 1319.871094 578.605469 C 1319.648438 578.382812 1319.394531 578.214844 1319.105469 578.09375 C 1318.816406 577.976562 1318.511719 577.914062 1318.199219 577.914062 C 1317.886719 577.914062 1317.585938 577.972656 1317.292969 578.09375 C 1317.003906 578.210938 1316.75 578.382812 1316.527344 578.601562 C 1316.304688 578.824219 1316.132812 579.078125 1316.015625 579.367188 C 1315.894531 579.65625 1315.835938 579.957031 1315.835938 580.269531 Z M 1315.835938 580.269531 " fill-opacity="1" fill-rule="nonzero"/></g></svg>